<svg width="306" height="432" viewBox="0 0 306 432" fill="none" xmlns="http://www.w3.org/2000/svg">
<path d="M179.223 217.978C179.283 217.978 179.193 217.218 179.223 216.858V217.978Z" fill="#2F2F25"/>
<path d="M176.983 194.498C181.863 191.368 187.053 189.158 191.513 185.008C198.093 178.888 197.313 174.728 206.893 171.328C217.253 167.658 228.683 165.588 238.793 161.998C252.593 157.098 267.473 144.018 279.223 135.258C284.923 136.768 279.893 139.278 279.233 141.818C276.683 151.628 275.743 148.818 272.523 155.438C271.813 156.888 272.893 158.718 272.033 160.148C269.533 164.298 246.803 184.958 241.773 188.918C239.733 188.618 239.143 190.678 238.423 191.158L235.073 193.398C232.913 194.508 223.903 198.728 222.223 198.998C218.873 199.518 221.663 197.448 221.673 196.758C222.153 196.528 223.563 196.848 224.923 196.148C229.823 193.648 235.223 189.488 240.113 186.698L237.333 186.148L242.353 181.128C239.993 183.458 235.333 183.758 235.693 187.598L229.503 187.258L249.603 173.828C241.763 174.148 236.623 180.488 229.693 182.428C229.743 186.398 228.043 187.958 225.023 190.048C229.953 189.168 225.723 194.778 223.903 193.388L225.023 190.048C221.243 192.668 216.183 194.168 211.623 194.518C211.043 191.348 212.373 192.678 214.073 191.998C217.213 190.748 224.793 189.368 226.133 186.118C228.043 181.498 215.563 190.358 217.203 184.468C220.253 185.888 239.333 177.708 236.193 174.398L219.443 179.978C220.553 177.198 224.763 177.558 227.573 176.388C232.883 174.158 239.333 171.628 242.343 166.598C246.443 170.738 239.183 171.588 237.343 173.848C237.303 178.098 248.383 171.028 250.003 169.738C251.533 168.518 251.853 167.898 252.953 166.578C257.263 167.028 279.033 145.478 277.533 144.228C276.003 143.878 275.323 144.678 274.183 145.338C275.153 143.898 276.053 141.348 276.983 139.768C261.203 152.828 245.003 164.428 225.263 170.728C219.323 172.628 208.483 173.758 203.883 176.168C199.733 178.338 193.453 189.178 186.293 193.228C183.643 194.728 177.453 198.298 174.753 195.658C175.923 195.938 176.323 194.968 176.983 194.538V194.498ZM270.813 156.478C263.893 163.498 254.603 167.398 249.623 176.058L256.323 171.588L270.823 156.478H270.813ZM249.053 178.858L242.923 183.878C245.073 183.928 249.083 181.208 249.053 178.858Z" fill="#2F2F25"/>
<path d="M194.863 219.098C192.983 219.898 191.333 221.598 188.733 221.338L190.663 222.178C196.463 220.138 203.913 218.238 209.383 215.738C208.433 217.368 200.923 224.968 199.283 226.308C196.463 228.608 192.603 226.718 193.713 230.838C193.893 231.488 197.103 230.808 195.963 233.618C192.323 232.968 192.853 230.348 190.923 228.018C186.933 230.238 184.183 232.278 179.223 231.368C178.603 226.418 187.243 231.428 189.243 227.468C185.613 220.558 180.913 214.028 180.343 205.658L187.023 219.708C187.863 220.228 194.523 219.288 194.853 219.068L194.863 219.098ZM201.003 220.218V221.338C201.733 220.968 201.733 220.588 201.003 220.218ZM199.323 221.338C197.953 221.078 193.603 222.978 194.873 223.558C196.243 223.818 200.593 221.918 199.323 221.338ZM198.203 224.698L189.273 223.578C188.833 228.318 196.793 227.748 198.203 224.698Z" fill="#2F2F25"/>
<path d="M221.673 196.728C219.173 197.918 215.363 201.078 214.973 201.198L213.303 200.088C212.843 200.198 212.913 201.078 212.743 201.198C211.673 201.318 206.963 201.978 207.163 200.098C211.193 199.808 215.593 196.638 219.113 195.828C220.313 195.558 221.683 195.108 221.673 196.728Z" fill="#2F2F25"/>
<path d="M273.063 146.408C273.383 145.978 273.933 145.658 274.183 145.288C273.863 145.478 273.553 146.108 273.063 146.408Z" fill="#2F2F25"/>
<path d="M70.8527 178.838C68.5527 177.728 55.3027 164.588 54.1827 162.428C53.1327 160.418 54.3427 158.558 53.1027 157.008C51.1327 154.538 45.9327 152.268 43.4827 148.558C42.7427 147.428 37.1527 135.788 36.9627 134.988C36.6127 133.478 36.5627 130.158 38.9727 130.758C48.3327 136.388 55.4227 142.968 65.8127 147.538C83.4426 155.298 111.903 158.618 126.193 166.498C137.923 172.958 128.763 185.648 141.783 191.158C144.933 191.128 141.263 187.948 142.913 184.448C143.103 184.048 148.373 177.918 148.743 177.668C151.623 175.708 156.853 176.228 159.083 174.888C160.193 174.218 160.843 171.758 162.523 170.498C167.583 166.678 173.783 161.658 180.013 165.178C190.363 171.038 184.953 186.998 176.993 192.248C178.043 189.338 179.293 188.638 180.353 186.108L176.993 183.308L181.443 184.428L183.683 177.718C180.313 177.968 174.523 174.018 171.623 175.708C169.493 176.948 168.153 185.528 161.343 183.308L164.683 187.748L156.873 191.108L154.643 187.748C154.643 185.398 158.393 187.548 159.763 185.548C160.383 184.638 158.973 182.668 160.133 181.608C162.373 179.568 168.363 180.288 170.273 176.018L168.053 173.238C164.493 172.648 163.573 177.688 161.583 178.788C158.373 180.558 155.473 178.708 152.413 179.298C150.333 179.698 144.773 184.238 144.533 186.058C143.653 192.718 151.213 186.938 154.703 189.418C156.873 190.958 159.513 201.288 162.083 202.158C166.273 203.568 170.743 199.838 170.263 195.598L166.493 196.678C160.693 188.508 169.773 194.948 174.743 194.478C174.583 194.738 174.893 195.278 174.743 195.598C174.453 196.228 171.623 196.658 172.513 198.938C175.223 199.258 178.083 200.808 179.213 203.418L172.113 200.238C163.363 210.828 156.723 202.778 154.523 192.368C152.823 190.898 139.593 194.448 137.303 196.708C136.203 198.278 142.823 201.618 141.223 203.418C140.283 204.478 134.233 199.058 136.763 197.848C134.673 196.388 118.833 203.118 117.183 205.648C116.433 206.798 116.593 207.768 116.643 209.018L128.933 211.278C129.203 213.288 126.503 212.298 125.313 212.108C123.423 211.808 117.023 208.808 116.693 211.808C116.493 213.648 122.973 233.568 125.023 233.608C125.293 231.978 140.793 211.008 142.343 217.428C143.043 220.338 138.513 218.398 137.953 220.888L138.993 224.698L152.393 222.458L153.513 223.578C153.843 224.768 154.563 223.568 154.633 223.578C156.533 223.928 156.843 226.138 155.883 222.858C155.533 221.668 154.753 220.458 154.523 219.168L144.583 219.668C150.143 215.848 157.343 217.288 160.773 222.458L168.033 209.048C166.703 212.558 165.323 219.998 163.603 222.838C162.863 224.058 161.113 223.198 160.493 223.858C159.613 224.798 161.413 227.848 156.963 227.028L156.873 230.288C149.993 228.008 150.163 231.948 143.733 232.788C141.773 235.848 141.273 239.548 140.033 242.848C139.733 243.648 138.133 243.638 137.923 244.498C136.123 251.988 140.603 251.648 146.813 251.538L144.513 258.738C144.793 262.298 150.323 264.368 153.513 263.828L151.293 254.898C155.213 254.948 158.303 257.438 160.233 252.668L156.873 250.428L162.013 249.378L162.463 237.008H155.773C155.713 234.878 159.103 235.338 160.223 235.898C160.373 234.818 160.053 233.548 160.233 232.538C160.773 233.038 161.373 233.978 161.363 234.768L162.473 234.208L160.223 231.428L160.773 229.198C162.513 231.168 164.013 233.048 166.933 232.538L165.803 230.318L171.393 229.178L169.143 223.598C168.093 222.848 164.663 229.678 162.463 227.518C164.563 223.858 168.483 221.118 170.743 217.918C173.813 213.588 173.193 214.768 175.273 212.488C176.573 211.068 176.723 208.088 178.653 206.828C180.503 210.018 175.823 213.098 180.383 214.198C180.243 215.208 179.653 216.008 179.213 216.888C179.073 217.168 178.113 217.208 178.103 217.448C178.513 217.558 178.893 218.028 179.213 218.008L177.863 220.608L171.403 222.468L184.813 224.718V228.068L175.883 225.838C175.963 233.378 182.563 236.808 186.493 241.488C189.293 244.818 191.093 248.208 194.253 251.618C195.353 252.808 197.793 253.638 198.033 254.028C198.403 254.618 196.683 257.728 199.263 258.838C197.423 261.948 195.053 260.278 194.863 260.488C192.683 262.978 197.643 262.198 197.083 263.838C190.883 262.488 189.263 269.568 195.463 267.268C198.413 266.168 204.383 261.718 206.023 266.078C202.113 264.618 198.103 273.808 199.323 275.038C200.063 275.778 204.053 273.248 202.663 278.388L197.743 277.308L196.473 278.388C196.373 281.788 197.103 285.728 194.283 288.448L194.833 280.628L192.123 281.808L190.953 279.488C186.053 284.938 180.313 286.048 173.023 286.278C169.233 286.398 170.443 285.158 170.263 285.098C174.583 283.678 184.263 285.058 186.533 280.648C189.073 275.698 181.723 277.538 181.443 277.268C179.033 275.038 184.293 275.418 183.663 273.928L179.203 273.908C178.343 270.348 181.233 272.408 182.243 271.448C184.493 269.318 184.443 264.728 182.493 262.278L185.893 259.398C184.443 262.748 186.313 266.948 190.363 267.208L187.023 264.978C189.203 261.378 185.513 256.398 189.233 254.918L190.373 260.508L195.883 257.728C192.663 252.658 187.283 249.498 183.093 244.868C180.323 241.818 178.803 235.818 174.223 235.848C169.643 235.878 168.393 239.498 164.683 233.678C162.893 238.638 165.163 244.348 163.963 249.088C163.793 249.748 161.283 255.478 161.033 255.738C159.713 257.108 154.363 256.508 154.863 259.978C155.023 261.088 160.233 264.208 161.813 266.168C164.603 269.648 166.713 277.808 168.023 279.518C168.023 279.318 166.023 276.298 164.673 277.288L165.803 282.868C167.623 282.408 168.033 281.258 168.023 279.518C168.143 279.668 169.513 279.238 170.033 279.758C170.473 280.198 169.273 283.898 170.253 285.108C169.213 284.718 168.303 283.698 166.913 283.998C166.703 286.078 167.713 292.328 169.793 292.848C173.823 293.858 189.403 282.168 190.363 290.698C183.923 285.728 177.503 293.768 170.343 294.148C168.613 296.588 179.143 323.768 177.883 330.118C177.573 331.698 176.483 333.238 175.283 334.298L176.963 329.838C173.053 329.488 172.103 326.138 166.903 327.598L164.683 304.118L167.693 315.058C168.063 316.748 168.743 326.048 169.173 326.428C169.723 326.908 172.623 326.098 173.993 326.448C174.243 326.508 176.153 331.158 176.943 326.968C177.093 326.188 176.253 324.738 175.793 323.938C170.813 315.288 168.683 297.078 165.473 285.978C164.173 281.478 161.833 276.518 160.463 271.958C159.923 270.168 160.693 267.648 159.953 266.328C158.853 264.358 153.463 262.568 153.333 267.038C149.543 269.208 143.433 260.718 142.813 260.568C139.353 259.708 130.453 267.528 131.103 272.138C131.173 272.918 137.793 275.228 136.743 278.378L129.463 276.128L126.693 283.968L133.383 286.208L127.853 286.278C126.493 293.558 125.303 294.778 132.253 298.518L138.943 282.298C137.223 279.688 134.203 280.888 131.723 280.638L131.693 278.418L139.613 280.558L139.493 292.978C145.553 294.878 146.753 299.918 154.623 299.088C155.663 301.698 148.963 300.428 148.683 300.328C142.263 298.158 138.983 290.628 134.153 299.658C133.623 300.648 134.593 301.788 134.513 301.868C134.063 302.318 131.073 301.038 132.273 306.338H138.423L138.983 305.228C149.723 309.098 146.823 302.198 136.753 301.878C137.583 298.528 154.863 303.628 152.383 306.348L131.213 308.628L131.183 317.528L138.983 315.308L131.173 318.668L134.533 319.778L133.383 321.998L138.973 320.868V318.648L135.633 319.208L143.423 315.848C140.803 312.608 136.823 314.458 133.683 315.048C131.523 315.448 132.323 314.938 132.283 313.058C135.353 312.598 139.963 313.818 142.713 312.878C144.923 312.118 144.923 307.288 149.033 308.588C149.163 309.418 141.793 313.728 146.223 314.158C149.533 313.088 151.263 307.898 152.323 306.968C152.813 306.528 154.733 307.338 155.223 306.468C156.363 304.448 154.613 300.918 156.843 300.758C158.743 306.738 154.483 307.878 152.973 310.878C152.323 312.168 153.173 314.178 152.523 315.878C151.053 319.698 147.223 321.538 149.033 327.598L165.793 325.368C166.273 327.188 163.853 325.918 163.543 327.188C163.283 328.278 163.703 329.738 163.573 330.958L166.273 329.778L167.133 331.878L170.253 330.948L168.013 337.648H165.793L168.023 334.308L163.093 334.418L162.433 330.948L160.783 330.968C148.943 336.778 151.403 347.198 154.723 357.678L161.313 357.798V334.318L163.033 335.438C163.543 336.228 162.433 336.848 162.433 337.118V362.838C162.433 363.258 164.753 370.558 165.003 370.898C168.913 376.368 175.733 372.698 179.713 372.308C186.093 371.688 193.703 373.568 200.413 372.348C201.303 376.608 194.673 374.308 192.603 373.448L192.573 376.788C182.933 375.718 173.343 379.948 163.553 379.038C164.973 376.188 171.353 379.948 172.483 375.708C168.273 377.318 164.143 374.158 161.683 373.808C159.663 373.518 157.123 375.488 154.623 373.458V376.808L161.303 375.698L161.323 379.048C158.213 380.578 154.213 377.308 152.913 377.238C145.973 376.878 133.873 386.078 127.293 378.388L107.693 377.938C107.473 375.038 107.533 376.068 109.383 375.738C116.463 374.478 123.463 373.968 130.583 373.458L130.043 379.058H140.103L140.083 375.708C137.563 377.188 130.873 379.538 131.163 374.588C135.733 377.448 138.243 373.158 142.983 372.448C150.223 371.358 157.093 374.578 163.533 371.168L161.313 360.058L156.343 360.038L157.973 370.098L153.513 371.228C154.713 359.938 146.843 349.798 150.143 338.808C149.193 339.008 147.363 341.378 146.803 342.158C148.113 338.068 151.353 333.998 149.603 329.868C146.823 331.978 142.393 333.388 140.083 335.998C137.603 338.798 131.223 354.258 134.433 356.188C139.153 359.028 141.523 355.878 143.453 352.228C141.813 358.358 139.553 364.668 140.093 371.228L130.053 372.348C132.853 364.748 130.703 355.838 131.803 348.758C132.743 342.698 135.713 338.818 133.403 332.098L136.733 336.558L137.853 327.628C130.373 329.558 127.743 326.738 125.573 319.808L130.033 318.688C125.043 319.628 122.963 316.978 119.993 313.638L127.803 317.548L124.463 314.218C129.113 314.388 129.673 311.308 130.053 307.508C126.683 307.218 123.413 307.628 121.113 310.298L125.573 313.078C120.623 312.288 119.713 313.718 116.643 309.738C117.723 309.878 118.893 309.668 119.993 309.728V308.638C114.743 306.628 121.093 304.708 113.293 306.388C109.323 307.248 105.693 308.808 101.593 308.688L101.003 305.268C99.9827 304.218 90.5727 309.158 88.0927 309.668C75.5127 312.268 59.4427 305.738 48.5027 316.438L63.6027 311.998L64.1427 314.208C57.6127 315.718 50.0427 317.378 44.0527 320.388C39.9927 322.428 38.1227 325.128 35.1127 327.098C33.5227 328.138 32.4527 328.108 32.8727 325.978L39.5627 320.368L37.3027 319.258C37.0427 317.908 38.1727 317.288 38.9727 316.428C44.9327 310.018 73.2627 304.368 82.5827 303.038C83.2527 302.938 84.4127 302.728 84.2427 303.598C81.6727 306.638 77.9027 306.598 74.1927 306.408C78.4527 311.798 87.3727 306.788 93.1927 306.388L92.0727 303.048L96.5126 302.488L93.1927 303.038L93.2127 299.738C95.0827 299.908 97.6126 298.218 99.2126 298.628C100.473 298.948 101.453 304.188 102.693 300.818C103.643 298.248 103.183 295.598 103.243 292.968C103.753 292.458 115.343 295.708 117.353 295.988C118.663 296.168 120.233 295.038 121.483 295.178C121.913 295.228 125.633 299.778 128.933 298.548L123.433 294.508L125.583 286.268L117.773 290.178C127.373 285.108 126.093 269.038 131.793 262.838C135.443 258.868 143.593 260.438 142.333 254.978C141.033 254.978 134.883 253.088 134.523 252.708C133.483 251.598 136.363 248.438 131.173 252.708C130.183 252.818 129.193 253.288 128.323 253.758L127.283 251.588C117.813 256.778 107.043 264.948 96.8027 268.078C95.6427 268.428 93.8727 267.678 92.2927 268.018C89.9127 268.528 84.6127 273.108 85.3727 268.388C92.9927 266.498 99.6327 262.178 106.623 258.848C107.753 258.308 109.333 258.598 109.943 258.308C105.953 260.468 101.923 262.588 97.9227 264.748C96.0727 265.748 94.6826 265.788 98.0126 265.968C103.613 263.588 108.453 260.658 113.283 257.188C113.773 256.838 115.553 257.818 115.533 256.628L113.283 256.068C114.903 255.168 118.073 250.988 117.183 256.048L120.573 251.618L121.643 253.818C126.213 247.628 119.583 238.998 117.733 232.588C116.053 232.138 115.883 233.028 114.943 233.688C102.023 242.698 86.6327 261.448 71.1527 264.798C68.7727 265.308 68.2327 265.498 68.5927 262.798L74.1727 260.558L65.2427 262.778L69.7027 260.538L65.2327 257.728C66.9727 255.528 66.6627 250.088 69.7027 252.728C72.9927 248.288 56.5427 249.278 54.7527 249.488C47.5827 250.308 39.7427 254.228 32.3027 254.978C29.6227 250.208 41.1127 247.158 44.8527 246.308C54.3127 244.148 72.4827 242.388 73.1227 255.498L68.6127 257.758C70.1427 259.918 70.8727 259.508 73.1027 258.928C75.3327 258.348 85.7927 251.628 88.6127 249.838C94.4227 246.158 99.6826 241.828 105.373 238.028L104.343 233.718C108.313 235.388 110.643 232.418 113.843 230.358L103.593 233.378C101.533 233.108 99.1327 233.188 99.8727 230.358C106.453 231.878 111.683 226.598 117.733 228.108C118.843 225.518 115.793 223.468 115.503 222.518C114.443 218.978 112.223 208.668 113.843 205.748C116.643 200.698 132.663 195.538 137.823 192.878C129.753 189.298 130.303 174.168 126.363 170.268C122.423 166.368 110.403 165.298 105.413 163.838C82.9827 157.308 59.8827 150.578 41.7827 135.288C37.8427 139.998 71.0527 159.318 75.2827 160.458C67.2227 161.208 60.2427 154.268 52.9427 151.498C50.5827 150.818 53.9227 153.458 54.1627 153.638C57.5727 156.208 72.6927 165.398 76.0727 166.378C76.9427 166.628 77.7427 166.688 78.6227 166.588L80.3127 162.138C83.4227 170.858 90.9527 171.428 97.6227 176.098L80.5927 170.778C74.6427 168.948 69.3727 165.538 63.7827 162.998C62.7827 162.548 60.6227 160.948 60.7727 163.218C66.9827 165.948 72.8027 169.598 78.9827 172.388C84.1627 174.728 89.4727 176.798 94.6127 179.108C98.6227 180.908 103.303 182.808 107.683 183.368L107.143 185.578L93.1827 181.668L106.673 186.118C106.373 190.418 109.453 189.178 113.263 190.078C113.563 191.948 110.553 191.288 109.333 191.218C101.123 190.748 86.6127 183.948 77.5227 181.118C74.4827 178.008 71.3827 176.918 68.0127 174.428C67.7927 175.758 69.9227 177.738 70.8227 178.878L70.8527 178.838ZM50.1827 149.768V150.888C50.9127 150.518 50.9127 150.138 50.1827 149.768ZM56.8927 158.708V159.828C57.6227 159.458 57.6227 159.078 56.8927 158.708ZM89.8427 178.858C83.3027 175.938 75.1827 173.458 68.9827 170.088C64.9327 167.878 61.8327 164.208 57.4727 162.608C62.8027 168.718 69.8927 172.968 77.1627 176.438C79.3827 177.498 86.3627 180.818 88.2027 181.068C90.3927 181.368 89.9627 180.658 89.8527 178.848L89.8427 178.858ZM177.393 168.338C176.763 167.778 177.283 166.408 176.453 166.558C176.253 168.038 165.403 169.668 168.063 172.138C172.163 169.978 176.133 171.108 180.333 172.138C180.843 169.698 178.753 169.568 177.393 168.348V168.338ZM182.003 171.038C180.903 171.818 182.603 172.578 183.143 173.228C184.253 172.498 182.623 171.748 182.003 171.038ZM173.623 219.108H171.403V220.208H173.623V219.108ZM158.553 223.568V224.688C159.283 224.318 159.283 223.938 158.553 223.568ZM153.523 225.818C146.653 224.608 137.413 223.308 137.903 233.038L140.123 234.208L145.333 229.348L153.523 225.818ZM136.213 225.808V226.928C136.943 226.558 136.943 226.178 136.213 225.808ZM134.523 226.938C132.533 226.638 130.603 227.008 130.063 229.148C131.513 229.608 135.683 227.478 134.523 226.938ZM174.743 234.748V233.098L173.083 231.428L169.173 234.198L174.743 234.748ZM124.493 251.528L130.043 247.608C128.223 247.088 122.963 249.678 124.493 251.528ZM69.1827 253.758V254.878C69.9127 254.508 69.9127 254.128 69.1827 253.758ZM78.6827 259.348L86.4727 254.308C85.4927 254.288 76.6727 257.308 78.6827 259.348ZM193.183 261.588V262.708C193.913 262.338 193.913 261.958 193.183 261.588ZM189.273 268.308C183.553 265.748 182.223 273.318 189.273 271.638V268.308ZM197.653 267.178V268.298C198.383 267.928 198.383 267.548 197.653 267.178ZM198.203 270.548L190.403 268.298L193.563 270.718L193.753 273.888C195.733 274.828 199.493 272.288 198.213 270.548H198.203ZM163.023 272.768V273.888C163.753 273.518 163.753 273.138 163.023 272.768ZM192.623 272.778C190.583 272.408 188.923 274.008 189.283 276.118H192.623V272.778ZM188.153 276.118L185.933 273.898V276.128H188.153V276.118ZM194.853 278.358V276.128L192.633 277.808L194.853 278.358ZM106.593 294.028H104.373V296.248H106.593V294.028ZM107.163 297.368V298.488C107.893 298.118 107.893 297.738 107.163 297.368ZM110.513 297.368V298.488C111.243 298.118 111.243 297.738 110.513 297.368ZM113.863 297.368V298.488C114.593 298.118 114.593 297.738 113.863 297.368ZM121.123 298.498H117.783V299.598H121.123V298.498ZM107.713 299.618H105.493V300.718H107.713V299.618ZM113.303 299.618H109.963V300.718H113.303V299.618ZM131.183 306.308C130.013 302.098 128.283 299.258 123.373 299.618L131.183 306.308ZM121.683 300.728V301.848C122.413 301.478 122.413 301.098 121.683 300.728ZM102.693 304.078V305.198C103.423 304.828 103.423 304.448 102.693 304.078ZM107.713 305.208H105.493V306.308H107.713V305.208ZM126.703 305.208C124.553 305.258 119.623 304.788 118.893 307.428C120.853 306.188 125.913 307.378 126.703 305.208ZM45.7127 316.378V317.498C46.4427 317.128 46.4427 316.748 45.7127 316.378ZM42.9227 319.728V317.498L40.7027 319.178L42.9227 319.728ZM131.173 320.868H127.833V321.968H131.173V320.868ZM146.823 327.568V321.968C144.583 323.338 143.183 325.748 140.123 325.338C141.023 328.218 144.433 327.578 146.823 327.568ZM140.113 357.768C133.043 356.398 132.853 364.768 132.303 370.058L138.933 368.888L140.103 357.768H140.113ZM166.933 374.518L164.713 372.298V374.528H166.933V374.518Z" fill="#2F2F25"/>
<path d="M271.943 147.528C272.283 147.128 272.763 146.798 273.063 146.408C272.753 146.598 272.423 147.208 271.943 147.528Z" fill="#2F2F25"/>
<path d="M136.763 301.848L138.993 305.198C137.113 304.518 135.163 304.238 134.523 301.848C135.263 301.858 136.013 301.828 136.753 301.848H136.763Z" fill="#2F2F25"/>
<path d="M271.943 147.528C269.923 149.938 268.143 152.088 265.763 154.208C259.373 159.888 258.693 159.608 252.953 166.538L252.403 163.208C251.283 164.418 250.023 165.328 248.523 166.018C247.813 166.348 244.113 167.488 245.673 165.408C254.803 159.978 263.153 153.438 271.933 147.518L271.943 147.528Z" fill="#2F2F25"/>
<path d="M134.533 252.638C133.693 255.028 130.723 255.928 128.403 256.008C126.633 255.938 130.043 253.568 131.183 252.638C132.273 252.518 133.433 252.718 134.533 252.638Z" fill="#2F2F25"/>
<path d="M77.5527 181.078C77.7027 181.228 77.2427 182.458 77.7727 183.048C79.4427 184.918 92.2027 189.438 95.4227 188.918C94.0627 191.668 88.1327 189.488 85.9427 188.888L85.3827 191.118L105.473 201.218C105.753 203.198 102.963 202.308 101.833 202.068C95.6427 200.728 88.8627 194.148 84.2527 199.538L87.6227 200.098L86.5227 202.268L108.823 210.718C101.713 211.718 95.1227 204.328 88.7627 209.128C91.4327 216.448 103.363 214.208 109.943 214.638C109.823 216.358 104.943 216.848 103.763 216.888C99.3027 217.058 95.1827 214.128 93.1927 219.088L113.293 217.988L102.253 222.068L98.7727 225.798L115.523 222.448C112.633 223.898 103.853 228.448 101.363 228.848C100.133 229.038 96.5027 227.858 95.8727 226.968L96.5427 222.458L91.4227 221.368C93.1427 212.128 91.2827 216.348 88.1827 213.518C83.2327 209.018 91.1527 206.678 90.9527 206.238C87.3727 203.368 81.7127 204.248 83.6427 197.798L86.4827 196.168C80.7627 193.758 83.4027 188.238 83.1127 187.818C82.8727 187.458 77.4527 185.368 75.4127 183.758C73.3727 182.148 72.4027 180.808 70.8427 178.828C73.0827 179.908 75.2427 180.348 77.5427 181.068L77.5527 181.078Z" fill="#2F2F25"/>
<path d="M116.653 309.678C114.153 309.358 114.283 308.808 113.303 306.328C116.463 305.578 115.873 308.668 116.653 309.678Z" fill="#2F2F25"/>
<path d="M113.303 255.998C113.193 256.028 113.413 257.068 113.303 257.118C112.723 257.338 111.513 256.878 111.073 257.118C111.743 256.808 112.683 256.348 113.303 255.998Z" fill="#2F2F25"/>
<path d="M153.523 222.448H152.403L152.963 221.348L153.523 222.448Z" fill="#2F2F25"/>
<path d="M209.383 215.738C210.103 214.508 211.643 213.118 208.863 213.538C204.353 215.798 199.473 217.118 194.863 219.098C195.013 218.998 194.753 217.048 196.693 215.938C200.483 213.758 207.913 213.028 211.603 209.578C203.553 208.688 196.443 214.798 188.173 213.488L202.683 209.008L192.643 207.918C199.023 207.718 207.513 204.918 212.743 201.198C213.463 201.118 214.433 201.368 214.973 201.198C215.413 202.408 213.833 205.318 216.583 204.498C221.793 202.938 230.803 196.818 235.083 193.368C237.143 192.308 237.193 191.948 238.433 191.128L241.783 188.888C244.343 189.718 242.273 191.238 241.213 192.228C238.753 194.528 233.703 196.358 231.733 198.448C226.573 203.918 216.573 212.438 209.383 215.718V215.738ZM228.933 200.088V201.208C229.663 200.838 229.663 200.458 228.933 200.088ZM226.713 201.228L225.053 202.898L225.583 203.428C226.203 202.718 227.833 201.968 226.723 201.238L226.713 201.228ZM223.343 203.438V204.558C224.073 204.188 224.073 203.808 223.343 203.438ZM208.263 205.688C206.893 205.428 202.543 207.328 203.813 207.908C205.183 208.168 209.533 206.268 208.263 205.688ZM215.523 206.798V207.918C216.253 207.548 216.253 207.168 215.523 206.798ZM213.293 207.918V209.038C214.023 208.668 214.023 208.288 213.293 207.918Z" fill="#2F2F25"/>
<path d="M109.953 258.238C110.313 258.068 110.643 257.318 111.073 257.118C110.713 257.318 110.393 257.998 109.953 258.238Z" fill="#2F2F25"/>
<path d="M154.643 223.568H153.523V222.448L154.643 223.568Z" fill="#2F2F25"/>
<path d="M176.983 192.258C176.763 192.858 177.223 194.248 176.983 194.498C176.833 194.648 175.413 194.438 174.753 194.498C174.943 194.188 174.383 192.828 174.853 192.358C175.323 191.888 176.693 192.448 176.983 192.258Z" fill="#2F2F25"/>
<path d="M160.223 232.518C159.843 232.168 159.473 231.668 159.103 231.398C159.473 231.378 159.853 231.418 160.223 231.398C160.173 231.768 160.283 232.158 160.223 232.518Z" fill="#2F2F25"/>
<path d="M145.703 344.338C146.103 343.558 145.993 343.258 146.823 342.098C146.463 343.208 145.883 343.828 145.703 344.338Z" fill="#2F2F25"/>
<path d="M143.473 352.168C144.353 348.888 143.773 348.168 145.703 344.338C144.793 346.848 145.483 348.358 143.473 352.168Z" fill="#2F2F25"/>
<path d="M159.113 231.398C158.563 231.428 158.003 231.378 157.443 231.388L156.873 230.278C157.953 230.638 158.183 230.728 159.103 231.398H159.113Z" fill="#2F2F25"/>
<path d="M220.553 288.428V290.668C219.273 290.688 218.963 289.188 218.323 288.428C218.883 288.608 219.863 288.308 220.553 288.428Z" fill="#2F2F25"/>
<path d="M193.743 361.108L197.103 360.558L197.083 363.348H193.743C193.823 362.618 193.653 361.838 193.743 361.108Z" fill="#2F2F25"/>
<path d="M179.223 338.748C177.583 336.978 179.003 327.968 181.453 327.568C180.893 333.678 180.833 333.428 179.223 338.748Z" fill="#2F2F25"/>
<path d="M181.453 327.568C181.623 325.688 181.883 323.838 182.723 322.128L188.153 321.988L185.073 325.868L188.143 329.798C188.193 326.488 191.153 323.158 191.493 320.188C191.943 316.158 189.683 312.958 190.643 308.258C192.083 301.178 202.453 288.828 208.323 284.558C210.823 282.738 216.553 281.658 218.413 278.998C220.003 276.728 219.293 273.458 220.193 270.718C224.813 256.638 240.753 259.158 245.673 271.668C249.073 280.318 244.763 280.088 239.903 285.398C238.663 286.758 238.633 289.338 236.833 290.718C234.443 292.548 230.583 292.268 227.833 292.908C226.843 293.138 225.333 292.468 226.163 294.548C227.463 297.788 234.273 306.578 236.883 309.548C239.313 312.308 244.633 314.798 246.263 318.608L237.353 312.448C239.943 316.138 237.573 320.298 237.333 324.198L246.163 324.108C246.603 322.018 247.163 320.718 246.263 318.608C249.143 318.458 251.733 319.678 254.603 319.788C256.213 319.848 258.013 318.498 259.053 318.538C260.283 318.588 258.873 321.348 260.773 320.828C261.033 317.548 265.743 311.078 260.953 310.638L261.873 307.928L270.123 307.498C273.023 309.958 274.113 312.748 275.313 316.348L266.373 318.588L271.953 314.688L265.803 309.678L264.143 311.868L266.373 312.418L264.153 315.808L268.583 315.228C265.113 316.048 262.273 321.948 261.883 325.308C260.343 325.618 259.363 324.798 258.543 323.628C258.113 323.008 263.163 323.528 259.083 320.848C250.093 321.418 256.903 331.068 262.323 329.868C265.573 329.148 260.923 321.718 265.233 323.088L264.113 333.158L260.773 332.038V335.388L262.933 334.748C262.683 336.228 258.633 349.338 257.423 347.698L256.303 337.638L256.243 348.188L263.033 349.458L266.333 340.998L266.393 349.198C265.773 351.798 249.443 353.348 246.243 352.178V356.638C246.923 348.008 238.643 351.768 236.233 349.858C235.893 349.588 236.273 348.338 236.173 347.698C240.773 347.678 246.673 349.918 251.823 348.818C252.923 341.858 249.833 332.558 247.903 345.468L247.333 337.638L244.003 339.868L245.123 330.938L247.333 336.518L247.353 328.688L249.573 327.588H241.763L243.983 334.298L241.783 333.698L242.863 340.998C238.783 338.978 242.673 331.348 238.413 329.818L238.393 337.638C236.893 337.228 234.843 331.118 235.053 330.438L238.403 327.588C228.753 328.668 234.553 337.838 235.913 342.978C236.373 344.708 235.963 346.268 236.173 347.698C232.723 347.718 233.093 350.248 232.823 353.288L241.103 354.308L241.743 357.758C226.043 351.248 210.053 356.508 193.713 355.518C193.553 357.348 193.943 359.298 193.713 361.118L192.603 361.688L193.713 363.358C193.513 365.148 192.433 367.018 192.593 368.958H184.793L188.713 364.468L190.943 365.618L190.353 357.778L189.243 361.138L185.303 360.038L184.243 362.238L178.633 351.068L179.203 356.648L172.503 357.788L171.933 354.408L170.803 356.668L166.913 354.418L165.803 356.648L164.683 339.888C167.863 339.048 165.913 355.318 169.133 351.058C169.823 344.338 166.783 342.328 170.253 336.528L171.363 344.348C170.613 341.908 174.903 335.688 170.253 336.528C170.463 336.168 170.073 334.958 170.273 334.288C175.553 335.408 172.823 337.848 173.623 341.348C173.743 341.868 177.473 342.958 175.853 346.578C178.083 345.398 178.543 340.898 179.193 338.758C182.083 341.868 180.543 337.808 182.533 337.648C182.073 340.158 184.283 343.738 183.583 345.898C183.013 347.668 180.303 347.268 180.283 348.278C180.203 354.018 193.663 353.508 190.363 345.468H185.883L186.973 339.908L183.573 339.278L184.403 329.218C183.883 327.778 182.863 327.348 181.413 327.588L181.453 327.568ZM233.403 266.058V267.178C234.133 266.808 234.133 266.428 233.403 266.058ZM232.283 268.298V269.418C233.013 269.048 233.013 268.668 232.283 268.298ZM242.343 271.658V272.778C243.073 272.408 243.073 272.028 242.343 271.658ZM221.663 278.358V276.128H220.573V278.358H221.663ZM230.613 277.248H227.263L227.243 283.948C225.153 283.708 225.723 280.308 223.183 279.628C217.983 278.228 219.203 284.298 222.203 287.328C225.003 290.158 223.373 285.498 224.453 286.188C230.673 297.268 237.873 286.048 242.933 280.028L240.673 277.248C241.413 279.948 234.103 281.998 232.433 281.748C231.733 281.648 231.963 279.248 229.513 280.058L230.603 277.238L230.613 277.248ZM218.323 288.428C216.593 287.858 211.443 285.358 211.043 285.388C209.863 285.478 201.073 293.528 199.983 295.238C199.043 296.698 192.813 310.298 192.883 311.168C193.453 318.098 202.413 320.628 208.203 318.558L208.273 310.788C207.843 310.348 192.653 311.958 197.103 308.568L207.143 309.678L203.793 300.748L207.133 304.088C208.493 300.598 210.673 296.248 214.963 296.278C214.323 298.068 212.133 298.338 210.503 300.178C203.423 308.188 211.053 307.978 214.953 314.738L210.523 313.578C213.383 323.038 218.733 333.028 228.373 336.538C228.563 338.658 226.113 337.548 225.073 337.048C222.583 335.848 220.743 333.368 218.343 332.058C217.413 333.108 222.963 341.548 224.683 341.968C226.223 342.338 228.673 341.068 230.623 341.008C229.433 341.958 228.763 343.428 226.153 343.258C226.373 349.438 230.473 348.608 234.623 345.478L233.763 341.168C233.103 340.678 231.563 340.968 230.633 340.998C231.403 340.388 232.083 339.818 232.923 339.278C230.173 336.128 230.643 328.928 229.513 326.468C229.593 326.588 231.083 326.138 231.513 326.658C232.553 327.918 230.543 331.178 232.853 330.938C232.803 324.258 240.833 315.448 232.863 310.818C233.623 310.758 235.133 311.278 235.093 310.268L228.953 301.898L226.163 309.688C228.093 309.908 230.343 309.348 232.183 309.668C233.173 309.838 232.803 310.778 232.863 310.818C230.653 310.988 228.373 310.688 226.153 310.818C224.723 312.218 228.133 324.388 229.513 326.478C229.423 326.278 227.343 325.498 226.443 323.418C225.543 321.338 222.943 307.628 223.143 305.738C223.223 305.008 224.073 304.628 224.483 304.118L226.143 306.348C226.443 302.898 224.863 299.818 224.203 296.558C223.933 295.228 224.963 293.588 224.733 292.518C224.273 290.338 221.503 289.608 220.563 288.458C220.243 288.068 214.903 278.748 215.003 284.548C215.003 284.808 217.663 287.668 218.333 288.458L218.323 288.428ZM196.313 322.678C195.973 322.498 195.963 319.058 194.343 322.008C188.163 333.258 197.443 332.368 200.603 341.938L214.963 338.728C213.443 335.998 209.993 334.588 210.483 330.908L206.033 332.028L209.363 327.558L197.083 329.778L206.013 325.328C202.473 325.408 199.363 324.338 196.303 322.668L196.313 322.678ZM252.943 320.858C248.913 320.158 247.573 321.238 247.373 325.318H252.963L252.953 320.858H252.943ZM211.603 326.438V324.208H210.513V326.438H211.603ZM257.413 329.838L251.853 327.558C250.463 331.508 254.133 333.278 251.853 337.628L253.963 336.658L255.193 338.728L257.433 329.828L257.413 329.838ZM248.493 337.628C250.643 337.078 251.013 335.158 250.703 333.158C250.163 331.998 248.033 336.168 248.493 337.628ZM189.283 340.978L188.143 334.278C184.773 336.188 190.123 341.418 188.143 344.328L192.623 344.348L191.513 352.168C201.613 347.688 215.783 357.918 223.343 347.698L226.123 349.928L219.333 338.808L211.593 340.998L212.723 344.338C206.003 342.788 200.443 343.488 193.743 344.338L198.203 342.678L190.403 334.288C190.293 336.138 192.213 340.408 189.283 340.988V340.978ZM253.513 340.988V342.108C254.243 341.738 254.243 341.358 253.513 340.988ZM174.743 347.688L174.193 343.228C172.473 344.438 172.243 345.628 172.513 347.688H174.743ZM170.843 345.458V346.578C171.573 346.208 171.573 345.828 170.843 345.458ZM230.053 349.928V351.048C230.783 350.678 230.783 350.298 230.053 349.928ZM175.313 352.168V353.288C176.043 352.918 176.043 352.538 175.313 352.168ZM186.863 354.578L182.583 353.288L183.713 357.748L184.823 355.528L185.943 358.868C187.883 359.248 187.213 355.168 186.863 354.578ZM190.393 354.418H188.163V356.638L190.383 354.418H190.393Z" fill="#2F2F25"/>
<path d="M122.243 365.588C122.323 365.848 125.823 367.538 124.463 370.058C118.423 370.118 121.053 369.158 120.003 367.818H122.233V365.578L122.243 365.588Z" fill="#2F2F25"/>
<path d="M89.8427 325.328L88.7327 317.498H92.0727C92.3527 318.798 91.7227 320.958 92.0727 321.978H89.8427V325.328Z" fill="#2F2F25"/>
<path d="M89.8427 325.328C90.0327 325.168 91.3727 325.438 92.0727 325.328V321.978C92.1927 322.298 93.4327 322.988 93.7727 324.148C95.0727 328.548 93.7227 334.348 99.8827 334.278L101.663 328.678L106.603 329.818C107.143 330.408 102.973 334.158 109.413 336.508C112.483 337.628 109.813 332.768 112.173 333.168C113.013 336.678 111.713 339.168 111.063 342.108C111.763 338.408 109.523 338.318 107.143 336.538C106.823 338.498 109.203 340.418 109.943 342.108C106.703 345.978 107.193 347.598 110.503 352.168L112.163 349.938L111.063 361.118L117.743 360.008L118.313 365.578L122.213 357.778C122.643 359.988 121.663 363.748 122.223 365.598H119.993V367.838C119.253 366.888 116.613 367.908 116.043 366.838C114.693 364.278 117.153 360.288 113.303 361.128L111.313 367.528L108.813 368.958V351.628C108.813 351.308 106.563 345.878 106.313 345.668C105.473 344.918 101.513 346.418 103.763 343.378L106.573 342.668C104.913 338.358 102.393 337.118 104.333 332.078H100.993C104.523 344.468 100.163 357.628 103.223 370.088L90.9327 367.858C89.5027 364.868 93.2027 364.328 93.2227 363.878C93.3827 360.548 89.0227 354.108 89.8127 349.978L85.3427 366.748L83.6627 365.638L88.6927 345.508L95.4027 366.738C94.9427 358.188 97.6327 347.628 89.8327 342.158L94.1827 342.808L97.6427 357.798C97.1027 354.298 99.3227 350.918 98.6027 347.448C97.3227 341.258 89.2527 336.448 89.8227 328.738C85.6327 330.728 89.4227 333.788 89.8227 336.558L85.3727 332.098L86.5727 337.018L84.2627 337.698L84.2427 339.918C86.6427 338.708 89.2527 341.498 87.5927 343.268C85.6727 345.318 85.1127 340.988 84.8227 341.018C82.6527 341.238 81.2527 343.348 82.0227 345.508L85.3627 344.398L83.1227 362.278C81.2027 362.558 81.9327 359.618 82.0327 358.388C82.3127 354.838 83.9727 351.238 83.1127 347.408C82.9127 346.518 79.9827 346.258 80.2027 343.838C80.4227 341.418 83.2927 339.218 80.9227 335.448L82.6027 337.688L85.3827 335.458C81.7927 335.168 81.0327 331.828 80.9027 328.728L78.0927 334.318L73.7727 332.118C70.0327 334.068 73.1127 339.068 67.5127 336.548L68.6327 341.018C69.2427 341.498 70.5427 339.068 71.5827 338.888C72.6227 338.708 79.2927 344.268 74.2327 335.968L77.5527 335.418L76.4327 351.068L74.2027 345.468L70.8627 346.598L69.7527 342.138C69.5627 345.308 69.1927 348.428 71.9527 350.518L59.6927 354.428C60.4427 350.928 58.8827 347.098 58.9127 343.948C58.9427 341.098 63.1127 338.018 57.4527 337.658C56.6627 341.088 58.3027 345.058 58.1727 348.108C58.1127 349.608 57.1027 355.018 55.2227 355.538C55.0927 352.198 55.3627 348.808 55.2127 345.478C52.3227 345.478 55.8727 351.658 52.9927 352.178L51.8427 343.238H48.5227C48.0327 346.858 47.7727 350.938 46.8827 354.458C46.5327 355.838 45.7327 359.818 44.0627 360.008L47.4127 336.538L48.5327 341.008L52.9827 337.658L53.0027 344.358L55.2127 342.138C55.2727 343.248 55.1727 344.368 55.2227 345.488C58.0127 344.398 55.7127 338.338 55.2227 335.428L56.8827 337.648L59.6727 334.298L60.2427 337.658L62.4927 336.508L63.0427 340.998C65.2727 340.668 63.0027 337.508 66.3627 339.888L67.5027 334.868C65.2427 331.628 65.1127 334.748 63.5827 335.408L61.9327 332.608L65.2627 333.188L66.3927 318.648C72.3427 318.618 66.5627 327.618 66.3627 329.348C65.7227 335.028 73.9327 334.708 70.8527 327.598L73.0927 330.958H78.6627C78.7127 326.588 73.6027 331.008 75.3327 324.248L78.1027 326.488L79.7827 324.248L80.8927 326.478C81.5927 324.998 81.9727 317.578 83.7027 317.568C87.2227 317.538 82.8127 333.188 86.5027 330.428C87.8127 329.208 88.7027 326.388 89.8527 325.378L89.8427 325.328ZM93.1827 330.918V327.578H92.0927V330.918H93.1827ZM92.6427 333.158V334.278C93.3727 333.908 93.3727 333.528 92.6427 333.158ZM99.8927 345.448C100.413 341.318 99.2427 337.998 95.9827 335.408L99.8927 345.448ZM100.463 337.628V338.748C101.193 338.378 101.193 337.998 100.463 337.628ZM63.0227 345.448C63.3227 343.448 62.9527 341.528 60.8127 340.978C60.3627 342.428 62.4827 346.598 63.0227 345.448ZM67.4927 345.448V340.988H66.4027V345.448H67.4927ZM73.0727 343.218V340.988H71.9827V343.218H73.0727ZM65.2527 345.448V342.108H64.1627V345.448H65.2527ZM64.7127 346.578V347.698C65.4427 347.328 65.4427 346.948 64.7127 346.578ZM101.003 351.038V346.578H99.9127V351.038H101.003ZM61.9027 352.158V347.698H60.8127V352.158H61.9027ZM68.0627 348.808V349.928C68.7927 349.558 68.7927 349.178 68.0627 348.808ZM99.8827 367.818C100.063 365.368 101.063 363.118 101.053 360.608C101.053 359.508 100.493 354.498 98.7927 354.408C99.2527 357.268 97.7827 359.978 97.7727 362.678C97.7727 363.538 98.3027 368.008 99.8827 367.818Z" fill="#2F2F25"/>
<path d="M111.073 342.098C110.853 343.118 111.653 345.468 110.513 345.468C109.233 345.148 110.303 342.908 109.953 342.098C110.093 341.928 110.983 342.268 111.073 342.098Z" fill="#2F2F25"/>
<path d="M72.5327 41.298C76.3327 42.368 75.7127 48.888 70.8627 48.558C75.5827 50.578 73.5227 51.648 74.1927 55.078C74.4327 56.308 77.7527 55.228 76.4427 58.068C68.2927 59.168 72.3627 51.318 66.9627 49.118C66.0327 49.098 66.1627 54.108 66.3727 55.118C66.6227 56.298 69.6927 55.068 68.6227 58.068H60.8127L63.0327 56.968V42.418L58.1027 42.408L56.1827 57.918C39.7727 60.778 48.5727 49.988 42.9427 41.858L51.8727 41.318C52.2527 43.488 49.2827 41.838 48.6027 42.488C48.2227 42.858 48.2827 51.608 48.4727 53.108C49.0227 57.668 52.6427 58.738 55.1527 55.178C56.3027 53.548 56.4627 46.588 55.9127 44.598C55.1727 41.918 53.0827 43.278 53.0027 41.318C58.2327 42.258 68.0127 40.038 72.5527 41.318L72.5327 41.298ZM70.8527 42.418H66.3927V47.998C70.6127 48.668 71.2627 46.078 70.8527 42.418Z" fill="#2F2F25"/>
<path d="M203.793 39.058C204.143 40.838 201.723 40.138 200.983 41.258C199.663 43.238 200.673 51.538 201.603 53.898C202.163 55.318 204.213 54.038 203.783 55.818H194.853L197.073 54.718V40.168L191.983 41.218L191.463 53.988L193.723 55.828H175.853L178.183 53.118C177.533 49.758 178.793 45.068 178.103 42.018C177.843 40.848 174.693 41.988 175.853 39.058H203.793ZM188.153 46.878C187.373 42.568 187.383 38.538 181.603 41.468L181.443 46.888H188.153V46.878ZM188.163 48.008H181.453V54.718L187.113 54.228L188.163 48.008Z" fill="#2F2F25"/>
<path d="M198.193 1.03797C200.303 3.06797 200.573 17.288 206.573 16.758C210.373 16.428 209.223 3.09797 206.033 2.71797C207.003 0.267974 212.663 1.10797 214.963 1.03797C216.133 3.95797 212.983 2.81797 212.713 3.98797C211.943 7.41797 213.283 12.918 212.733 16.688C217.593 17.788 217.553 14.448 220.533 12.208L220.453 17.708L212.133 20.038C210.433 14.538 201.543 20.038 198.193 18.368C194.653 16.608 200.463 17.138 199.303 15.008C197.693 12.078 192.923 12.668 192.593 16.128C192.533 16.778 196.093 16.078 194.833 18.898H189.263C188.353 15.948 190.823 17.118 191.433 15.838C193.343 11.858 193.703 6.06797 195.693 2.43797C196.253 1.42797 196.543 -0.552026 198.173 1.01797L198.193 1.03797ZM197.083 8.87797H194.863V12.218H197.083V8.87797Z" fill="#2F2F25"/>
<path d="M126.723 11.108C129.363 14.148 130.573 2.79797 131.333 2.29797L137.883 2.15797C138.723 5.50797 135.873 3.30797 135.553 5.97797C135.313 8.00797 135.243 15.358 135.633 17.078C135.893 18.208 139.043 17.158 137.873 20.038L128.953 18.908L132.373 17.188L131.733 7.72797L127.813 20.038C124.683 19.508 123.853 8.83797 122.793 8.84797C122.023 10.868 121.783 15.078 122.213 17.078C122.463 18.258 125.533 17.028 124.463 20.028H118.893C120.873 15.858 120.483 10.768 120.103 5.96797C119.903 3.34797 116.883 5.47797 117.773 2.14797C128.433 -0.622026 125.083 9.21797 126.713 11.088L126.723 11.108Z" fill="#2F2F25"/>
<path d="M94.1627 395.938L97.1027 404.718L100.973 396.288L107.713 395.788L104.293 397.508C104.993 400.908 103.463 406.698 104.503 409.618C105.203 411.588 107.913 410.638 107.713 412.538H98.7827C98.9227 410.398 101.823 411.788 102.213 408.628C102.363 407.368 101.183 401.358 100.453 401.358L97.0927 411.438L90.9727 401.368C91.9327 403.288 90.7527 408.668 91.3427 409.838C92.2027 411.548 94.5427 410.718 94.3127 412.538H87.6227L89.8727 410.708L89.9427 398.488L87.6127 395.788L94.1527 395.938H94.1627Z" fill="#2F2F25"/>
<path d="M76.4327 3.27797C77.5027 6.27797 74.4327 5.04797 74.1927 6.23797C73.0027 11.968 74.8227 11.408 79.7927 11.098C80.2927 7.78797 79.5027 5.79797 77.5527 3.28797H86.4827C86.7927 5.17797 83.9327 4.22797 83.4827 6.00797C83.3327 6.57797 83.3927 17.378 83.7627 17.838C84.6027 18.898 86.8227 18.318 86.4927 20.028H67.5127L70.9327 18.308C70.4727 15.128 71.3927 11.358 70.8327 8.32797C70.4227 6.15797 68.3227 5.48797 68.6327 3.27797H76.4427H76.4327ZM79.7927 12.218H74.1927V18.938H79.7927V12.218Z" fill="#2F2F25"/>
<path d="M220.563 55.828C222.333 49.518 222.543 43.768 219.443 37.948C240.793 34.018 242.353 58.738 220.563 55.828ZM230.493 40.298L225.023 40.168V53.598C233.853 54.418 232.163 46.438 230.493 40.298Z" fill="#2F2F25"/>
<path d="M247.373 45.788V46.868C251.843 47.138 250.143 50.078 250.723 52.838C250.993 54.118 253.993 52.808 252.943 55.838C244.583 56.918 249.363 48.918 243.463 46.888C242.533 46.868 242.663 51.878 242.873 52.888C243.123 54.068 246.193 52.838 245.123 55.838H237.313L239.643 52.018V41.778C240.103 40.018 235.113 39.958 238.433 38.488C243.173 36.388 259.383 41.438 247.383 45.798L247.373 45.788ZM242.903 45.768C249.043 46.478 249.043 39.478 242.903 40.188V45.768Z" fill="#2F2F25"/>
<path d="M95.4327 56.938L97.6927 55.108V44.058L94.3227 40.188C98.6027 40.698 109.493 37.908 109.773 44.278C109.843 45.778 108.083 46.708 107.923 47.658C107.623 49.398 111.993 51.648 108.943 55.378C106.523 58.338 99.0927 56.468 95.4427 56.938H95.4327ZM105.363 46.778C106.003 38.098 99.6127 40.668 101.023 47.998L105.363 46.778ZM105.483 49.118H101.023V55.838H105.483V49.118Z" fill="#2F2F25"/>
<path d="M153.513 7.74797C149.963 5.54797 149.413 1.91797 144.643 4.45797C145.733 5.97797 144.253 9.10798 146.283 9.96797C148.743 11.018 146.963 6.44797 150.173 7.74797V14.448L145.723 11.098V17.808C152.383 18.988 150.053 16.768 153.523 13.328L153.543 18.928L139.023 18.908L141.353 16.208C140.703 12.848 141.963 8.15797 141.273 5.10797C141.013 3.93797 137.853 5.06797 139.023 2.15797C144.483 3.01797 154.993 -1.17203 153.533 7.74797H153.513Z" fill="#2F2F25"/>
<path d="M170.283 18.928C167.683 19.558 168.443 18.428 167.723 17.508C166.393 15.808 160.393 5.46797 159.663 5.49797L159.023 17.198L162.443 18.918H154.633C154.593 17.248 157.363 17.188 157.763 16.488C158.053 15.988 157.983 5.59797 157.813 5.04797C157.193 3.12797 154.403 4.06797 154.643 2.16797C162.943 0.547974 164.363 4.71797 167.483 11.118L168.063 3.99797L165.803 2.17797H188.143V7.74797L182.563 3.28797C183.113 7.04797 181.763 12.548 182.533 15.978C182.793 17.148 185.953 16.018 184.783 18.928H175.853C175.673 17.018 178.323 17.988 179.083 15.968C179.773 14.148 176.933 6.03797 178.063 3.27797L174.153 7.75797L170.253 3.27797V18.938L170.283 18.928Z" fill="#2F2F25"/>
<path d="M141.223 44.648C138.453 41.518 138.223 40.508 133.413 41.288V47.998L137.873 44.648L137.893 50.798L133.423 49.128V55.268C137.653 55.878 139.773 54.508 140.673 50.248C142.213 50.868 142.673 55.588 141.323 56.438L126.723 56.938C126.973 54.748 129.273 56.408 129.983 53.118C130.113 52.538 129.143 42.768 128.953 42.048C128.593 40.648 126.263 42.048 126.733 40.198L139.583 39.368L141.243 44.658L141.223 44.648Z" fill="#2F2F25"/>
<path d="M17.0027 41.528C17.8427 42.018 20.8527 49.028 22.2527 50.248L22.8327 43.128L20.5827 41.308H26.1627C20.2427 45.988 28.3927 57.058 21.7127 58.068C21.7327 55.888 14.6927 44.128 12.7627 45.778C14.9727 48.948 13.1527 53.198 13.8527 56.238C14.1527 57.538 16.5927 56.228 16.1127 58.058H9.42266L11.7527 55.358L11.6827 43.138L9.43266 41.308C11.5127 41.648 15.4127 40.588 17.0227 41.528H17.0027Z" fill="#2F2F25"/>
<path d="M268.603 37.938L268.583 43.538C265.603 41.308 265.633 37.958 260.783 39.058V45.768L265.243 43.548V49.688L260.783 46.898L260.753 52.958C260.913 54.048 265.443 53.918 266.203 53.448C267.163 52.858 266.513 48.928 268.583 49.138L268.603 54.728L255.193 54.708C256.883 49.628 257.613 42.378 254.073 37.958L268.603 37.938Z" fill="#2F2F25"/>
<path d="M216.103 83.778L217.203 80.998L218.273 83.168C212.513 102.888 194.623 90.648 202.823 78.898C206.943 72.988 216.743 76.268 216.103 83.788V83.778ZM211.393 78.488C204.263 71.588 200.173 95.328 211.573 91.558C211.923 88.768 213.533 80.558 211.393 78.488Z" fill="#2F2F25"/>
<path d="M118.113 93.508C111.273 88.378 115.383 72.768 126.453 77.918C135.543 82.138 127.493 100.548 118.113 93.508ZM125.313 79.618C124.663 78.838 122.913 78.438 121.843 78.408C117.663 79.218 117.773 91.698 120.683 92.648C127.243 94.808 128.083 82.968 125.313 79.618Z" fill="#2F2F25"/>
<path d="M285.353 54.718C282.753 55.348 283.513 54.218 282.793 53.298C280.163 49.958 277.353 45.098 275.283 41.308C273.453 41.008 274.243 42.818 274.183 44.078C274.033 47.038 274.333 50.028 274.103 52.988L277.523 54.708L270.813 54.158C275.013 52.538 273.703 41.438 270.823 37.958C278.593 36.138 279.523 42.148 283.673 46.888C284.503 46.068 283.813 41.158 283.463 40.458C282.523 38.598 280.673 39.748 280.883 37.958H287.573L285.343 39.068V54.728L285.353 54.718Z" fill="#2F2F25"/>
<path d="M101.013 2.15797V7.74797C98.2427 4.61797 98.0127 3.60797 93.1927 4.38797V11.098L97.6727 8.30797L97.6527 15.568L96.5427 12.208H93.2027C92.9927 16.448 92.6926 19.808 97.7427 18.458C101.173 17.538 99.1327 14.488 102.123 13.338L102.143 20.048L87.6227 20.028L89.9527 17.328C89.4627 12.308 91.2727 7.30797 87.6227 3.27797L101.023 2.14797L101.013 2.15797Z" fill="#2F2F25"/>
<path d="M232.843 92.738C230.873 94.998 223.913 79.958 222.223 79.328L221.593 91.008L225.013 92.728L218.303 92.178C221.583 92.048 221.193 80.358 220.573 77.798C220.253 76.478 217.843 77.808 218.323 75.968C226.573 74.038 226.463 80.438 231.173 84.898C232.163 83.798 232.013 80.108 231.593 78.888C230.903 76.928 228.173 77.868 228.383 75.968H235.073L232.843 77.078V92.738Z" fill="#2F2F25"/>
<path d="M150.173 411.428C147.583 412.038 148.343 410.958 147.613 410.018C144.803 406.388 143.343 401.138 139.553 398.018C138.553 400.628 138.753 404.568 139.263 407.298C139.903 410.728 141.653 409.298 142.343 411.418L135.633 410.868C138.933 410.658 138.493 400.358 137.903 397.618C137.653 396.438 134.583 397.668 135.653 394.668C143.103 393.318 145.473 398.888 147.953 404.718C149.843 404.378 149.323 397.518 149.083 396.498C148.763 395.188 146.353 396.508 146.833 394.668H152.403L150.173 395.778V411.438V411.428Z" fill="#2F2F25"/>
<path d="M173.623 39.058V44.658C165.803 37.018 163.053 43.288 164.703 51.928C165.733 57.298 171.833 54.578 173.073 50.258L174.753 55.828C156.213 61.648 154.453 36.628 173.623 39.058Z" fill="#2F2F25"/>
<path d="M80.8927 78.198L87.6027 94.958H79.7927C85.3327 89.018 75.7327 86.918 75.3127 92.188C75.2626 92.858 78.8127 92.118 77.5527 94.958H71.9827C71.0427 91.998 73.6327 93.158 74.1727 91.918C74.8527 90.358 77.6727 75.758 80.9027 78.188L80.8927 78.198ZM79.7827 84.918H77.5627V88.258H79.7827V84.918Z" fill="#2F2F25"/>
<path d="M222.693 242.688L226.133 250.408C223.833 250.288 219.203 244.818 218.723 244.758C216.893 244.548 208.883 247.198 209.443 249.758C210.493 254.558 222.753 255.558 225.583 251.548L227.243 253.738C225.443 253.208 225.103 255.568 224.753 255.728C224.233 255.978 214.833 255.068 213.343 254.838C211.653 254.588 210.183 252.538 208.983 252.738C207.143 253.048 204.583 258.458 201.593 257.678L201.573 254.318C207.303 247.788 213.333 242.328 222.693 242.678V242.688Z" fill="#2F2F25"/>
<path d="M245.123 1.04797L242.833 2.73797L245.683 7.72797C247.903 5.85797 248.773 3.67797 247.353 1.04797H254.053C254.183 2.99797 251.693 1.85797 250.133 3.25797C247.793 5.35797 246.873 11.868 246.473 15.018L249.583 17.798H240.653C240.173 15.958 242.593 17.278 242.913 15.968C243.943 11.818 241.343 7.55797 238.863 4.43797C237.943 3.27797 234.353 3.30797 236.733 1.02797L245.103 1.04797H245.123Z" fill="#2F2F25"/>
<path d="M210.493 403.608L211.613 396.908V411.438L200.463 396.908C201.033 402.748 198.173 408.048 203.803 411.428H197.103C196.033 408.428 199.093 409.658 199.353 408.478C200.023 405.378 198.793 400.768 199.433 397.378L197.103 394.678C205.783 392.548 204.933 399.878 210.493 403.608Z" fill="#2F2F25"/>
<path d="M66.3927 3.26797L66.3727 8.85797C64.8527 8.51797 63.0627 3.21797 60.8027 5.51797C60.3327 5.99797 62.3727 16.578 60.8027 18.918L64.1527 20.038H54.1127L57.5327 18.318L57.4527 5.50797C52.3627 4.13797 54.8827 8.66797 51.8827 9.97797L51.8627 3.26797H66.3927Z" fill="#2F2F25"/>
<path d="M39.5927 46.888C33.9727 33.688 27.9327 52.698 33.9527 56.448C38.4927 59.278 38.0827 51.958 41.8027 52.488V58.058C32.9727 61.458 23.3027 53.448 29.0327 44.718C32.7427 39.058 46.4827 40.128 39.5927 46.888Z" fill="#2F2F25"/>
<path d="M145.703 77.078V82.668C142.283 83.548 143.403 78.948 140.523 78.398C135.093 77.368 135.953 89.748 137.273 91.668C140.103 95.758 143.753 90.058 145.693 88.258L145.653 93.798C126.963 98.068 127.493 74.228 145.693 77.068L145.703 77.078Z" fill="#2F2F25"/>
<path d="M166.923 77.078C167.063 80.898 168.673 86.418 170.503 89.768C171.693 91.938 174.393 90.758 173.633 93.848H164.703C164.223 92.008 166.263 93.068 166.643 92.548C168.833 89.478 164.663 88.328 161.953 88.198L160.213 92.718L163.573 93.838H156.883C156.663 92.048 158.573 93.188 159.463 91.358C161.333 87.538 162.603 81.338 163.593 77.078H166.923ZM165.813 87.128L164.683 82.668H163.593L162.463 87.128H165.813Z" fill="#2F2F25"/>
<path d="M112.183 77.078V82.668C101.503 73.568 101.103 85.908 113.273 84.328L111.643 93.858L102.153 94.978V89.378C104.313 92.958 110.183 96.328 111.103 89.948C111.583 86.678 104.193 88.308 102.633 86.088C100.013 76.508 105.523 78.138 112.183 77.078Z" fill="#2F2F25"/>
<path d="M86.4727 40.178C87.8227 41.448 89.7727 51.668 91.1327 53.978C92.2427 55.858 94.3627 55.148 94.3027 56.938H86.4927L87.6027 52.478C83.5527 52.218 82.0027 51.618 80.8927 55.818L84.2527 56.938H77.5627C77.3427 55.158 79.2427 56.278 80.1427 54.458C82.0427 50.618 82.1427 45.678 84.1527 41.768C84.6027 40.898 84.4927 38.328 86.4727 40.188V40.178ZM86.4927 50.228L85.3627 46.888H84.2727L83.1527 51.358L86.4927 50.228Z" fill="#2F2F25"/>
<path d="M185.913 409.218L185.363 411.438L178.113 411.418L180.333 409.758C178.993 404.928 172.733 404.888 173.593 409.758L175.863 411.418H169.173C169.103 409.568 171.253 410.508 172.303 408.418C173.883 405.258 175.463 398.358 175.873 394.658C179.173 391.088 181.973 411.048 185.913 409.208V409.218ZM178.093 404.718L176.963 400.258H175.873L174.743 404.708H178.093V404.718Z" fill="#2F2F25"/>
<path d="M117.763 395.778C119.213 399.838 120.143 405.128 121.913 408.938C122.833 410.928 125.283 409.458 124.473 412.548H116.673C115.413 409.718 118.973 410.438 118.913 409.778C118.623 406.218 114.113 405.868 112.203 408.658L114.423 412.548H108.843C112.433 408.168 112.363 401.798 115.263 397.208C115.983 396.078 115.193 395.238 117.763 395.778ZM116.653 405.838C116.943 403.748 116.653 401.968 114.433 401.368L113.303 405.828H116.653V405.838Z" fill="#2F2F25"/>
<path d="M99.8927 82.668C96.6627 83.618 97.9527 80.178 95.8727 79.458C93.4927 78.628 90.9327 79.738 90.9827 82.128C91.0427 84.778 101.413 81.958 99.8927 91.018C98.7727 97.708 84.1827 96.108 90.4027 89.398C93.3927 98.438 101.813 90.828 96.8427 88.248C94.3527 86.958 88.4927 87.708 88.9827 82.298C89.4027 77.548 95.2727 77.448 98.8527 77.618L99.8927 82.678V82.668Z" fill="#2F2F25"/>
<path d="M168.053 394.658L168.033 400.248C165.603 399.338 166.623 395.768 162.463 396.908L162.383 409.708L165.803 411.428H156.873L159.123 409.598L159.093 396.898C154.043 395.718 156.073 399.908 153.523 401.358L154.003 395.698L168.043 394.648L168.053 394.658Z" fill="#2F2F25"/>
<path d="M189.283 77.078L189.263 82.668C186.263 81.358 188.783 76.828 183.693 78.198L183.843 90.928L187.033 93.858H178.103C181.943 89.508 179.893 83.538 180.333 78.218C176.803 77.488 177.093 82.028 174.763 82.678L174.743 77.088H189.273L189.283 77.078Z" fill="#2F2F25"/>
<path d="M225.033 394.668L223.343 399.128C220.943 392.608 212.603 396.298 219.943 400.308C223.423 402.208 228.033 403.078 224.903 408.458C221.773 413.838 219.253 409.728 214.983 411.438V405.858C215.733 404.978 217.233 409.928 220.203 410.148C221.453 410.238 223.693 408.338 223.883 407.478C224.683 403.878 216.533 404.078 215.463 402.568C212.973 393.968 218.063 393.068 225.033 394.678V394.668Z" fill="#2F2F25"/>
<path d="M230.613 1.04797C224.793 4.53797 227.973 10.658 227.263 16.698C227.693 17.118 232.383 16.318 233.303 15.678C234.853 14.608 232.563 11.308 236.183 12.228V17.818L221.673 17.798L224.003 15.098C223.353 11.738 224.613 7.04797 223.923 3.99797C223.663 2.82797 220.503 3.95797 221.673 1.04797H230.613Z" fill="#2F2F25"/>
<path d="M199.323 75.968C200.163 79.318 197.313 77.118 196.993 79.788C196.523 83.778 196.473 89.118 198.583 91.658C201.193 94.808 193.503 94.048 191.493 93.318C188.183 92.118 192.543 91.468 192.633 90.898C193.223 87.268 194.613 78.398 190.393 77.638C191.183 75.408 197.213 76.988 199.323 75.958V75.968Z" fill="#2F2F25"/>
<path d="M213.843 39.068L210.423 40.788L210.503 54.718C211.563 54.328 214.403 54.538 214.993 54.068C216.933 52.548 216.193 49.438 218.303 49.128L218.323 55.838L204.913 55.818L207.243 53.118C206.753 48.098 208.563 43.098 204.913 39.068H213.843Z" fill="#2F2F25"/>
<path d="M121.123 40.188L117.703 41.908L117.783 55.838C119.323 55.918 120.823 55.998 122.273 55.288C124.543 54.178 123.413 50.528 126.713 51.368L125.463 56.818L112.193 56.948L114.523 54.248C114.033 49.228 115.843 44.228 112.193 40.198H121.123V40.188Z" fill="#2F2F25"/>
<path d="M8.28266 41.298C9.35266 44.298 6.29266 43.078 6.03266 44.248C5.36266 47.348 6.59266 51.958 5.95266 55.348L8.28266 58.048H0.472656C2.27266 53.048 2.28266 46.328 0.472656 41.298H8.28266Z" fill="#2F2F25"/>
<path d="M113.313 330.938L115.533 329.778L116.093 333.148L120.003 329.798V340.978L118.883 333.158C113.733 335.818 118.313 339.868 118.833 342.728C119.443 346.098 118.963 349.908 120.003 353.288C116.673 351.328 116.833 345.368 117.773 342.118L115.533 346.578C109.863 343.218 115.383 340.728 115.533 340.238C116.953 335.288 113.353 335.238 113.343 334.708C113.323 333.968 114.463 332.938 114.223 332.208C114.113 331.878 108.313 329.758 113.313 327.568L113.333 330.948L113.313 330.938Z" fill="#2F2F25"/>
<path d="M304.273 38.018L304.333 42.408C301.233 43.378 302.253 40.338 301.043 39.608C299.893 38.928 296.683 38.448 296.513 39.618C295.593 46.088 306.063 41.358 305.413 49.598C304.893 56.178 299.273 54.758 294.273 54.718L294.293 49.118C296.103 50.498 299.523 56.398 302.173 52.928C306.513 47.248 296.193 47.918 294.783 45.818C291.093 40.308 299.133 35.368 304.263 38.008L304.273 38.018Z" fill="#2F2F25"/>
<path d="M134.523 395.788C134.823 397.668 131.663 396.918 131.273 398.638C131.103 399.418 132.333 402.378 132.403 404.178C132.473 405.828 131.323 408.108 131.433 408.728C131.713 410.298 134.873 409.568 134.523 411.428H125.593L127.923 408.728L127.853 397.628L125.603 395.798H134.533L134.523 395.788Z" fill="#2F2F25"/>
<path d="M195.973 394.668L192.553 396.388V407.548L195.983 411.418H187.043C190.693 407.388 188.893 402.398 189.373 397.368L187.043 394.668H195.973Z" fill="#2F2F25"/>
<path d="M131.183 206.798C127.383 206.558 123.743 207.748 120.013 206.788C127.043 199.548 134.513 205.268 141.233 209.048C141.403 211.288 136.463 209.368 135.653 209.038C135.363 208.418 134.703 208.178 134.533 207.918C134.313 207.568 133.773 207.048 133.413 206.798C133.363 206.758 133.563 205.848 132.843 205.688L131.173 206.798H131.183Z" fill="#2F2F25"/>
<path d="M135.653 209.028C135.943 209.658 135.433 211.428 135.653 212.388C142.673 212.948 147.833 205.758 144.603 199.508L146.813 198.978C149.253 212.108 134.803 225.618 131.183 206.798C131.913 206.848 132.843 206.648 133.413 206.798C133.653 206.858 134.043 207.758 134.533 207.918C134.783 207.998 135.153 208.838 135.653 209.038V209.028Z" fill="#2F2F25"/>
<path d="M155.753 77.088L153.503 78.918L153.423 91.138L155.753 93.838H147.943L150.203 92.018V80.968L146.823 77.088H155.753Z" fill="#2F2F25"/>
<path d="M98.7727 290.668C99.7027 291.668 98.9727 293.298 97.3727 294.318C95.1127 295.758 75.1527 302.618 74.2127 301.848L76.4227 299.098C80.0126 299.618 97.9527 289.808 98.7727 290.678V290.668Z" fill="#2F2F25"/>
<path d="M68.6127 225.818C68.3527 227.508 64.8027 228.298 63.3127 228.888C55.8927 231.808 48.0527 233.898 40.6927 236.988L41.4327 233.618L68.6027 225.818H68.6127Z" fill="#2F2F25"/>
<path d="M128.933 351.048L126.703 346.568L124.483 347.698V342.098C128.443 342.528 126.833 345.288 128.933 346.568L127.843 334.278L130.053 340.978C131.033 339.658 128.103 330.898 130.623 330.938C133.143 330.978 130.863 340.688 131.643 342.238L128.933 351.048Z" fill="#2F2F25"/>
<path d="M68.6127 220.228L61.3827 223.598L39.5727 230.278C40.2127 228.128 42.7327 227.588 44.5527 226.888C51.7927 224.098 60.9727 221.368 68.6127 220.238V220.228Z" fill="#2F2F25"/>
<path d="M87.2227 140.088C87.9227 140.898 95.0126 149.488 90.4227 147.518C88.7527 146.798 75.0127 132.318 76.4527 130.758C78.0027 131.418 79.7327 132.338 80.9727 133.498C82.4327 134.868 85.8727 138.528 87.2227 140.098V140.088Z" fill="#2F2F25"/>
<path d="M136.763 146.408C133.413 146.948 134.963 145.598 134.503 143.698C133.263 138.578 132.443 132.688 132.303 127.408C138.153 128.608 135.203 141.438 136.763 146.408Z" fill="#2F2F25"/>
<path d="M55.2127 294.028C55.2727 296.068 50.3227 295.228 49.1727 295.038C41.9727 293.818 32.2827 285.948 38.4527 279.478C37.5927 288.958 46.3327 294.748 55.2127 294.028Z" fill="#2F2F25"/>
<path d="M38.4627 337.628L41.8027 335.398C40.0227 339.818 40.9827 343.238 41.8027 347.688C39.2327 348.338 39.9627 347.208 39.2527 346.278C36.2627 342.448 32.6827 336.488 37.9127 333.158L38.4727 337.628H38.4627ZM39.0127 339.868V340.988C39.7427 340.618 39.7427 340.238 39.0127 339.868Z" fill="#2F2F25"/>
<path d="M105.483 144.168C103.263 146.628 95.2027 130.088 96.5527 128.528C99.0127 128.028 99.0827 129.748 99.9427 131.268C100.763 132.708 105.943 143.648 105.473 144.168H105.483Z" fill="#2F2F25"/>
<path d="M117.773 145.288C115.773 147.428 107.083 131.928 111.643 129.648L117.773 145.288Z" fill="#2F2F25"/>
<path d="M48.5027 269.418C49.4227 273.228 44.2427 271.168 41.5127 271.918C38.0627 272.848 35.9427 274.358 32.9527 275.658C31.3527 276.358 31.6427 278.398 29.5427 275.568C34.6527 271.038 41.6927 268.858 48.5027 269.428V269.418Z" fill="#2F2F25"/>
<path d="M77.5527 349.368C77.6127 348.908 78.6527 346.168 79.7727 346.578C79.8927 353.678 79.1927 360.728 79.7727 367.818C79.0527 367.898 77.5527 366.328 77.5527 366.138C77.5527 361.088 76.9027 354.048 77.5527 349.368Z" fill="#2F2F25"/>
<path d="M57.4427 206.808C56.9427 208.778 52.5327 209.238 50.7827 209.638C46.5127 210.598 41.7227 211.258 37.3327 211.258C42.0527 206.738 51.2727 207.648 57.4327 206.808H57.4427Z" fill="#2F2F25"/>
<path d="M211.613 242.598C211.613 244.488 207.903 244.718 206.603 244.828C201.533 245.248 196.463 244.758 191.523 243.688C191.293 241.578 193.863 242.788 195.103 242.898C199.493 243.308 203.783 244.278 208.273 243.688L199.333 235.878L211.613 242.588V242.598Z" fill="#2F2F25"/>
<path d="M74.1927 366.698L71.9827 364.478C71.4227 366.798 73.7527 372.088 69.7427 371.178V358.888L71.9627 362.228L70.8727 353.298C72.5327 353.018 72.2527 355.398 72.5427 356.628C73.2927 359.918 73.6127 363.388 74.2027 366.698H74.1927Z" fill="#2F2F25"/>
<path d="M166.913 141.928C162.863 139.398 165.163 130.288 169.153 128.518C169.753 133.508 168.823 137.428 166.913 141.928Z" fill="#2F2F25"/>
<path d="M46.2727 287.308C47.5927 283.648 51.4427 286.488 54.5927 286.238C58.8027 285.908 63.7627 284.488 68.0527 283.928C73.0027 284.638 62.8427 287.308 62.4727 287.308H46.2727Z" fill="#2F2F25"/>
<path d="M47.3927 168.788C48.3627 172.728 43.3727 170.418 41.3227 169.818C38.0827 168.868 33.2827 167.528 31.7527 164.318L47.3927 168.788Z" fill="#2F2F25"/>
<path d="M161.333 324.208L156.883 289.558C158.463 289.298 158.503 291.538 158.783 292.658C161.293 302.858 160.843 313.768 161.333 324.208Z" fill="#2F2F25"/>
<path d="M193.544 141.675C192.434 142.415 189.524 142.425 190.424 140.285C190.854 139.255 197.694 130.695 198.804 130.795C200.784 130.975 200.164 132.155 199.344 133.535C198.754 134.535 193.964 141.395 193.544 141.675Z" fill="#2F2F25"/>
<path d="M57.4427 212.388C57.9827 215.488 56.8027 214.268 55.0027 214.908C50.6927 216.428 45.2827 217.558 40.7027 217.968C40.1427 214.688 41.4927 216.158 43.3027 215.598C47.9027 214.178 52.8027 213.568 57.4427 212.378V212.388Z" fill="#2F2F25"/>
<path d="M59.6827 216.868C57.5927 219.758 50.6127 221.238 47.1527 221.738C45.2827 222.008 44.4327 222.998 42.9327 220.768L59.6827 216.868Z" fill="#2F2F25"/>
<path d="M209.373 134.118C210.613 135.218 203.153 143.458 200.443 141.938C199.113 140.758 207.243 132.228 209.373 134.118Z" fill="#2F2F25"/>
<path d="M45.1627 240.338C44.5827 237.168 45.9127 238.498 47.6127 237.818C52.5327 235.848 57.8927 234.408 63.0127 233.058C58.5027 237.268 51.0727 238.698 45.1727 240.338H45.1627Z" fill="#2F2F25"/>
<path d="M261.893 203.428C257.343 203.108 249.453 203.818 246.253 200.098C250.743 200.738 258.833 199.768 261.893 203.428Z" fill="#2F2F25"/>
<path d="M116.653 269.428C108.773 276.608 99.7327 283.708 89.8627 287.878L116.653 269.428Z" fill="#2F2F25"/>
<path d="M66.3827 238.118C66.3727 239.688 63.1527 240.388 61.8727 240.858C58.5227 242.088 54.2927 243.148 50.7427 243.688C54.2027 240.048 61.4527 238.618 66.3727 238.118H66.3827Z" fill="#2F2F25"/>
<path d="M46.2627 337.618C44.1827 337.758 45.6227 334.888 44.6027 333.158C43.9127 331.998 41.2527 331.518 40.6927 330.358C40.5827 330.128 44.2327 329.238 42.9327 326.448L45.7727 327.558L46.2627 337.628V337.618Z" fill="#2F2F25"/>
<path d="M46.2727 165.408C42.4027 165.608 38.7127 163.958 35.3127 162.358C33.7427 161.628 32.2627 163.028 32.8727 159.828C37.1527 160.988 43.2927 161.738 46.2727 165.408Z" fill="#2F2F25"/>
<path d="M264.113 236.998L260.753 237.568L248.483 231.408C254.373 230.888 258.573 235.958 264.113 236.998Z" fill="#2F2F25"/>
<path d="M48.5027 186.678C48.4727 188.828 43.8627 187.758 42.5127 187.638C39.8927 187.398 34.0427 186.998 32.8727 184.438L48.5027 186.678Z" fill="#2F2F25"/>
<path d="M261.883 214.638C262.133 216.778 259.703 215.358 258.523 215.208C256.363 214.938 253.903 214.598 251.793 214.108C250.023 213.698 245.653 213.268 245.133 211.278L261.873 214.638H261.883Z" fill="#2F2F25"/>
<path d="M45.1627 193.368C41.6427 192.858 34.1827 195.478 33.9927 190.028C37.3027 191.068 43.2727 189.998 45.1627 193.368Z" fill="#2F2F25"/>
<path d="M236.173 157.548L225.023 160.938L235.643 154.248L236.173 157.548Z" fill="#2F2F25"/>
<path d="M259.653 243.688C256.653 243.168 253.363 241.288 250.703 239.808C249.063 238.898 245.773 237.598 245.143 235.888C250.023 236.528 256.013 240.318 259.663 243.698L259.653 243.688Z" fill="#2F2F25"/>
<path d="M103.253 129.638C105.413 127.188 110.623 138.898 107.153 138.558C106.033 138.448 102.293 130.718 103.253 129.638Z" fill="#2F2F25"/>
<path d="M197.093 367.808L205.603 362.488C210.043 364.308 215.833 361.708 219.413 365.028C216.103 365.148 208.573 364.058 205.733 364.628C203.063 365.158 200.813 368.968 197.093 367.808Z" fill="#2F2F25"/>
<path d="M140.103 128.518C140.203 131.848 143.293 136.638 139.013 138.588C139.753 135.968 135.113 127.898 140.103 128.518Z" fill="#2F2F25"/>
<path d="M82.7527 143.448C84.0227 144.768 84.7527 146.948 86.4927 148.098C86.6727 148.928 85.3227 148.858 84.8327 148.638C83.5527 148.068 75.0527 140.328 76.4527 138.588C78.2627 140.328 81.0627 141.698 82.7527 143.448Z" fill="#2F2F25"/>
<path d="M269.703 188.918C269.583 190.488 264.663 190.888 263.423 191.008C261.043 191.228 258.673 191.218 256.303 191.138C258.763 186.938 265.663 189.598 269.703 188.928V188.918Z" fill="#2F2F25"/>
<path d="M289.833 45.768C292.593 40.718 288.153 42.008 288.703 38.508C289.253 35.008 298.023 41.868 289.833 45.768Z" fill="#2F2F25"/>
<path d="M263.003 220.208C259.833 219.458 256.443 219.008 253.303 218.138C251.413 217.608 250.183 218.958 250.723 215.758C254.523 216.518 260.683 216.718 263.003 220.218V220.208Z" fill="#2F2F25"/>
<path d="M232.833 147.538C233.443 149.708 229.693 151.598 228.243 152.438C226.793 153.278 225.823 154.668 223.893 154.238C226.043 151.468 228.793 147.068 232.823 147.548L232.833 147.538Z" fill="#2F2F25"/>
<path d="M59.6727 278.378C60.0227 279.868 57.2827 280.048 56.3127 280.118C52.5127 280.428 49.1827 279.828 49.6327 275.008C52.8327 278.008 55.0827 279.048 59.6727 278.378Z" fill="#2F2F25"/>
<path d="M221.673 141.948C221.053 143.378 215.133 149.898 213.863 148.638C214.243 145.308 218.273 141.498 221.673 141.948Z" fill="#2F2F25"/>
<path d="M130.063 128.518C129.263 131.398 132.373 137.088 128.963 138.578C128.543 136.218 125.443 127.798 130.063 128.518Z" fill="#2F2F25"/>
<path d="M105.843 365.318C106.023 365.728 108.943 365.788 107.713 368.938H104.373V357.768C106.823 358.648 104.753 362.838 105.833 365.318H105.843Z" fill="#2F2F25"/>
<path d="M144.573 137.468C141.253 136.118 141.563 130.598 144.033 128.528C145.933 131.258 145.043 134.488 144.573 137.468Z" fill="#2F2F25"/>
<path d="M76.4327 363.348C74.8127 363.608 74.8927 361.378 74.5627 360.218C73.7427 357.368 73.2327 354.028 73.1127 351.058C74.5727 351.518 75.6727 356.348 75.9427 357.718C76.3227 359.608 76.7027 361.408 76.4427 363.348H76.4327Z" fill="#2F2F25"/>
<path d="M153.523 207.908C150.063 208.458 151.763 206.978 151.343 205.108C150.823 202.818 150.533 200.188 150.193 197.848C153.313 199.528 153.263 204.838 153.523 207.908Z" fill="#2F2F25"/>
<path d="M150.163 295.128C145.303 295.808 149.243 287.568 149.063 285.078L150.163 295.128Z" fill="#2F2F25"/>
<path d="M54.0827 326.448L57.4427 334.268C51.1827 331.808 56.1027 326.678 47.4027 330.918L47.9327 327.588L51.2127 328.798L51.9527 326.588L54.0827 326.458V326.448Z" fill="#2F2F25"/>
<path d="M175.863 130.758L172.533 138.578C172.673 136.258 171.913 130.068 175.863 130.758Z" fill="#2F2F25"/>
<path d="M32.8627 351.048C29.5427 349.698 29.8427 344.178 32.3227 342.108L32.8627 351.048Z" fill="#2F2F25"/>
<path d="M38.4527 307.438C39.0627 311.348 32.1627 311.708 30.6427 309.108L38.4527 307.438Z" fill="#2F2F25"/>
<path d="M254.063 252.668L253.523 254.868L245.133 247.058L254.063 252.668Z" fill="#2F2F25"/>
<path d="M271.943 330.918L268.603 329.808V335.398L270.823 334.258C270.783 337.178 269.853 338.878 270.343 341.978C270.743 344.538 268.843 343.528 268.603 343.208L267.483 327.558L271.943 328.688V330.918Z" fill="#2F2F25"/>
<path d="M162.443 138.578L161.353 129.638C165.263 131.328 163.163 135.718 162.443 138.578Z" fill="#2F2F25"/>
<path d="M278.643 335.398C279.463 336.278 277.363 341.938 275.313 342.098C274.163 340.018 276.613 333.208 278.643 335.398Z" fill="#2F2F25"/>
<path d="M141.223 278.358L135.653 267.188C139.903 269.228 140.263 274.348 141.223 278.358Z" fill="#2F2F25"/>
<path d="M263.013 221.338C266.913 224.288 253.913 223.268 254.073 220.228L263.013 221.338Z" fill="#2F2F25"/>
<path d="M180.333 131.878C180.783 134.828 179.873 137.468 177.003 138.578C177.463 136.698 176.903 131.028 180.333 131.878Z" fill="#2F2F25"/>
<path d="M40.6927 178.848C41.4627 183.288 36.1927 180.108 33.9927 179.938L40.6927 178.848Z" fill="#2F2F25"/>
<path d="M59.6727 333.148C57.2027 332.578 59.1527 327.208 58.5827 325.328C62.2627 326.748 60.4327 330.348 59.6727 333.148Z" fill="#2F2F25"/>
<path d="M199.323 239.238C197.523 242.738 191.393 239.358 188.163 240.338L199.323 239.238Z" fill="#2F2F25"/>
<path d="M121.113 348.808L120.743 345.648L123.353 336.518L121.113 348.808Z" fill="#2F2F25"/>
<path d="M147.923 361.108C145.563 360.688 147.173 352.648 149.043 352.178L147.923 361.108Z" fill="#2F2F25"/>
<path d="M44.0327 353.278C42.0727 353.538 42.9927 350.748 42.9227 349.378C42.8027 346.958 42.9927 344.508 42.9327 342.098C44.8927 341.838 43.9727 344.628 44.0427 345.998C44.1627 348.418 43.9727 350.868 44.0327 353.278Z" fill="#2F2F25"/>
<path d="M147.933 271.668L143.473 278.368C143.193 277.368 146.063 269.598 147.933 271.668Z" fill="#2F2F25"/>
<path d="M124.463 136.348C121.633 135.488 122.183 132.098 122.253 129.648H123.343L124.463 136.348Z" fill="#2F2F25"/>
<path d="M213.843 393.538C214.773 397.528 209.473 395.258 207.153 395.758C207.593 393.158 212.063 394.878 213.843 393.538Z" fill="#2F2F25"/>
<path d="M48.5127 335.388V333.728L51.8427 330.918C52.2827 333.598 51.3227 335.668 48.5127 335.388Z" fill="#2F2F25"/>
<path d="M142.343 274.998H141.253L140.133 268.298C142.963 269.158 142.413 272.548 142.343 274.998Z" fill="#2F2F25"/>
<path d="M274.173 336.518L273.053 342.098H271.953V336.518H274.173Z" fill="#2F2F25"/>
<path d="M41.8027 201.218V202.308C39.7327 203.028 38.2927 203.028 36.2327 202.308V201.218H41.8027Z" fill="#2F2F25"/>
<path d="M270.823 181.068H265.243V179.978C267.613 179.918 269.993 177.988 270.823 181.068Z" fill="#2F2F25"/>
<path d="M204.913 273.888C203.223 275.578 200.153 270.558 203.243 270.558C203.983 270.558 205.553 273.238 204.913 273.888Z" fill="#2F2F25"/>
<path d="M128.943 367.808L125.603 367.818V365.588L127.253 365.598L128.943 367.808Z" fill="#2F2F25"/>
<path d="M71.9627 275.018V277.238H70.3127L68.6227 275.558L71.9627 275.018Z" fill="#2F2F25"/>
<path d="M176.973 361.118H174.753V363.338H176.973V361.118Z" fill="#2F2F25"/>
<path d="M90.9527 301.848H88.7327V304.068H90.9527V301.848Z" fill="#2F2F25"/>
<path d="M265.223 336.518H264.133V339.858H265.223V336.518Z" fill="#2F2F25"/>
<path d="M267.463 336.518H266.373V339.858H267.463V336.518Z" fill="#2F2F25"/>
<path d="M145.703 279.488L145.693 281.718L143.473 280.038L145.703 279.488Z" fill="#2F2F25"/>
<path d="M254.063 145.298L253.513 147.528L251.833 145.308L254.063 145.298Z" fill="#2F2F25"/>
<path d="M125.593 332.028L123.363 331.488L125.583 329.798L125.593 332.028Z" fill="#2F2F25"/>
<path d="M8.28266 61.418L6.06266 60.868L8.28266 59.188V61.418Z" fill="#2F2F25"/>
<path d="M217.183 215.748H216.093V219.088H217.183V215.748Z" fill="#2F2F25"/>
<path d="M144.573 364.468H143.483V367.808H144.573V364.468Z" fill="#2F2F25"/>
<path d="M113.293 13.348H112.203V15.578H113.293V13.348Z" fill="#2F2F25"/>
<path d="M248.473 62.558H246.253V63.658H248.473V62.558Z" fill="#2F2F25"/>
<path d="M222.773 127.408H221.683V129.638H222.773V127.408Z" fill="#2F2F25"/>
<path d="M195.963 430.458H193.743V431.558H195.963V430.458Z" fill="#2F2F25"/>
<path d="M204.903 163.188H203.813V165.418H204.903V163.188Z" fill="#2F2F25"/>
<path d="M89.8327 365.588H88.7427V367.818H89.8327V365.588Z" fill="#2F2F25"/>
<path d="M202.663 361.118H201.573V363.348H202.663V361.118Z" fill="#2F2F25"/>
<path d="M232.823 358.878H231.733V361.108H232.823V358.878Z" fill="#2F2F25"/>
<path d="M245.123 257.128H242.903V258.228H245.123V257.128Z" fill="#2F2F25"/>
<path d="M70.8427 223.578H68.6227V224.678H70.8427V223.578Z" fill="#2F2F25"/>
<path d="M186.483 235.868C187.213 236.238 187.213 236.618 186.483 236.988V235.868Z" fill="#2F2F25"/>
<path d="M201.003 212.388C201.733 212.758 201.733 213.138 201.003 213.508V212.388Z" fill="#2F2F25"/>
<path d="M218.883 268.298C219.613 268.668 219.613 269.048 218.883 269.418V268.298Z" fill="#2F2F25"/>
<path d="M283.673 190.018C284.403 190.388 284.403 190.768 283.673 191.138V190.018Z" fill="#2F2F25"/>
<path d="M36.7827 314.148C37.5127 314.518 37.5127 314.898 36.7827 315.268V314.148Z" fill="#2F2F25"/>
<path d="M249.043 286.188C249.773 286.558 249.773 286.938 249.043 287.308V286.188Z" fill="#2F2F25"/>
<path d="M36.7827 311.908C37.5127 312.278 37.5127 312.658 36.7827 313.028V311.908Z" fill="#2F2F25"/>
<path d="M259.093 379.008C259.823 379.378 259.823 379.758 259.093 380.128V379.008Z" fill="#2F2F25"/>
<path d="M70.2927 298.488C71.0227 298.858 71.0227 299.238 70.2927 299.608V298.488Z" fill="#2F2F25"/>
<path d="M211.063 139.698C211.793 140.068 211.793 140.448 211.063 140.818V139.698Z" fill="#2F2F25"/>
<path d="M64.7127 300.728C65.4427 301.098 65.4427 301.478 64.7127 301.848V300.728Z" fill="#2F2F25"/>
<path d="M253.513 81.548C254.243 81.918 254.243 82.298 253.513 82.668V81.548Z" fill="#2F2F25"/>
<path d="M304.903 35.708C305.633 36.078 305.633 36.458 304.903 36.828V35.708Z" fill="#2F2F25"/>
<path d="M245.693 4.39797C246.423 4.76797 246.423 5.14797 245.693 5.51797V4.39797Z" fill="#2F2F25"/>
<path d="M34.5427 259.348C35.2727 259.718 35.2727 260.098 34.5427 260.468V259.348Z" fill="#2F2F25"/>
<path d="M114.423 198.958C109.383 198.878 102.033 197.498 98.7827 193.388C102.693 194.258 106.743 195.468 110.553 196.698C112.023 197.168 114.033 196.738 114.423 198.958Z" fill="#2F2F25"/>
<path d="M101.013 170.998C97.2727 171.308 93.6527 169.608 90.9827 167.098C93.1127 164.178 92.8827 166.438 94.3727 167.028C96.4127 167.828 100.053 168.988 101.013 171.008V170.998Z" fill="#2F2F25"/>
<path d="M113.863 172.128C114.593 172.498 114.593 172.878 113.863 173.248V172.128Z" fill="#2F2F25"/>
<path d="M175.873 188.918C176.543 191.768 174.903 190.808 173.073 192.238C171.343 191.068 171.143 189.828 171.413 187.788L175.873 188.918Z" fill="#2F2F25"/>
<path d="M175.863 178.848V181.068H174.213L172.523 179.398L175.863 178.848Z" fill="#2F2F25"/>
<path d="M174.743 182.198L174.193 184.428L172.513 182.208L174.743 182.198Z" fill="#2F2F25"/>
<path d="M175.313 186.668C176.043 187.038 176.043 187.418 175.313 187.788V186.668Z" fill="#2F2F25"/>
<path d="M145.703 238.108L144.583 239.228C144.113 239.558 142.503 240.528 142.363 240.348C142.003 237.778 144.783 236.538 146.273 234.778L145.703 238.108Z" fill="#2F2F25"/>
<path d="M145.703 238.108L147.933 238.658C146.883 239.328 146.413 240.688 145.703 241.458H144.583C144.783 240.928 144.453 239.908 144.583 239.218C144.793 239.068 145.873 239.368 145.703 238.098V238.108Z" fill="#2F2F25"/>
<path d="M145.703 241.458C148.443 240.398 150.463 240.808 152.403 243.148L150.183 243.688C149.183 245.508 155.663 249.138 149.623 250.418L149.043 242.578C145.873 242.378 144.853 249.068 142.383 245.388C142.843 244.068 144.163 242.598 144.583 241.458C145.103 243.648 145.303 241.888 145.703 241.458Z" fill="#2F2F25"/>
<path d="M154.633 235.878V237.538L151.303 240.348C150.863 237.668 151.823 235.598 154.633 235.878Z" fill="#2F2F25"/>
<path d="M157.983 245.938L154.643 244.788L155.773 240.348H156.863L157.983 245.938Z" fill="#2F2F25"/>
<path d="M160.783 247.048C161.513 247.418 161.513 247.798 160.783 248.168V247.048Z" fill="#2F2F25"/>
<path d="M142.353 309.678C141.033 313.038 136.153 310.568 133.423 311.898C134.593 308.748 139.833 310.608 142.353 309.678Z" fill="#2F2F25"/>
<path d="M126.693 308.558H125.603V310.788H126.693V308.558Z" fill="#2F2F25"/>
<path d="M204.903 316.398H202.683V317.498H204.903V316.398Z" fill="#2F2F25"/>
<path d="M245.133 319.748C244.583 321.898 242.663 322.268 240.673 321.958C239.523 321.418 243.683 319.288 245.133 319.748Z" fill="#2F2F25"/>
</svg>
