<svg width="570" height="496" viewBox="0 0 570 496" fill="none" xmlns="http://www.w3.org/2000/svg">
<path d="M0.078125 491.691C180.05 510.136 545.695 437.7 568.5 0.400391" stroke="url(#paint0_linear_2034_256)" stroke-width="1.5"/>
<path d="M207.572 429.696C215.126 418.757 228.358 414.999 229.891 415.85C231.424 416.7 232.413 430.696 224.859 441.634C217.305 452.572 203.983 456.458 202.541 455.48C201.098 454.503 200.026 440.643 207.572 429.696Z" fill="url(#paint1_linear_2034_256)"/>
<path d="M413.482 422.48C426.611 420.396 438.463 427.377 438.906 429.073C439.348 430.77 429.904 441.146 416.775 443.229C403.646 445.313 391.64 438.355 391.352 436.636C391.063 434.918 400.353 424.576 413.482 422.48Z" fill="url(#paint2_linear_2034_256)"/>
<path d="M451.356 218.937C460.961 209.747 474.679 208.734 476.009 209.877C477.339 211.019 475.485 224.927 465.881 234.117C456.276 243.307 442.444 244.425 441.228 243.177C440.012 241.929 441.758 228.138 451.356 218.937Z" fill="url(#paint3_linear_2034_256)"/>
<defs>
<linearGradient id="paint0_linear_2034_256" x1="34.3271" y1="509.221" x2="574.668" y2="21.7397" gradientUnits="userSpaceOnUse">
<stop stop-color="white" stop-opacity="0"/>
<stop offset="0.504808" stop-color="white" stop-opacity="0.85"/>
<stop offset="1" stop-color="white" stop-opacity="0"/>
</linearGradient>
<linearGradient id="paint1_linear_2034_256" x1="197.848" y1="454.756" x2="233.073" y2="411.284" gradientUnits="userSpaceOnUse">
<stop stop-color="white"/>
<stop offset="1" stop-color="white" stop-opacity="0"/>
</linearGradient>
<linearGradient id="paint2_linear_2034_256" x1="388.637" y1="432.741" x2="444.406" y2="428.225" gradientUnits="userSpaceOnUse">
<stop stop-color="white"/>
<stop offset="1" stop-color="white" stop-opacity="0"/>
</linearGradient>
<linearGradient id="paint3_linear_2034_256" x1="436.778" y1="241.521" x2="480.047" y2="206.047" gradientUnits="userSpaceOnUse">
<stop stop-color="white"/>
<stop offset="1" stop-color="white" stop-opacity="0"/>
</linearGradient>
</defs>
</svg>
