<svg width="604" height="218" viewBox="0 0 604 218" fill="none" xmlns="http://www.w3.org/2000/svg">
<g clip-path="url(#clip0_550_2789)">
<path d="M514.969 74.4556C519.816 75.0768 523.431 78.3512 523.264 79.4356C523.097 80.5148 518.851 82.7995 514.004 82.1836C509.152 81.5677 505.5 78.109 505.709 77.2036C505.912 76.2928 510.122 73.8344 514.969 74.4504" fill="#F48066"/>
<path d="M462.84 45.2764C461.228 41.2545 462.042 37.08 463.064 36.7167C464.087 36.3535 467.52 38.6856 469.132 42.6969C470.744 46.7189 469.993 50.7408 468.907 51.2619C467.828 51.7831 464.452 49.2931 462.84 45.2764Z" fill="#62C6C0"/>
<path d="M503.899 80.5205C511.912 84.2792 516.279 92.2177 515.465 93.7075C514.651 95.1973 506.028 97.0503 498.014 93.2863C490.001 89.5382 486.03 81.089 486.448 80.0993C486.865 79.1096 495.886 76.7565 503.899 80.5152" fill="#75B34B"/>
<path d="M465.323 52.0197C473.044 56.8365 476.065 65.8121 475.538 66.8965C475.011 67.981 465.501 69.1497 457.779 64.3328C450.053 59.516 446.949 50.4825 447.564 49.456C448.18 48.4294 457.597 47.2029 465.323 52.0197Z" fill="#B9D548"/>
<path d="M485.853 49.8665C484.794 57.605 479.274 63.1641 477.876 63.0272C476.473 62.8851 472.68 55.9099 473.739 48.1714C474.803 40.4329 480.683 34.7475 481.716 35.0107C482.754 35.2792 486.912 42.128 485.853 49.8665Z" fill="#F48066"/>
<path d="M481 63.9489C482.383 59.8217 485.691 57.2369 486.734 57.5791C487.783 57.9213 488.842 62.0327 487.454 66.1599C486.071 70.2871 482.566 72.7613 481.72 72.5297C480.875 72.2928 479.613 68.0761 481 63.9542" fill="#62C6C0"/>
<path d="M462.939 76.788C469.007 70.6656 478.069 69.9023 478.71 70.5393C479.352 71.1815 478.585 80.3361 472.518 86.4532C466.456 92.5703 457.696 93.4442 456.747 92.6966C455.802 91.9544 456.872 82.9051 462.934 76.7827" fill="#62C6C0"/>
<path d="M494.91 46.3765C499.626 41.6123 506.319 40.5279 507.18 41.5175C508.046 42.5072 507.086 49.1402 502.365 53.8991C497.643 58.6633 491.033 59.6056 490.089 58.7581C489.15 57.9158 490.188 51.1407 494.91 46.3765Z" fill="#75B34B"/>
<path d="M455.985 69.6025C460.049 68.0654 464.212 69.3183 464.551 70.0553C464.891 70.8028 462.459 74.5457 458.39 76.0829C454.326 77.62 450.215 76.583 449.824 75.6301C449.432 74.672 451.916 71.1397 455.985 69.6025Z" fill="#75B34B"/>
<path d="M487.971 43.3549C488.586 40.1911 490.731 37.8906 491.565 38.1169C492.4 38.3433 493.543 41.1755 492.927 44.3393C492.311 47.5031 490.355 49.8194 489.332 49.572C488.31 49.3351 487.35 46.5187 487.971 43.3601" fill="#8F64AA"/>
<path d="M478.242 81.2678C480.568 78.483 483.933 77.3985 484.632 78.0829C485.337 78.7672 484.919 82.189 482.603 84.9738C480.271 87.7586 477.089 88.9641 476.212 88.1587C475.341 87.3585 475.915 84.0526 478.242 81.2678Z" fill="#B9D548"/>
<path d="M497.858 72.4872C494.331 74.5403 490.737 74.2771 489.87 73.3979C489.01 72.5188 491.123 68.9286 494.644 66.8702C498.171 64.8224 501.927 65.0277 502.626 65.9648C503.331 66.9071 501.374 70.4341 497.858 72.4925M519.357 59.6318C518.716 58.4211 508.496 55.6047 499.162 59.8161C489.829 64.0222 485.107 73.6664 485.561 74.8772C486.015 76.0827 496.423 78.9044 505.757 74.6929C515.085 70.4868 519.999 60.8426 519.357 59.6371" fill="#8F64AA"/>
<path d="M412.49 141.665V138.49H417.686V119.728C417.686 117.733 417.613 115.069 416.512 113.301C415.271 111.306 412.928 110.347 410.654 110.347C407.508 110.347 404.508 112.048 402.969 114.78C401.435 117.438 401.357 120.618 401.357 123.645V138.49H406.553V141.665H389.723V138.49H395.503V111.084H389.723V107.91L401.362 107.463V112.858C404.221 108.721 407.075 106.726 412.198 106.726C415.49 106.726 419.006 107.763 421.276 110.274C423.54 112.785 423.54 116.333 423.54 119.581V138.49H429.253V141.665H412.49Z" fill="#535246"/>
<path d="M458.99 141.665V136.717C456.131 140.707 453.496 142.407 448.592 142.407C445.149 142.407 441.053 141.296 438.784 138.564C436.588 135.979 436.588 131.621 436.588 128.373V111.085H430.145V107.91L442.514 107.463V127.999C442.514 133.832 443.172 138.785 450.277 138.785C458.04 138.785 458.99 131.621 458.99 125.414V111.085H452.547V107.91L464.843 107.463V138.491H470.624V141.665H458.985H458.99Z" fill="#535246"/>
<path d="M473.604 141.665V138.491H480.047V97.5032L473.854 97.4505L473.817 94.6289L485.9 91.5703V138.491H492.416V141.665H473.604Z" fill="#535246"/>
<path d="M510.524 142.407C506.569 142.407 503.716 141.075 500.789 138.491V141.665H497.054V131.473H500.789C500.789 136.569 504.963 139.375 509.648 139.375C513.086 139.375 516.821 137.675 516.821 133.684C516.821 125.046 496.98 129.768 496.98 116.697C496.98 110.495 501.885 106.721 507.743 106.721C511.333 106.721 513.748 107.979 516.529 110.121V107.463H520.264V116.033H516.529V113.817C514.259 111.232 512.209 109.827 508.698 109.827C505.187 109.827 502.182 111.453 502.182 115.217C502.182 123.198 522.242 118.471 522.242 132.058C522.242 138.633 516.602 142.402 510.529 142.402" fill="#535246"/>
<path d="M557.525 132.953C554.379 136.717 551.087 139.375 545.959 139.375C540.83 139.375 536.662 136.274 534.977 131.547C534.241 129.552 534.1 127.409 534.1 125.267H559.8C559.8 122.756 559.654 120.245 558.996 117.802C556.946 110.564 551.458 106.721 544.06 106.721C533.808 106.721 527.078 114.628 527.078 124.672C527.078 135.458 534.617 142.402 545.161 142.402C550.722 142.402 554.604 140.923 558.704 137.085C559.362 136.495 559.951 135.827 560.608 135.237L557.53 132.947L557.525 132.953ZM543.835 109.827C550.936 109.827 552.986 116.033 553.424 122.092H534.241C534.679 116.107 536.803 109.827 543.83 109.827H543.835Z" fill="#535246"/>
<path d="M586.955 141.665V138.49H592.151V119.728C592.151 117.733 592.078 115.069 590.978 113.301C589.731 111.306 587.393 110.347 585.124 110.347C581.978 110.347 578.973 112.048 577.434 114.78C575.9 117.438 575.822 120.618 575.822 123.645V138.49H581.018V141.665H564.183V138.49H569.963V111.084H564.183V107.91L575.822 107.463V112.858C578.676 108.721 581.535 106.726 586.658 106.726C589.955 106.726 593.466 107.763 595.736 110.274C598.005 112.785 598.005 116.333 598.005 119.581V138.49H603.713V141.665H586.95H586.955Z" fill="#535246"/>
<path d="M434.119 161.16C434.119 161 434.167 160.952 434.327 160.952H434.839C434.983 160.952 435.031 161 435.031 161.16V172.792C435.031 172.952 434.983 173 434.839 173H434.535C434.375 173 434.311 172.952 434.311 172.792L434.247 171.144C433.847 171.88 432.903 173.176 430.871 173.176C428.615 173.176 426.967 171.224 426.967 168.888C426.967 166.552 428.615 164.568 430.871 164.568C432.743 164.568 433.671 165.832 434.119 166.504V161.16ZM431.031 172.296C432.839 172.296 434.135 170.648 434.135 168.872C434.135 167.096 432.839 165.464 431.031 165.464C429.191 165.464 427.895 166.984 427.895 168.888C427.895 170.776 429.191 172.296 431.031 172.296ZM438.027 161.624C438.027 161.208 438.331 160.872 438.763 160.872C439.163 160.872 439.499 161.208 439.499 161.624C439.499 162.024 439.163 162.36 438.763 162.36C438.331 162.36 438.027 162.024 438.027 161.624ZM438.299 172.792V164.952C438.299 164.808 438.363 164.744 438.507 164.744H439.019C439.179 164.744 439.227 164.808 439.227 164.952V172.792C439.227 172.952 439.179 173 439.019 173H438.507C438.363 173 438.299 172.952 438.299 172.792ZM445.174 172.296C446.87 172.296 447.494 171.576 447.494 170.728C447.494 169.768 446.71 169.512 445.094 169.288C443.558 169.08 442.006 168.776 442.006 167.048C442.006 165.576 443.158 164.568 445.03 164.568C445.958 164.568 447.014 164.808 448.006 165.4C448.166 165.512 448.15 165.592 448.086 165.704L447.846 166.152C447.782 166.264 447.702 166.328 447.558 166.232C446.678 165.688 445.878 165.464 445.03 165.464C443.59 165.464 442.918 166.04 442.918 167C442.918 167.992 443.702 168.2 445.286 168.408C446.822 168.632 448.406 168.968 448.406 170.68C448.406 172.104 447.27 173.176 445.158 173.176C444.262 173.176 443.03 172.952 441.846 172.184C441.734 172.104 441.718 172.024 441.798 171.896L442.07 171.416C442.134 171.304 442.214 171.256 442.342 171.352C443.254 171.96 444.118 172.296 445.174 172.296ZM456.361 171.32C455.849 172.536 454.729 173.176 453.241 173.176C451.449 173.176 450.281 172.232 450.281 170.568C450.281 168.856 451.609 168.008 453.513 168.008C454.489 168.008 455.433 168.184 456.297 168.456C456.297 166.008 455.801 165.464 453.833 165.464C452.825 165.464 452.025 165.608 451.401 165.752C451.225 165.784 451.177 165.72 451.129 165.56L451.033 165.144C451.001 165 451.033 164.92 451.209 164.872C451.529 164.776 452.777 164.568 453.945 164.568C456.633 164.568 457.225 165.656 457.225 168.44V172.792C457.225 172.952 457.177 173 457.017 173H456.665C456.537 173 456.473 172.952 456.457 172.792L456.361 171.32ZM453.593 168.84C452.121 168.84 451.209 169.416 451.209 170.568C451.209 171.704 451.993 172.296 453.337 172.296C455.385 172.296 456.297 170.936 456.297 169.512V169.304C455.449 169.064 454.697 168.84 453.593 168.84ZM461.227 161.16V166.504C461.675 165.832 462.603 164.568 464.475 164.568C466.731 164.568 468.379 166.552 468.379 168.888C468.379 171.224 466.731 173.176 464.475 173.176C462.443 173.176 461.467 171.848 461.083 171.112L461.035 172.792C461.035 172.952 460.971 173 460.811 173H460.507C460.363 173 460.315 172.952 460.315 172.792V161.16C460.315 161 460.363 160.952 460.507 160.952H461.019C461.179 160.952 461.227 161 461.227 161.16ZM464.315 172.296C466.155 172.296 467.451 170.776 467.451 168.888C467.451 166.984 466.155 165.464 464.315 165.464C462.507 165.464 461.227 167.096 461.227 168.872C461.227 170.648 462.507 172.296 464.315 172.296ZM470.527 161.624C470.527 161.208 470.831 160.872 471.263 160.872C471.663 160.872 471.999 161.208 471.999 161.624C471.999 162.024 471.663 162.36 471.263 162.36C470.831 162.36 470.527 162.024 470.527 161.624ZM470.799 172.792V164.952C470.799 164.808 470.863 164.744 471.007 164.744H471.519C471.679 164.744 471.727 164.808 471.727 164.952V172.792C471.727 172.952 471.679 173 471.519 173H471.007C470.863 173 470.799 172.952 470.799 172.792ZM474.97 172.792V161.16C474.97 161 475.018 160.952 475.178 160.952H475.69C475.85 160.952 475.898 161 475.898 161.16V172.792C475.898 172.952 475.85 173 475.69 173H475.178C475.018 173 474.97 172.952 474.97 172.792ZM478.87 161.624C478.87 161.208 479.174 160.872 479.606 160.872C480.006 160.872 480.342 161.208 480.342 161.624C480.342 162.024 480.006 162.36 479.606 162.36C479.174 162.36 478.87 162.024 478.87 161.624ZM479.142 172.792V164.952C479.142 164.808 479.206 164.744 479.35 164.744H479.862C480.022 164.744 480.07 164.808 480.07 164.952V172.792C480.07 172.952 480.022 173 479.862 173H479.35C479.206 173 479.142 172.952 479.142 172.792ZM483.442 164.744V163.08C483.442 162.92 483.49 162.872 483.65 162.872H484.146C484.29 162.872 484.354 162.92 484.354 163.08V164.744H487.17C487.314 164.744 487.378 164.792 487.378 164.952V165.384C487.378 165.544 487.314 165.592 487.17 165.592H484.354V170.488C484.354 171.688 484.802 172.296 485.826 172.296C486.354 172.296 486.706 172.184 487.138 172.024C487.25 171.96 487.298 171.992 487.346 172.104L487.554 172.584C487.602 172.712 487.554 172.792 487.458 172.84C486.962 173.064 486.418 173.176 485.826 173.176C484.242 173.176 483.426 172.232 483.426 170.488V165.592H482.45C482.29 165.592 482.258 165.544 482.258 165.384V164.952C482.258 164.792 482.29 164.744 482.45 164.744H483.442ZM492.563 171.464L495.443 164.952C495.523 164.792 495.635 164.744 495.779 164.744H496.355C496.483 164.744 496.531 164.84 496.483 164.952L491.619 175.864C491.539 176.04 491.443 176.072 491.315 176.072H490.707C490.579 176.072 490.531 176.008 490.595 175.864L492.035 172.632L488.627 164.952C488.563 164.84 488.611 164.744 488.739 164.744H489.315C489.459 164.744 489.571 164.776 489.651 164.952L492.531 171.464H492.563ZM504.315 172.296C506.011 172.296 506.635 171.576 506.635 170.728C506.635 169.768 505.851 169.512 504.235 169.288C502.699 169.08 501.147 168.776 501.147 167.048C501.147 165.576 502.299 164.568 504.171 164.568C505.099 164.568 506.155 164.808 507.147 165.4C507.307 165.512 507.291 165.592 507.227 165.704L506.987 166.152C506.923 166.264 506.843 166.328 506.699 166.232C505.819 165.688 505.019 165.464 504.171 165.464C502.731 165.464 502.059 166.04 502.059 167C502.059 167.992 502.843 168.2 504.427 168.408C505.963 168.632 507.547 168.968 507.547 170.68C507.547 172.104 506.411 173.176 504.299 173.176C503.403 173.176 502.171 172.952 500.987 172.184C500.875 172.104 500.859 172.024 500.939 171.896L501.211 171.416C501.275 171.304 501.355 171.256 501.483 171.352C502.395 171.96 503.259 172.296 504.315 172.296ZM517.217 168.92V169.112C517.217 169.256 517.185 169.32 517.025 169.32H510.161C510.353 171 511.713 172.296 513.441 172.296C514.657 172.296 515.217 171.976 516.033 171.384C516.145 171.304 516.225 171.336 516.305 171.432L516.561 171.816C516.641 171.928 516.641 172.04 516.513 172.12C515.553 172.808 514.769 173.176 513.441 173.176C511.041 173.176 509.201 171.256 509.201 168.888C509.201 166.504 511.073 164.568 513.425 164.568C515.841 164.568 517.217 166.568 517.217 168.92ZM510.161 168.472H516.305C516.209 166.872 515.169 165.448 513.441 165.448C511.713 165.448 510.353 166.76 510.161 168.472ZM523.691 165.544C521.675 165.544 520.555 167.208 520.555 169.032V172.792C520.555 172.952 520.507 173 520.347 173H519.835C519.691 173 519.643 172.952 519.643 172.792V164.952C519.643 164.808 519.691 164.744 519.835 164.744H520.155C520.283 164.744 520.363 164.792 520.379 164.952L520.459 166.744C520.779 166.04 521.579 164.568 523.819 164.568C523.995 164.568 524.011 164.632 523.995 164.76L523.931 165.352C523.899 165.512 523.835 165.544 523.691 165.544ZM528.636 173.032L524.924 164.952C524.876 164.84 524.924 164.744 525.052 164.744H525.628C525.772 164.744 525.884 164.792 525.964 164.952L528.844 171.304H528.876L531.756 164.952C531.836 164.792 531.948 164.744 532.092 164.744H532.668C532.796 164.744 532.844 164.84 532.796 164.952L529.084 173.032C529.036 173.128 528.988 173.16 528.924 173.16H528.796C528.732 173.16 528.684 173.128 528.636 173.032ZM534.448 161.624C534.448 161.208 534.752 160.872 535.184 160.872C535.584 160.872 535.92 161.208 535.92 161.624C535.92 162.024 535.584 162.36 535.184 162.36C534.752 162.36 534.448 162.024 534.448 161.624ZM534.72 172.792V164.952C534.72 164.808 534.784 164.744 534.928 164.744H535.44C535.6 164.744 535.648 164.808 535.648 164.952V172.792C535.648 172.952 535.6 173 535.44 173H534.928C534.784 173 534.72 172.952 534.72 172.792ZM542.3 172.296C543.276 172.296 544.028 171.912 544.572 171.384C544.668 171.272 544.78 171.304 544.86 171.4L545.228 171.736C545.324 171.832 545.324 171.912 545.228 172.008C544.396 172.776 543.42 173.176 542.3 173.176C539.916 173.176 538.076 171.256 538.076 168.888C538.076 166.504 539.916 164.568 542.3 164.568C543.42 164.568 544.412 164.984 545.212 165.752C545.324 165.848 545.292 165.912 545.212 166.008L544.844 166.36C544.748 166.44 544.652 166.456 544.54 166.344C544.044 165.88 543.308 165.464 542.3 165.464C540.428 165.464 539.004 166.984 539.004 168.888C539.004 170.776 540.428 172.296 542.3 172.296ZM554.842 168.92V169.112C554.842 169.256 554.81 169.32 554.65 169.32H547.786C547.978 171 549.338 172.296 551.066 172.296C552.282 172.296 552.842 171.976 553.658 171.384C553.77 171.304 553.85 171.336 553.93 171.432L554.186 171.816C554.266 171.928 554.266 172.04 554.138 172.12C553.178 172.808 552.394 173.176 551.066 173.176C548.666 173.176 546.826 171.256 546.826 168.888C546.826 166.504 548.698 164.568 551.05 164.568C553.466 164.568 554.842 166.568 554.842 168.92ZM547.786 168.472H553.93C553.834 166.872 552.794 165.448 551.066 165.448C549.338 165.448 547.978 166.76 547.786 168.472ZM559.956 172.296C561.652 172.296 562.276 171.576 562.276 170.728C562.276 169.768 561.492 169.512 559.876 169.288C558.34 169.08 556.788 168.776 556.788 167.048C556.788 165.576 557.94 164.568 559.812 164.568C560.74 164.568 561.796 164.808 562.788 165.4C562.948 165.512 562.932 165.592 562.868 165.704L562.628 166.152C562.564 166.264 562.484 166.328 562.34 166.232C561.46 165.688 560.66 165.464 559.812 165.464C558.372 165.464 557.7 166.04 557.7 167C557.7 167.992 558.484 168.2 560.068 168.408C561.604 168.632 563.188 168.968 563.188 170.68C563.188 172.104 562.052 173.176 559.94 173.176C559.044 173.176 557.812 172.952 556.628 172.184C556.516 172.104 556.5 172.024 556.58 171.896L556.852 171.416C556.916 171.304 556.996 171.256 557.124 171.352C558.036 171.96 558.9 172.296 559.956 172.296Z" fill="#2F2F25"/>
</g>
<path d="M100.096 51.5769V153.767H100.086L100.044 51.5145L100.096 51.5769Z" fill="black"/>
<path d="M175.388 0.382812V115.775L140.183 71.84L137.96 69.0597L100.734 22.6014C101.192 21.9288 101.833 21.4574 102.582 21.3291C104.544 21.0067 106.995 20.7363 108.58 20.5248V17.117H74.0539V20.5248C75.8324 20.7536 78.533 21.0621 80.6616 21.4504C82.1038 21.7139 83.175 23.2497 83.175 25.0663V102.001H83.227V153.767H52.5044V0.382812H175.388Z" fill="#2F284F"/>
<path d="M175.416 102.005V115.809L175.388 115.775L175.388 27.4482H175.412V102.005H175.416Z" fill="#1D1537"/>
<path d="M222.976 27.4476V180.828H100.093V51.5764L175.384 145.554V149.693C175.218 151.295 174.212 152.584 172.902 152.824C170.773 153.212 168.069 153.52 166.287 153.749V157.157H200.813V153.749C199.232 153.534 196.785 153.267 194.815 152.941C193.363 152.699 192.278 151.149 192.278 149.319V101.214L192.406 27.4441H222.973L222.976 27.4476Z" fill="#B5591C"/>
<path d="M0.211426 193.603H2.12509L13.0766 210.261C14.4946 212.404 15.8154 214.716 15.8154 214.716H15.8813V193.603H17.5315V217.191H15.7183L4.89851 200.894C3.57767 198.914 1.93095 196.176 1.93095 196.176H1.86508V217.188H0.211426V193.6V193.603Z" fill="black"/>
<path d="M40.357 217.188V214.581H40.2911C39.1713 216.231 37.6841 217.583 34.817 217.583C31.6831 217.583 29.3395 215.704 29.3395 212.307V200.135H30.9551V212.144C30.9551 214.948 32.5706 216.2 35.1117 216.2C38.114 216.2 40.357 213.922 40.357 210.923V200.135H41.9725V217.188H40.357Z" fill="black"/>
<path d="M53.614 193.603H55.2295V217.191H53.614V193.603Z" fill="black"/>
<path d="M65.7858 212.043H67.436C67.6683 214.847 69.679 216.231 72.5148 216.231C75.3506 216.231 77.1014 214.813 77.1014 212.57C77.1014 210.722 76.2104 209.997 72.4489 209.106C68.951 208.281 66.3474 207.359 66.3474 204.322C66.3474 201.486 68.9198 199.77 72.1543 199.77C76.0787 199.77 77.8294 201.847 78.2246 204.62H76.6403C76.408 202.443 74.7266 201.188 72.1543 201.188C69.3843 201.188 67.9664 202.509 67.9664 204.288C67.9664 206.267 69.5507 206.829 73.0452 207.654C76.4773 208.444 78.7203 209.37 78.7203 212.601C78.7203 215.371 76.5085 217.614 72.5183 217.614C68.0635 217.614 65.9522 214.976 65.7893 212.039L65.7858 212.043Z" fill="black"/>
<path d="M90.2299 208.843C90.2612 212.934 92.1089 216.199 96.3003 216.199C99.3684 216.199 100.786 214.418 101.48 212.109H103.029C102.336 215.274 100.093 217.617 96.3003 217.617C91.2873 217.617 88.5798 213.922 88.5798 208.677C88.5798 203.431 91.5161 199.77 96.1685 199.77C98.0163 199.77 99.5348 200.363 100.655 201.421C102.534 203.168 103.161 205.608 103.13 208.843H90.2299ZM96.1685 201.157C92.473 201.157 90.594 203.927 90.2646 207.526H101.48C101.379 204.159 99.93 201.157 96.1685 201.157Z" fill="black"/>
<path d="M115.465 203.006H115.531C116.654 201.193 118.564 199.806 121.469 199.806C124.374 199.806 126.68 201.619 126.68 205.016V217.188H125.064V205.179C125.064 202.375 123.546 201.189 121.171 201.189C118.138 201.189 115.465 203.332 115.465 206.171V217.188H113.849V200.135H115.465V203.006Z" fill="black"/>
<path d="M152.046 193.603H153.762V203.927H167.615V193.603H169.331V217.191H167.615V205.38H153.762V217.191H152.046V193.603Z" fill="black"/>
<path d="M192.091 215.142V214.549H191.99C191.033 215.901 189.317 217.617 185.823 217.617C182.689 217.617 180.38 216.002 180.38 212.868C180.38 208.812 183.545 207.987 187.109 207.623C191.134 207.227 192.056 207.03 192.056 205.445V204.853C192.056 202.28 190.538 201.157 187.768 201.157C184.568 201.157 182.852 202.478 182.623 204.984H180.973C181.302 201.684 183.514 199.774 187.768 199.774C191.56 199.774 193.672 201.455 193.672 204.953V214.983C193.672 215.908 194.167 216.172 194.76 216.172C194.993 216.172 195.256 216.106 195.551 216.005H195.651V217.194C195.388 217.326 194.993 217.458 194.33 217.458C193.01 217.458 192.087 216.733 192.087 215.149L192.091 215.142ZM192.056 211.117V207.952C190.867 208.545 189.054 208.777 187.307 208.975C184.304 209.304 182.03 209.699 182.03 212.934C182.03 215.343 183.812 216.265 185.989 216.265C189.848 216.265 192.06 213.693 192.06 211.121L192.056 211.117Z" fill="black"/>
<path d="M203.569 200.135H205.285L209.047 210.955C209.64 212.702 210.596 215.739 210.596 215.739H210.662C210.662 215.739 211.65 212.705 212.278 210.955L216.237 200.135H217.887L211.654 217.188H209.643L203.573 200.135H203.569Z" fill="black"/>
<path d="M228.409 208.843C228.44 212.934 230.288 216.199 234.479 216.199C237.547 216.199 238.965 214.418 239.659 212.109H241.208C240.515 215.274 238.272 217.617 234.479 217.617C229.466 217.617 226.759 213.922 226.759 208.677C226.759 203.431 229.695 199.77 234.347 199.77C236.195 199.77 237.714 200.363 238.833 201.421C240.712 203.168 241.34 205.608 241.309 208.843H228.409ZM234.344 201.157C230.648 201.157 228.769 203.927 228.44 207.526H239.655C239.555 204.159 238.105 201.157 234.344 201.157Z" fill="black"/>
<path d="M253.64 203.006H253.706C254.829 201.193 256.739 199.806 259.644 199.806C262.55 199.806 264.855 201.619 264.855 205.016V217.188H263.239V205.179C263.239 202.375 261.721 201.189 259.346 201.189C256.313 201.189 253.64 203.332 253.64 206.171V217.188H252.024V200.135H253.64V203.006Z" fill="black"/>
<path d="M0.211426 193.603H2.12509L13.0766 210.261C14.4946 212.404 15.8154 214.716 15.8154 214.716H15.8813V193.603H17.5315V217.191H15.7183L4.89851 200.894C3.57767 198.914 1.93095 196.176 1.93095 196.176H1.86508V217.188H0.211426V193.6V193.603Z" fill="#1D1537"/>
<path d="M40.357 217.188V214.581H40.2911C39.1713 216.231 37.6841 217.583 34.817 217.583C31.6831 217.583 29.3395 215.704 29.3395 212.307V200.135H30.9551V212.144C30.9551 214.948 32.5706 216.2 35.1117 216.2C38.114 216.2 40.357 213.922 40.357 210.923V200.135H41.9725V217.191H40.357V217.188Z" fill="#1D1537"/>
<path d="M53.614 193.603H55.2295V217.191H53.614V193.603Z" fill="#1D1537"/>
<path d="M65.7858 212.043H67.436C67.6683 214.847 69.679 216.231 72.5148 216.231C75.3506 216.231 77.1014 214.813 77.1014 212.57C77.1014 210.722 76.2104 209.997 72.4489 209.106C68.951 208.281 66.3474 207.359 66.3474 204.322C66.3474 201.486 68.9198 199.77 72.1543 199.77C76.0787 199.77 77.8294 201.85 78.2246 204.62H76.6403C76.408 202.443 74.7266 201.188 72.1543 201.188C69.3843 201.188 67.9664 202.509 67.9664 204.291C67.9664 206.271 69.5507 206.832 73.0452 207.657C76.4773 208.448 78.7203 209.373 78.7203 212.604C78.7203 215.374 76.5085 217.617 72.5183 217.617C68.0635 217.617 65.9522 214.979 65.7893 212.043H65.7858Z" fill="#1D1537"/>
<path d="M90.2299 208.843C90.2612 212.934 92.1089 216.199 96.3003 216.199C99.3684 216.199 100.786 214.418 101.48 212.109H103.029C102.336 215.274 100.093 217.617 96.3003 217.617C91.2873 217.617 88.5798 213.922 88.5798 208.677C88.5798 203.431 91.5161 199.77 96.1685 199.77C98.0163 199.77 99.5348 200.363 100.655 201.421C102.534 203.168 103.161 205.608 103.13 208.843H90.2299ZM96.1685 201.157C92.473 201.157 90.594 203.927 90.2646 207.522H101.48C101.379 204.156 99.93 201.157 96.1685 201.157Z" fill="#1D1537"/>
<path d="M115.465 203.006H115.531C116.654 201.193 118.564 199.806 121.469 199.806C124.374 199.806 126.68 201.619 126.68 205.016V217.188H125.064V205.179C125.064 202.375 123.546 201.189 121.171 201.189C118.138 201.189 115.465 203.335 115.465 206.171V217.188H113.849V200.132H115.465V203.006Z" fill="#1D1537"/>
<path d="M152.046 193.603H153.762V203.927H167.615V193.603H169.331V217.191H167.615V205.38H153.762V217.191H152.046V193.603Z" fill="#1D1537"/>
<path d="M192.091 215.142V214.549H191.99C191.033 215.901 189.317 217.617 185.823 217.617C182.689 217.617 180.38 216.002 180.38 212.868C180.38 208.812 183.545 207.987 187.109 207.623C191.134 207.227 192.056 207.03 192.056 205.445V204.853C192.056 202.28 190.538 201.157 187.768 201.157C184.568 201.157 182.852 202.478 182.623 204.984H180.973C181.302 201.684 183.514 199.77 187.768 199.77C191.56 199.77 193.672 201.452 193.672 204.95V214.979C193.672 215.905 194.167 216.168 194.76 216.168C194.993 216.168 195.256 216.102 195.551 216.002H195.651V217.191C195.388 217.323 194.993 217.454 194.33 217.454C193.01 217.454 192.087 216.73 192.087 215.146L192.091 215.142ZM192.056 211.117V207.952C190.867 208.545 189.054 208.777 187.307 208.975C184.304 209.304 182.03 209.699 182.03 212.934C182.03 215.343 183.812 216.265 185.989 216.265C189.848 216.265 192.06 213.693 192.06 211.121L192.056 211.117Z" fill="#1D1537"/>
<path d="M203.569 200.135H205.285L209.047 210.955C209.64 212.702 210.596 215.739 210.596 215.739H210.662C210.662 215.739 211.65 212.705 212.278 210.955L216.237 200.135H217.887L211.654 217.191H209.643L203.573 200.135H203.569Z" fill="#1D1537"/>
<path d="M228.409 208.843C228.44 212.934 230.288 216.199 234.479 216.199C237.547 216.199 238.965 214.418 239.659 212.109H241.208C240.515 215.274 238.272 217.617 234.479 217.617C229.466 217.617 226.759 213.922 226.759 208.677C226.759 203.431 229.695 199.77 234.347 199.77C236.195 199.77 237.714 200.363 238.833 201.421C240.712 203.168 241.34 205.608 241.309 208.843H228.409ZM234.344 201.157C230.648 201.157 228.769 203.927 228.44 207.522H239.655C239.555 204.156 238.105 201.157 234.344 201.157Z" fill="#1D1537"/>
<path d="M253.64 203.006H253.706C254.829 201.193 256.739 199.806 259.644 199.806C262.55 199.806 264.855 201.619 264.855 205.016V217.188H263.239V205.179C263.239 202.375 261.721 201.189 259.346 201.189C256.313 201.189 253.64 203.335 253.64 206.171V217.188H252.024V200.132H253.64V203.006Z" fill="#1D1537"/>
<line x1="326.789" y1="162.117" x2="326.789" y2="58.3086" stroke="#8F64AB"/>
<defs>
<clipPath id="clip0_550_2789">
<rect width="214" height="148" fill="white" transform="translate(389.723 35)"/>
</clipPath>
</defs>
</svg>
