<svg width="1440" height="334" viewBox="0 0 1440 334" fill="none" xmlns="http://www.w3.org/2000/svg">
<g filter="url(#filter0_f_537_1344)">
<path d="M1162.87 261.802C1177.41 267.572 1185.21 281.749 1184.64 283.731C1184.07 285.713 1168.29 290.545 1153.75 284.774C1139.22 279.004 1131.24 264.758 1131.98 262.846C1132.72 260.934 1148.33 256.043 1162.87 261.802Z" fill="#8F64AA"/>
</g>
<path d="M300.35 104.601C306.911 118.797 302.801 134.449 301.022 135.493C299.243 136.537 284.474 129.166 277.914 114.969C271.353 100.773 275.389 84.9533 277.242 84.0768C279.095 83.2004 293.776 90.4073 300.35 104.601Z" fill="#8F64AA"/>
<g filter="url(#filter1_f_537_1344)">
<path d="M1172.33 174.936C1163.69 187.978 1148.22 192.706 1146.4 191.741C1144.57 190.776 1143.08 174.337 1151.71 161.295C1160.35 148.254 1175.93 143.375 1177.65 144.491C1179.37 145.607 1180.95 161.885 1172.33 174.936Z" fill="#F48066"/>
</g>
<g filter="url(#filter2_f_537_1344)">
<path d="M1252.68 249.859C1241.81 248.351 1234.13 239.992 1234.19 238.546C1234.24 237.101 1244.19 231.174 1255.06 232.682C1265.93 234.189 1273.74 242.568 1273.56 243.994C1273.37 245.42 1263.55 251.357 1252.68 249.859Z" fill="#F48066"/>
</g>
<path d="M445.943 284.607C443.442 279.744 444.647 274.215 445.253 273.824C445.859 273.433 451.128 275.791 453.629 280.654C456.131 285.517 454.954 291.104 454.32 291.437C453.685 291.771 448.45 289.469 445.943 284.607Z" fill="#F48066"/>
<path d="M738.432 270.728C746.695 273.219 751.652 280.647 751.432 281.763C751.211 282.88 742.76 286.278 734.497 283.788C726.234 281.298 721.18 273.839 721.497 272.753C721.814 271.667 730.165 268.245 738.432 270.728Z" fill="#F48066"/>
<g filter="url(#filter3_f_537_1344)">
<path d="M-61.7852 253.828C-50.1319 215.828 53.0274 101.957 271.907 193.156C545.506 307.156 563.117 378.255 870.157 284.016C1177.2 189.776 1380.88 173.056 1444.71 179.136" stroke="#43324E"/>
</g>
<path d="M887.574 316.001C891.299 308.216 899.398 304.453 900.467 304.842C901.537 305.231 903.602 314.103 899.878 321.888C896.153 329.673 888.009 333.525 886.984 333.046C885.959 332.567 883.855 323.791 887.574 316.001Z" fill="#8F64AA"/>
<g filter="url(#filter4_f_537_1344)">
<path d="M865.104 15.1473C863.911 20.6506 859.837 24.3359 859.2 24.2656C858.562 24.1953 856.419 18.9512 857.613 13.4479C858.806 7.94455 862.895 4.19501 863.517 4.32954C864.14 4.46406 866.294 9.64183 865.104 15.1473Z" fill="#F48066"/>
</g>
<defs>
<filter id="filter0_f_537_1344" x="1127.94" y="255.084" width="60.7344" height="36.4297" filterUnits="userSpaceOnUse" color-interpolation-filters="sRGB">
<feFlood flood-opacity="0" result="BackgroundImageFix"/>
<feBlend mode="normal" in="SourceGraphic" in2="BackgroundImageFix" result="shape"/>
<feGaussianBlur stdDeviation="2" result="effect1_foregroundBlur_537_1344"/>
</filter>
<filter id="filter1_f_537_1344" x="1141" y="140.337" width="42.0039" height="55.5254" filterUnits="userSpaceOnUse" color-interpolation-filters="sRGB">
<feFlood flood-opacity="0" result="BackgroundImageFix"/>
<feBlend mode="normal" in="SourceGraphic" in2="BackgroundImageFix" result="shape"/>
<feGaussianBlur stdDeviation="2" result="effect1_foregroundBlur_537_1344"/>
</filter>
<filter id="filter2_f_537_1344" x="1230.38" y="228.638" width="46.975" height="25.2602" filterUnits="userSpaceOnUse" color-interpolation-filters="sRGB">
<feFlood flood-opacity="0" result="BackgroundImageFix"/>
<feBlend mode="normal" in="SourceGraphic" in2="BackgroundImageFix" result="shape"/>
<feGaussianBlur stdDeviation="1.9" result="effect1_foregroundBlur_537_1344"/>
</filter>
<filter id="filter3_f_537_1344" x="-66.2617" y="154.101" width="1515.02" height="178.11" filterUnits="userSpaceOnUse" color-interpolation-filters="sRGB">
<feFlood flood-opacity="0" result="BackgroundImageFix"/>
<feBlend mode="normal" in="SourceGraphic" in2="BackgroundImageFix" result="shape"/>
<feGaussianBlur stdDeviation="2" result="effect1_foregroundBlur_537_1344"/>
</filter>
<filter id="filter4_f_537_1344" x="853.258" y="0.326172" width="16.1992" height="27.9404" filterUnits="userSpaceOnUse" color-interpolation-filters="sRGB">
<feFlood flood-opacity="0" result="BackgroundImageFix"/>
<feBlend mode="normal" in="SourceGraphic" in2="BackgroundImageFix" result="shape"/>
<feGaussianBlur stdDeviation="2" result="effect1_foregroundBlur_537_1344"/>
</filter>
</defs>
</svg>
