<svg width="214" height="58" viewBox="0 0 214 58" fill="none" xmlns="http://www.w3.org/2000/svg">
<path d="M67.0669 21.4071C69.6616 21.7366 71.5983 23.4743 71.5086 24.0499C71.419 24.6254 69.145 25.8347 66.5503 25.5084C63.9555 25.1821 61.9968 23.3461 62.1085 22.8657C62.2202 22.3853 64.4721 21.0832 67.0669 21.4071Z" fill="#8F64AA"/>
<path d="M39.1543 5.92499C38.2893 3.79099 38.7265 1.57522 39.2746 1.38258C39.8226 1.18993 41.6602 2.42756 42.5235 4.55606C43.3869 6.68455 42.9843 8.82484 42.4032 9.10083C41.8222 9.37682 40.0176 8.05427 39.1543 5.92499Z" fill="#F48066"/>
<path d="M61.1359 24.627C65.4267 26.6218 67.7651 30.834 67.3287 31.625C66.8923 32.416 62.2752 33.3989 57.9844 31.4017C53.6936 29.4045 51.5675 24.9289 51.7908 24.4037C52.0141 23.8784 56.8482 22.633 61.1359 24.627Z" fill="#F48066"/>
<path d="M40.4839 9.50106C44.6182 12.0573 46.2356 16.8199 45.9533 17.3954C45.671 17.971 40.5782 18.5914 36.4439 16.0352C32.3096 13.4789 30.6442 8.68568 30.9744 8.14077C31.3047 7.59587 36.3464 6.94797 40.4839 9.50106Z" fill="#8F64AA"/>
<path d="M40.4839 9.50106C44.6182 12.0573 46.2356 16.8199 45.9533 17.3954C45.671 17.971 40.5782 18.5914 36.4439 16.0352C32.3096 13.4789 30.6442 8.68568 30.9744 8.14077C31.3047 7.59587 36.3464 6.94797 40.4839 9.50106Z" fill="#8F64AA"/>
<path d="M51.4762 8.36172C50.9093 12.4685 47.9536 15.4179 47.2051 15.3456C46.4565 15.2732 44.4224 11.5714 44.9901 7.4622C45.5578 3.35304 48.7085 0.33603 49.2612 0.47599C49.814 0.61595 52.0439 4.2502 51.4762 8.36172Z" fill="#8F64AA"/>
<path d="M48.8776 15.8331C49.6175 13.6433 51.389 12.2712 51.9441 12.452C52.4992 12.6329 53.0724 14.8156 52.3294 17.0054C51.5863 19.1953 49.7118 20.5084 49.2628 20.3865C48.8139 20.2646 48.1369 18.0206 48.8776 15.8331Z" fill="#F48066"/>
<path d="M39.2069 22.6447C42.4559 19.3958 47.3057 18.9908 47.6517 19.3289C47.9977 19.6671 47.5849 24.5279 44.3359 27.7737C41.0869 31.0196 36.3998 31.4835 35.8911 31.0872C35.3824 30.6909 35.9579 25.8969 39.2069 22.6447Z" fill="#F48066"/>
<path d="M56.3253 6.50685C58.8509 3.97892 62.4348 3.40335 62.8956 3.92859C63.3563 4.45384 62.8452 7.97329 60.3173 10.4989C57.7894 13.0244 54.2495 13.5269 53.7439 13.0771C53.2383 12.6274 53.7997 9.03478 56.3253 6.50685Z" fill="#F48066"/>
<path d="M35.4862 18.8344C37.6626 18.019 39.8894 18.6834 40.0734 19.075C40.2574 19.4665 38.9529 21.4574 36.771 22.2736C34.589 23.0898 32.3937 22.5386 32.1837 22.033C31.9738 21.5274 33.3042 19.6497 35.4862 18.8344Z" fill="#8F64AA"/>
<path d="M52.6069 4.90281C52.9364 3.22408 54.0844 2.00297 54.5318 2.12327C54.9792 2.24357 55.5901 3.74618 55.2607 5.4257C54.9312 7.10522 53.8831 8.33498 53.3358 8.2021C52.7886 8.06922 52.2743 6.58155 52.6069 4.89967" fill="#8F64AA"/>
<path d="M47.4001 25.028C48.6464 23.5506 50.4478 22.975 50.822 23.3383C51.1963 23.7015 50.9793 25.5171 49.7354 26.9953C48.4915 28.4735 46.7829 29.1128 46.3134 28.685C45.844 28.2573 46.1562 26.5031 47.4001 25.028Z" fill="#8F64AA"/>
<path d="M69.4132 13.5434C69.0696 12.901 63.5946 11.4062 58.5993 13.6409C53.604 15.8755 51.0737 20.9904 51.3166 21.6328C51.5596 22.2752 57.1352 23.7699 62.1305 21.5353C67.1258 19.3006 69.7568 14.1826 69.4132 13.5434ZM57.9042 20.3653C56.0171 21.4551 54.0907 21.3151 53.6275 20.8488C53.1644 20.3826 54.2982 18.4774 56.1838 17.3852C58.0693 16.2931 60.0838 16.4079 60.4581 16.9048C60.8323 17.4017 59.7874 19.2723 57.9042 20.3653Z" fill="#8F64AA"/>
<path d="M12.1938 55.3907H14.9765V45.4339C15.0662 44.2616 14.8494 43.0861 14.3475 42.0229C13.9978 41.5197 13.5272 41.1125 12.979 40.8387C12.4308 40.5649 11.8225 40.4332 11.2102 40.4558C10.3786 40.4541 9.56113 40.6703 8.83918 41.083C8.11722 41.4956 7.51603 42.0903 7.09551 42.8077C6.27383 44.2183 6.23059 45.9056 6.23059 47.512V55.3899H9.01092V57.0742H0V55.3899H3.09485V40.8435H0V39.1632L6.23216 38.9273V41.791C7.76307 39.5956 9.29084 38.5365 12.0342 38.5365C12.9301 38.5015 13.8237 38.6505 14.6598 38.9744C15.4958 39.2983 16.2566 39.7902 16.8951 40.4197C18.1075 41.7524 18.1075 43.6348 18.1075 45.3584V55.3931H21.1662V57.0773H12.1938V55.3907Z" fill="#535246"/>
<path d="M37.0894 57.0749V54.4487C35.5585 56.5662 34.1479 57.4689 31.5217 57.4689C29.6778 57.4689 27.4849 56.8792 26.27 55.4292C25.0906 54.0579 25.0906 51.7447 25.0906 50.0211V40.8474H21.6443V39.1616L28.268 38.9257V49.823C28.268 52.9186 28.6203 55.5472 32.4251 55.5472C36.5815 55.5472 37.0902 51.7454 37.0902 48.4517V40.8474H33.64V39.1616L40.2244 38.9257V55.3907H43.3192V57.0749H37.0894Z" fill="#535246"/>
<path d="M44.9138 57.0749V55.3876H48.3641V33.6403L45.0483 33.612L45.0286 32.1117L51.5014 30.4912V55.3868H54.9902V57.0742L44.9138 57.0749Z" fill="#535246"/>
<path d="M64.6867 57.4657C62.7434 57.4863 60.8704 56.7395 59.4744 55.3876V57.0718H57.4741V51.6637H59.4744C59.4744 54.3677 61.709 55.857 64.2181 55.857C66.0588 55.857 68.0591 54.9543 68.0591 52.8368C68.0591 48.2527 57.4355 50.7586 57.4355 43.822C57.4355 40.5313 60.0617 38.5286 63.1983 38.5286C64.9333 38.5435 66.6044 39.1859 67.9027 40.3371V38.9265H69.9054V43.4744H67.905V42.295C66.6902 40.9237 65.5918 40.1775 63.7117 40.1775C61.9033 40.1775 60.2229 41.0424 60.2229 43.038C60.2229 47.273 70.9637 44.7679 70.9637 51.9743C70.9637 55.4693 67.9436 57.4665 64.6891 57.4665" fill="#535246"/>
<path d="M89.8505 52.4484C88.1662 54.4456 86.4034 55.8562 83.6568 55.8562C82.3667 55.8601 81.1074 55.4622 80.0537 54.7178C79.0001 53.9734 78.2043 52.9195 77.7769 51.7022C77.4224 50.6284 77.2627 49.4999 77.3052 48.3699H91.0653C91.0985 47.0362 90.9539 45.704 90.6352 44.4085C89.5344 40.5675 86.5984 38.5278 82.637 38.5278C77.1479 38.5278 73.5443 42.7235 73.5443 48.0538C73.5443 53.778 77.5811 57.4626 83.2267 57.4626C84.5651 57.5208 85.9009 57.3 87.1493 56.8144C88.3978 56.3287 89.5316 55.5887 90.4787 54.6413C90.831 54.3268 91.1463 53.9738 91.5009 53.6608L89.8505 52.4484ZM82.523 40.1822C86.3247 40.1822 87.4224 43.476 87.6575 46.6911H77.3846C77.6205 43.5098 78.7598 40.1798 82.523 40.1798V40.1822Z" fill="#535246"/>
<path d="M105.612 55.3907H108.397V45.4339C108.486 44.2616 108.27 43.0861 107.768 42.0229C107.418 41.5203 106.948 41.1134 106.401 40.8397C105.853 40.5659 105.245 40.4339 104.634 40.4558C103.802 40.454 102.984 40.6702 102.261 41.0828C101.539 41.4954 100.937 42.0901 100.516 42.8076C99.6941 44.2183 99.6508 45.9056 99.6508 47.512V55.3899H102.433V57.0741H93.4179V55.3899H96.5128V40.8435H93.4179V39.1632L99.6501 38.9273V41.791C101.178 39.5956 102.709 38.5365 105.452 38.5365C106.348 38.5012 107.242 38.6502 108.078 38.9741C108.914 39.298 109.675 39.79 110.313 40.4197C111.528 41.7524 111.528 43.6348 111.528 45.3584V55.393H114.584V57.0773H105.612V55.3907Z" fill="#535246"/>
<path d="M12.1907 57.1363V55.452H14.9734V45.4991C15.063 44.3268 14.8462 43.1514 14.3443 42.0882C13.9946 41.585 13.524 41.1778 12.9758 40.904C12.4276 40.6301 11.8194 40.4985 11.207 40.5211C10.3754 40.5191 9.55779 40.7351 8.83578 41.1478C8.11378 41.5605 7.51263 42.1553 7.09236 42.8729C6.26832 44.2835 6.22743 45.9709 6.22743 47.5773V55.4575H9.01013V57.1363H0.00235159V55.452H3.0972V40.9056H0.00235159V39.2182L6.23451 38.9823V41.846C7.76542 39.6507 9.29083 38.5916 12.0366 38.5916C12.9325 38.5565 13.8261 38.7055 14.6621 39.0294C15.4982 39.3533 16.259 39.8452 16.8974 40.4747C18.1099 41.8075 18.1099 43.6899 18.1099 45.4134V55.4481H21.1686V57.1363H12.1907Z" fill="#535246"/>
<path d="M37.0894 57.1347V54.5085C35.5585 56.626 34.1479 57.5286 31.5217 57.5286C29.6778 57.5286 27.4825 56.9421 26.27 55.4921C25.0906 54.1208 25.0906 51.8076 25.0906 50.0809V40.9088H21.6443V39.2214L28.268 38.9855V49.8827C28.268 52.9776 28.6203 55.6069 32.4251 55.6069C36.5815 55.6069 37.0902 51.8052 37.0902 48.5114V40.9072H33.64V39.2198L40.2267 38.9839V55.4489H43.3216V57.1347H37.0894Z" fill="#535246"/>
<path d="M44.9138 57.1363V55.4552H48.3641V33.7016L45.0483 33.6733L45.0286 32.173L51.5014 30.5525V55.4552H54.9878V57.1394L44.9138 57.1363Z" fill="#535246"/>
<path d="M130.746 4.35248L130.746 53.6475" stroke="#D5D3BB" stroke-width="0.621623" stroke-linecap="round"/>
<path d="M168.883 1.56306C161.688 5.46996 154.014 8.3947 147.101 9.87727C146.964 9.62552 146.909 9.28673 146.909 8.80808V3.16996C146.909 1.92982 147.272 1.56306 148.515 1.56306H168.883Z" fill="#F48066"/>
<path d="M155.313 30.5183C158.113 31.7708 160.948 33.241 163.751 34.8914L160.336 41.5179C159.745 42.7114 158.971 43.1217 157.715 43.1217H151.247C150.007 43.1217 149.106 42.5871 149.641 41.5179L155.31 30.5183H155.313Z" fill="#8E64AA"/>
<path d="M168.93 24.8615L164 34.4159C161.2 32.7654 158.365 31.2953 155.562 30.0427L158.054 25.191C161.482 24.8366 165.159 24.7247 168.926 24.8615" fill="#A482BC"/>
<path d="M177.014 2.69131V7.67984C177.014 8.74903 176.718 9.76227 176.24 10.7102L169.191 24.3518C165.445 24.2026 161.79 24.2834 158.353 24.6253L165.672 10.415H148.515C148.174 10.415 147.9 10.3932 147.686 10.3124C154.788 8.72727 162.654 5.65334 169.965 1.56306H175.761C176.659 1.56306 177.014 1.92671 177.014 2.69131Z" fill="#F79D84"/>
<path d="M213.652 20.535C210.044 19.0431 206.5 17.2777 203.131 15.332C203.7 17.4145 203.905 19.8636 203.905 22.3564C203.905 26.1141 203.439 29.7692 201.938 32.2277C204.828 33.7196 207.436 35.426 209.658 37.3406C212.378 33.4461 213.699 28.1623 213.699 22.3564C213.699 21.741 213.686 21.138 213.652 20.535Z" fill="#96C374"/>
<path d="M196.539 0.801575C193.076 0.801575 190.152 1.65631 187.758 3.18239C189.943 5.3674 192.483 7.52132 195.274 9.56957C195.672 9.50119 196.094 9.467 196.539 9.467C199.955 9.467 201.879 11.5525 202.892 14.5799C206.32 16.5846 209.929 18.4059 213.615 19.9662C212.925 9.24943 207.436 0.801575 196.539 0.801575Z" fill="#74B34B"/>
<path d="M194.571 9.72808C191.874 7.72335 189.403 5.61605 187.274 3.49942C181.934 7.18875 179.382 14.2815 179.382 22.3564C179.382 23.3696 179.429 24.3704 179.506 25.3495C182.91 25.8716 186.304 26.5803 189.561 27.491C189.288 25.8872 189.185 24.1311 189.185 22.3564C189.185 16.5597 190.288 11.0055 194.571 9.72808Z" fill="#8AD2CF"/>
<path d="M201.652 32.6722C200.524 34.2542 198.886 35.2333 196.539 35.2333C192.396 35.2333 190.447 32.1469 189.664 28.0473C186.385 27.1273 182.981 26.3969 179.553 25.8747C180.554 36.029 186.03 43.8987 196.539 43.8987C202.267 43.8987 206.5 41.5552 209.338 37.785C207.141 35.8704 204.545 34.1641 201.652 32.6722Z" fill="#61C6C1"/>
<path d="M201.894 49.369C202.659 49.369 203.315 49.5617 204.154 50.0745C204.275 50.146 204.346 50.1336 204.434 49.9906L204.751 49.456C204.834 49.3099 204.813 49.2509 204.704 49.1763C203.681 48.5702 202.976 48.3744 201.848 48.3744C200.119 48.3744 198.749 49.2851 198.749 50.8889C198.749 52.9433 200.474 53.0645 201.969 53.3194C203.038 53.5028 204.023 53.7204 204.023 54.6932C204.023 55.579 203.196 56.2006 201.872 56.2006C201.008 56.2006 200.123 55.8836 199.271 55.3148C199.137 55.2185 199.078 55.2558 198.991 55.3987L198.64 55.9706C198.556 56.1167 198.569 56.1633 198.687 56.2504C199.585 56.8844 200.704 57.1983 201.931 57.1983C203.84 57.1983 205.077 56.1758 205.077 54.6466C205.077 52.6791 203.399 52.4118 201.966 52.2036C200.797 52.0327 199.802 51.899 199.802 50.892C199.802 49.7762 200.726 49.3721 201.891 49.3721M189.499 52.8687V49.5275H191.625C193.216 49.5275 193.63 50.2797 193.63 51.1686C193.63 52.0575 193.216 52.8687 191.625 52.8687H189.499ZM191.236 53.8633L193.35 56.8285C193.446 56.9621 193.543 57.0336 193.701 57.0336H194.453C194.624 57.0336 194.708 56.9621 194.587 56.7912L192.461 53.8043C193.651 53.5991 194.686 52.8439 194.686 51.2028C194.686 49.2322 193.204 48.5298 191.734 48.5298H188.647C188.501 48.5298 188.455 48.5764 188.455 48.7349V56.8285C188.455 56.987 188.501 57.0336 188.647 57.0336H189.291C189.449 57.0336 189.496 56.987 189.496 56.8285V53.8633H191.236ZM180.398 50.6091L181.99 53.9379H178.782L180.386 50.6091H180.398ZM180.582 48.5298C180.532 48.4335 180.498 48.4086 180.423 48.4086H180.352C180.28 48.4086 180.243 48.4335 180.193 48.5298L176.23 56.8285C176.171 56.9497 176.209 57.0336 176.33 57.0336H177.095C177.265 57.0336 177.337 56.987 177.412 56.8285L178.285 54.9823H182.487L183.36 56.8285C183.435 56.987 183.519 57.0336 183.678 57.0336H184.445C184.566 57.0336 184.604 56.9497 184.542 56.8285L180.579 48.5298H180.582ZM172.488 57.0367C172.634 57.0367 172.681 56.9901 172.681 56.8316V56.2473C172.681 56.0887 172.631 56.0421 172.488 56.0421H167.845V53.2355H172.196C172.355 53.2355 172.392 53.1982 172.392 53.0428V52.446C172.392 52.2875 172.355 52.2409 172.196 52.2409H167.845V49.5306H172.426C172.572 49.5306 172.619 49.4809 172.619 49.3255V48.7412C172.619 48.5826 172.572 48.536 172.426 48.536H167.009C166.85 48.536 166.804 48.5826 166.804 48.7412V56.8347C166.804 56.9932 166.85 57.0398 167.009 57.0398H172.488V57.0367ZM155.571 48.7349L158.729 53.7173V56.8285C158.729 56.987 158.778 57.0336 158.934 57.0336H159.568C159.726 57.0336 159.773 56.987 159.773 56.8285V53.7173L162.931 48.7349C163.027 48.5764 162.943 48.5298 162.81 48.5298H162.02C161.862 48.5298 161.765 48.5889 161.691 48.7008L159.248 52.5641L156.805 48.7008C156.73 48.592 156.634 48.5298 156.475 48.5298H155.686C155.552 48.5298 155.468 48.5764 155.565 48.7349" fill="black"/>
</svg>
