<svg width="120" height="60" viewBox="0 0 120 60" fill="none" xmlns="http://www.w3.org/2000/svg">
<path d="M70.1878 22.4153C72.8847 22.7578 74.8976 24.5639 74.8044 25.1621C74.7113 25.7603 72.3478 27.0173 69.6508 26.6781C66.9539 26.3389 64.9182 24.4307 65.0342 23.9313C65.1503 23.432 67.4909 22.0786 70.1878 22.4153Z" fill="#E7E5CC"/>
<path d="M41.1762 6.32366C40.2773 4.10565 40.7317 1.80264 41.3013 1.60241C41.8709 1.40219 43.7808 2.68854 44.6782 4.90083C45.5755 7.11313 45.1571 9.33768 44.5531 9.62454C43.9492 9.91139 42.0736 8.53678 41.1762 6.32366Z" fill="#E7E5CC"/>
<path d="M64.0233 25.762C68.483 27.8353 70.9135 32.2133 70.4599 33.0355C70.0064 33.8577 65.2075 34.8792 60.7477 32.8034C56.288 30.7276 54.0782 26.0758 54.3103 25.5299C54.5424 24.9839 59.5668 23.6894 64.0233 25.762Z" fill="#E7E5CC"/>
<path d="M42.5582 10.0405C46.8553 12.6974 48.5364 17.6475 48.243 18.2457C47.9496 18.8439 42.6563 19.4888 38.3592 16.8319C34.0621 14.175 32.3311 9.19304 32.6744 8.62668C33.0176 8.06033 38.2578 7.38692 42.5582 10.0405Z" fill="#E7E5CC"/>
<path d="M42.5582 10.0405C46.8553 12.6974 48.5364 17.6475 48.243 18.2457C47.9496 18.8439 42.6563 19.4888 38.3592 16.8319C34.0621 14.175 32.3311 9.19304 32.6744 8.62668C33.0176 8.06033 38.2578 7.38692 42.5582 10.0405Z" fill="#E7E5CC"/>
<path d="M53.9834 8.85633C53.3941 13.1248 50.3221 16.1903 49.544 16.1151C48.766 16.04 46.6518 12.1923 47.2419 7.9214C47.8319 3.65045 51.1066 0.514664 51.6812 0.660134C52.2557 0.805604 54.5734 4.58293 53.9834 8.85633Z" fill="#E7E5CC"/>
<path d="M51.2824 16.6218C52.0514 14.3458 53.8927 12.9197 54.4696 13.1077C55.0466 13.2956 55.6424 15.5643 54.8701 17.8404C54.0978 20.1164 52.1495 21.4812 51.6828 21.3545C51.2162 21.2279 50.5125 18.8954 51.2824 16.6218Z" fill="#E7E5CC"/>
<path d="M41.231 23.7017C44.6078 20.3248 49.6486 19.9039 50.0082 20.2553C50.3678 20.6068 49.9388 25.659 46.5619 29.0326C43.185 32.4062 38.3134 32.8884 37.7846 32.4765C37.2559 32.0646 37.8541 27.0818 41.231 23.7017Z" fill="#E7E5CC"/>
<path d="M59.0233 6.92843C61.6483 4.30097 65.3734 3.70275 65.8523 4.24867C66.3312 4.79459 65.8 8.4526 63.1725 11.0776C60.545 13.7026 56.8658 14.2248 56.3403 13.7574C55.8148 13.2899 56.3983 9.55589 59.0233 6.92843Z" fill="#E7E5CC"/>
<path d="M37.3637 19.7413C39.6259 18.8938 41.9403 19.5844 42.1316 19.9914C42.3228 20.3983 40.967 22.4676 38.6991 23.3159C36.4313 24.1642 34.1495 23.5913 33.9313 23.0658C33.7131 22.5404 35.0959 20.5888 37.3637 19.7413Z" fill="#E7E5CC"/>
<path d="M55.1586 5.26124C55.501 3.51642 56.6942 2.24723 57.1592 2.37227C57.6242 2.49731 58.2592 4.05907 57.9168 5.80472C57.5744 7.55036 56.485 8.82854 55.9161 8.69042C55.3473 8.55231 54.8129 7.00607 55.1586 5.25798" fill="#E7E5CC"/>
<path d="M49.7467 26.1788C51.0421 24.6432 52.9144 24.0449 53.3034 24.4225C53.6924 24.8001 53.4668 26.6871 52.174 28.2235C50.8811 29.76 49.1052 30.4244 48.6173 29.9798C48.1294 29.5352 48.4538 27.7119 49.7467 26.1788Z" fill="#E7E5CC"/>
<path d="M72.6265 14.242C72.2693 13.5743 66.5788 12.0207 61.3868 14.3433C56.1948 16.666 53.5649 21.9822 53.8174 22.6499C54.07 23.3176 59.8651 24.8712 65.0571 22.5485C70.2491 20.2259 72.9836 14.9064 72.6265 14.242ZM60.6644 21.3325C58.703 22.4652 56.7007 22.3197 56.2193 21.8351C55.738 21.3504 56.9165 19.3702 58.8762 18.2351C60.836 17.0999 62.9298 17.2192 63.3188 17.7357C63.7078 18.2522 62.6217 20.1965 60.6644 21.3325Z" fill="#E7E5CC"/>
<path d="M13.1544 57.7369H16.0466V47.388C16.1398 46.1696 15.9145 44.9479 15.3928 43.8428C15.0293 43.3198 14.5402 42.8965 13.9704 42.6119C13.4007 42.3273 12.7685 42.1905 12.132 42.214C11.2677 42.2122 10.418 42.4369 9.66765 42.8658C8.91727 43.2947 8.29241 43.9128 7.85533 44.6584C7.00131 46.1246 6.95636 47.8784 6.95636 49.548V57.736H9.84615V59.4866H0.480469V57.736H3.69716V42.6169H0.480469V40.8705L6.95799 40.6253V43.6017C8.54918 41.3199 10.1371 40.2191 12.9885 40.2191C13.9197 40.1827 14.8484 40.3376 15.7174 40.6742C16.5864 41.0109 17.3771 41.5222 18.0407 42.1764C19.3009 43.5617 19.3009 45.5182 19.3009 47.3096V57.7393H22.48V59.4899H13.1544V57.7369Z" fill="#E7E5CC"/>
<path d="M39.0301 59.4874V56.7578C37.4389 58.9586 35.9728 59.8968 33.2432 59.8968C31.3267 59.8968 29.0474 59.2839 27.7848 57.7769C26.5589 56.3516 26.5589 53.9473 26.5589 52.1559V42.621H22.9769V40.8688L29.8614 40.6236V51.9499C29.8614 55.1674 30.2275 57.8995 34.1822 57.8995C38.5022 57.8995 39.0309 53.9481 39.0309 50.5246V42.621H35.4449V40.8688L42.2885 40.6236V57.7369H45.5052V59.4874H39.0301Z" fill="#E7E5CC"/>
<path d="M47.1626 59.4874V57.7336H50.7487V35.1301L47.3023 35.1007L47.2819 33.5414L54.0095 31.857V57.7328H57.6356V59.4866L47.1626 59.4874Z" fill="#E7E5CC"/>
<path d="M67.7139 59.8936C65.6941 59.915 63.7474 59.1388 62.2964 57.7336V59.4841H60.2173V53.8631H62.2964C62.2964 56.6736 64.619 58.2215 67.2269 58.2215C69.14 58.2215 71.2191 57.2833 71.2191 55.0824C71.2191 50.3179 60.1773 52.9224 60.1773 45.7127C60.1773 42.2925 62.9069 40.2109 66.1669 40.2109C67.9703 40.2264 69.7071 40.8941 71.0565 42.0906V40.6245H73.138V45.3514H71.0589V44.1256C69.7963 42.7003 68.6546 41.9247 66.7006 41.9247C64.8209 41.9247 63.0744 42.8237 63.0744 44.8979C63.0744 49.2996 74.238 46.6958 74.238 54.1859C74.238 57.8186 71.099 59.8944 67.7164 59.8944" fill="#E7E5CC"/>
<path d="M93.8684 54.6787C92.1178 56.7545 90.2856 58.2207 87.4309 58.2207C86.09 58.2247 84.7811 57.8112 83.686 57.0375C82.5908 56.2638 81.7637 55.1683 81.3195 53.9031C80.951 52.7871 80.785 51.6141 80.8292 50.4396H95.131C95.1656 49.0534 95.0152 47.6688 94.684 46.3223C93.5399 42.3301 90.4882 40.2101 86.3709 40.2101C80.6657 40.2101 76.9203 44.571 76.9203 50.1111C76.9203 56.0607 81.116 59.8903 86.9839 59.8903C88.3749 59.9508 89.7633 59.7214 91.0609 59.2166C92.3585 58.7118 93.5369 57.9426 94.5214 56.958C94.8875 56.6311 95.2152 56.2642 95.5838 55.9389L93.8684 54.6787ZM86.2524 41.9296C90.2038 41.9296 91.3447 45.3531 91.5891 48.6948H80.9117C81.1569 45.3882 82.3411 41.9271 86.2524 41.9271V41.9296Z" fill="#E7E5CC"/>
<path d="M110.25 57.7368H113.145V47.388C113.238 46.1696 113.013 44.9478 112.491 43.8428C112.128 43.3204 111.639 42.8975 111.07 42.6129C110.501 42.3284 109.869 42.1912 109.234 42.214C108.369 42.2121 107.519 42.4368 106.768 42.8656C106.017 43.2945 105.391 43.9126 104.954 44.6584C104.1 46.1245 104.055 47.8784 104.055 49.548V57.736H106.946V59.4866H97.5763V57.736H100.793V42.6169H97.5763V40.8704L104.054 40.6253V43.6017C105.642 41.3199 107.233 40.2191 110.084 40.2191C111.015 40.1824 111.944 40.3372 112.813 40.6739C113.682 41.0106 114.473 41.5219 115.137 42.1764C116.399 43.5616 116.399 45.5182 116.399 47.3096V57.7393H119.576V59.4898H110.25V57.7368Z" fill="#E7E5CC"/>
<path d="M13.1511 59.5512V57.8006H16.0433V47.4559C16.1365 46.2374 15.9112 45.0157 15.3895 43.9106C15.0261 43.3876 14.5369 42.9644 13.9672 42.6798C13.3974 42.3952 12.7652 42.2583 12.1287 42.2819C11.2644 42.2797 10.4146 42.5043 9.66412 42.9332C8.91369 43.3621 8.28888 43.9804 7.85205 44.7262C6.99558 46.1924 6.95308 47.9462 6.95308 49.6159V57.8063H9.84533V59.5512H0.482913V57.8006H3.69961V42.6815H0.482913V40.9277L6.96043 40.6825V43.6589C8.55162 41.3772 10.1371 40.2763 12.9909 40.2763C13.9221 40.2399 14.8509 40.3948 15.7199 40.7315C16.5888 41.0681 17.3795 41.5794 18.0432 42.2336C19.3034 43.6189 19.3034 45.5754 19.3034 47.3668V57.7965H22.4825V59.5512H13.1511Z" fill="#E7E5CC"/>
<path d="M39.0301 59.5495V56.8199C37.4389 59.0208 35.9728 59.959 33.2432 59.959C31.3267 59.959 29.045 59.3493 27.7848 57.8423C26.5589 56.417 26.5589 54.0127 26.5589 52.218V42.6848H22.9769V40.9309L29.8614 40.6858V52.012C29.8614 55.2287 30.2275 57.9616 34.1822 57.9616C38.5022 57.9616 39.0309 54.0102 39.0309 50.5867V42.6831H35.4449V40.9293L42.2909 40.6841V57.7973H45.5076V59.5495H39.0301Z" fill="#E7E5CC"/>
<path d="M47.1626 59.5512V57.8039H50.7487V35.1939L47.3023 35.1644L47.2819 33.6051L54.0095 31.9208V57.8039H57.6332V59.5544L47.1626 59.5512Z" fill="#E7E5CC"/>
</svg>
