<svg width="572" height="396" viewBox="0 0 572 396" fill="none" xmlns="http://www.w3.org/2000/svg">
<g clip-path="url(#clip0_550_3398)">
<path d="M335 105.381C347.932 107.039 357.579 115.776 357.134 118.67C356.688 121.549 345.357 127.646 332.424 126.002C319.478 124.359 309.733 115.13 310.29 112.714C310.833 110.284 322.067 103.724 335 105.367" fill="#F48066"/>
<path d="M195.903 27.5218C191.601 16.7901 193.773 5.65104 196.502 4.68182C199.23 3.71259 208.39 9.9353 212.692 20.6389C216.993 31.3706 214.988 42.1023 212.093 43.493C209.211 44.8836 200.205 38.2395 195.903 27.5218Z" fill="#62C6C0"/>
<path d="M305.461 121.564C326.844 131.594 338.495 152.776 336.324 156.751C334.152 160.726 311.141 165.671 289.758 155.627C268.376 145.626 257.782 123.081 258.896 120.44C260.01 117.8 284.079 111.521 305.461 121.55" fill="#75B34B"/>
<path d="M202.529 45.5153C223.131 58.3681 231.192 82.3178 229.786 85.2114C228.38 88.105 203.002 91.2234 182.399 78.3706C161.782 65.5179 153.499 41.4136 155.142 38.6745C156.785 35.9354 181.912 32.6625 202.529 45.5153Z" fill="#B9D548"/>
<path d="M257.309 39.7698C254.483 60.4185 239.755 75.2519 236.024 74.8866C232.279 74.5074 222.159 55.8954 224.985 35.2467C227.824 14.598 243.513 -0.57247 246.27 0.129867C249.04 0.846251 260.135 19.1211 257.309 39.7698Z" fill="#F48066"/>
<path d="M244.364 77.3459C248.053 66.3333 256.878 59.4363 259.663 60.3494C262.461 61.2624 265.287 72.2329 261.584 83.2456C257.895 94.2582 248.54 100.86 246.285 100.242C244.029 99.61 240.661 88.3586 244.364 77.36" fill="#62C6C0"/>
<path d="M196.168 111.605C212.358 95.2686 236.538 93.2319 238.25 94.9315C239.963 96.6452 237.916 121.073 221.726 137.395C205.55 153.717 182.177 156.049 179.644 154.054C177.124 152.074 179.978 127.927 196.154 111.591" fill="#62C6C0"/>
<path d="M281.475 30.4575C294.059 17.7452 311.92 14.8515 314.217 17.4923C316.527 20.1331 313.966 37.832 301.368 50.5303C288.769 63.2426 271.132 65.757 268.612 63.4954C266.106 61.2479 268.876 43.1698 281.475 30.4575Z" fill="#75B34B"/>
<path d="M177.612 92.4316C188.456 88.3299 199.565 91.673 200.47 93.6396C201.375 95.6342 194.887 105.621 184.029 109.723C173.185 113.825 162.215 111.058 161.171 108.515C160.127 105.959 166.753 96.5332 177.612 92.4316Z" fill="#75B34B"/>
<path d="M262.96 22.3954C264.602 13.9533 270.324 7.81491 272.551 8.41892C274.778 9.02293 277.827 16.5801 276.184 25.0222C274.542 33.4643 269.321 39.6448 266.593 38.9846C263.864 38.3525 261.303 30.8375 262.96 22.4095" fill="#8F64AA"/>
<path d="M236.999 123.559C243.207 116.128 252.186 113.234 254.052 115.061C255.931 116.887 254.817 126.017 248.636 133.448C242.414 140.878 233.922 144.095 231.583 141.946C229.259 139.811 230.79 130.99 236.999 123.559Z" fill="#B9D548"/>
<path d="M289.341 100.129C279.931 105.608 270.339 104.905 268.029 102.56C265.732 100.214 271.37 90.6338 280.766 85.1415C290.177 79.6774 300.2 80.2252 302.065 82.7255C303.944 85.2399 298.724 94.6512 289.341 100.143M346.709 65.8273C344.997 62.5965 317.726 55.0815 292.822 66.3189C267.917 77.5422 255.319 103.276 256.53 106.507C257.741 109.723 285.513 117.252 310.418 106.015C335.308 94.7916 348.421 69.058 346.709 65.8413" fill="#8F64AA"/>
<path d="M61.5533 284.717V276.246H75.4184V226.184C75.4184 220.86 75.2235 213.752 72.2862 209.033C68.9731 203.709 62.7226 201.152 56.6531 201.152C48.2589 201.152 40.2544 205.69 36.1477 212.98C32.055 220.073 31.8462 228.558 31.8462 236.635V276.246H45.7113V284.717H0.802734V276.246H16.227V203.119H0.802734V194.649L31.8601 193.455V207.853C39.4887 196.812 47.1034 191.488 60.7737 191.488C69.5577 191.488 78.9404 194.255 84.9959 200.956C91.0376 207.656 91.0376 217.124 91.0376 225.79V276.246H106.281V284.717H61.5533Z" fill="#535246"/>
<path d="M185.63 284.717V271.513C178.001 282.16 170.971 286.697 157.885 286.697C148.698 286.697 137.77 283.733 131.714 276.443C125.854 269.546 125.854 257.916 125.854 249.249V203.119H108.661V194.649L141.668 193.455V248.251C141.668 263.815 143.422 277.033 162.382 277.033C183.096 277.033 185.63 257.916 185.63 241.354V203.119H168.437V194.649L201.249 193.455V276.247H216.673V284.717H185.616H185.63Z" fill="#535246"/>
<path d="M224.623 284.718V276.247H241.815V166.88L225.291 166.739L225.194 159.21L257.434 151.049V276.247H274.822V284.718H224.623Z" fill="#535246"/>
<path d="M323.139 286.697C312.587 286.697 304.972 283.144 297.162 276.247V284.717H287.195V257.522H297.162C297.162 271.12 308.299 278.607 320.8 278.607C329.974 278.607 339.941 274.069 339.941 263.422C339.941 240.371 287 252.971 287 218.093C287 201.546 300.086 191.475 315.719 191.475C325.296 191.475 331.742 194.832 339.161 200.549V193.455H349.129V216.323H339.161V210.41C333.106 203.513 327.635 199.762 318.266 199.762C308.897 199.762 300.879 204.103 300.879 214.146C300.879 235.441 354.405 222.827 354.405 259.082C354.405 276.626 339.356 286.683 323.152 286.683" fill="#535246"/>
<path d="M448.552 261.47C440.158 271.513 431.374 278.607 417.69 278.607C404.006 278.607 392.883 270.333 388.387 257.719C386.424 252.395 386.048 246.678 386.048 240.961H454.622C454.622 234.261 454.232 227.561 452.478 221.043C447.007 201.729 432.362 191.475 412.623 191.475C385.268 191.475 367.31 212.573 367.31 239.374C367.31 268.156 387.426 286.683 415.56 286.683C430.4 286.683 440.757 282.736 451.698 272.496C453.452 270.923 455.026 269.139 456.78 267.566L448.566 261.455L448.552 261.47ZM412.024 199.762C430.97 199.762 436.441 216.323 437.611 232.491H386.424C387.593 216.52 393.259 199.762 412.01 199.762H412.024Z" fill="#535246"/>
<path d="M527.081 284.717V276.246H540.946V226.184C540.946 220.86 540.751 213.752 537.814 209.033C534.487 203.709 528.25 201.152 522.195 201.152C513.8 201.152 505.782 205.69 501.675 212.98C497.583 220.073 497.374 228.558 497.374 236.635V276.246H511.239V284.717H466.316V276.246H481.741V203.119H466.316V194.649L497.374 193.455V207.853C504.988 196.812 512.617 191.488 526.287 191.488C535.085 191.488 544.454 194.255 550.51 200.956C556.565 207.656 556.565 217.124 556.565 225.79V276.246H571.795V284.717H527.067H527.081Z" fill="#535246"/>
<path d="M119.266 336.374C119.266 335.947 119.394 335.819 119.821 335.819H121.187C121.571 335.819 121.699 335.947 121.699 336.374V367.412C121.699 367.839 121.571 367.967 121.187 367.967H120.376C119.949 367.967 119.778 367.839 119.778 367.412L119.607 363.014C118.54 364.978 116.021 368.436 110.599 368.436C104.579 368.436 100.182 363.228 100.182 356.995C100.182 350.762 104.579 345.468 110.599 345.468C115.594 345.468 118.07 348.84 119.266 350.633V336.374ZM111.026 366.088C115.85 366.088 119.308 361.691 119.308 356.952C119.308 352.213 115.85 347.858 111.026 347.858C106.116 347.858 102.658 351.914 102.658 356.995C102.658 362.032 106.116 366.088 111.026 366.088ZM129.693 337.612C129.693 336.502 130.504 335.606 131.657 335.606C132.725 335.606 133.621 336.502 133.621 337.612C133.621 338.679 132.725 339.576 131.657 339.576C130.504 339.576 129.693 338.679 129.693 337.612ZM130.419 367.412V346.492C130.419 346.108 130.59 345.937 130.974 345.937H132.34C132.767 345.937 132.895 346.108 132.895 346.492V367.412C132.895 367.839 132.767 367.967 132.34 367.967H130.974C130.59 367.967 130.419 367.839 130.419 367.412ZM148.766 366.088C153.292 366.088 154.957 364.167 154.957 361.904C154.957 359.343 152.865 358.66 148.553 358.062C144.454 357.507 140.313 356.696 140.313 352.085C140.313 348.157 143.387 345.468 148.382 345.468C150.858 345.468 153.676 346.108 156.323 347.688C156.75 347.986 156.707 348.2 156.536 348.499L155.896 349.694C155.725 349.993 155.512 350.164 155.127 349.908C152.779 348.456 150.645 347.858 148.382 347.858C144.539 347.858 142.746 349.395 142.746 351.957C142.746 354.604 144.838 355.159 149.065 355.714C153.163 356.312 157.39 357.208 157.39 361.776C157.39 365.576 154.359 368.436 148.723 368.436C146.333 368.436 143.045 367.839 139.886 365.789C139.587 365.576 139.544 365.363 139.758 365.021L140.484 363.74C140.654 363.441 140.868 363.313 141.209 363.569C143.643 365.192 145.948 366.088 148.766 366.088ZM178.616 363.484C177.25 366.729 174.261 368.436 170.291 368.436C165.509 368.436 162.393 365.918 162.393 361.477C162.393 356.909 165.936 354.647 171.017 354.647C173.621 354.647 176.14 355.116 178.445 355.842C178.445 349.31 177.122 347.858 171.871 347.858C169.181 347.858 167.046 348.243 165.381 348.627C164.912 348.712 164.784 348.541 164.656 348.115L164.399 347.005C164.314 346.62 164.399 346.407 164.869 346.279C165.723 346.023 169.053 345.468 172.17 345.468C179.342 345.468 180.922 348.371 180.922 355.799V367.412C180.922 367.839 180.794 367.967 180.367 367.967H179.427C179.086 367.967 178.915 367.839 178.872 367.412L178.616 363.484ZM171.23 356.867C167.303 356.867 164.869 358.404 164.869 361.477C164.869 364.509 166.961 366.088 170.547 366.088C176.012 366.088 178.445 362.459 178.445 358.66V358.105C176.183 357.464 174.176 356.867 171.23 356.867ZM191.598 336.374V350.633C192.794 348.84 195.27 345.468 200.265 345.468C206.285 345.468 210.682 350.762 210.682 356.995C210.682 363.228 206.285 368.436 200.265 368.436C194.843 368.436 192.239 364.893 191.214 362.929L191.086 367.412C191.086 367.839 190.915 367.967 190.488 367.967H189.677C189.293 367.967 189.165 367.839 189.165 367.412V336.374C189.165 335.947 189.293 335.819 189.677 335.819H191.043C191.47 335.819 191.598 335.947 191.598 336.374ZM199.838 366.088C204.748 366.088 208.206 362.032 208.206 356.995C208.206 351.914 204.748 347.858 199.838 347.858C195.014 347.858 191.598 352.213 191.598 356.952C191.598 361.691 195.014 366.088 199.838 366.088ZM216.413 337.612C216.413 336.502 217.225 335.606 218.377 335.606C219.445 335.606 220.341 336.502 220.341 337.612C220.341 338.679 219.445 339.576 218.377 339.576C217.225 339.576 216.413 338.679 216.413 337.612ZM217.139 367.412V346.492C217.139 346.108 217.31 345.937 217.694 345.937H219.06C219.487 345.937 219.615 346.108 219.615 346.492V367.412C219.615 367.839 219.487 367.967 219.06 367.967H217.694C217.31 367.967 217.139 367.839 217.139 367.412ZM228.271 367.412V336.374C228.271 335.947 228.399 335.819 228.826 335.819H230.192C230.619 335.819 230.747 335.947 230.747 336.374V367.412C230.747 367.839 230.619 367.967 230.192 367.967H228.826C228.399 367.967 228.271 367.839 228.271 367.412ZM238.677 337.612C238.677 336.502 239.488 335.606 240.641 335.606C241.708 335.606 242.605 336.502 242.605 337.612C242.605 338.679 241.708 339.576 240.641 339.576C239.488 339.576 238.677 338.679 238.677 337.612ZM239.403 367.412V346.492C239.403 346.108 239.574 345.937 239.958 345.937H241.324C241.751 345.937 241.879 346.108 241.879 346.492V367.412C241.879 367.839 241.751 367.967 241.324 367.967H239.958C239.574 367.967 239.403 367.839 239.403 367.412ZM250.876 345.937V341.497C250.876 341.07 251.004 340.942 251.431 340.942H252.755C253.139 340.942 253.31 341.07 253.31 341.497V345.937H260.824C261.208 345.937 261.379 346.065 261.379 346.492V347.645C261.379 348.072 261.208 348.2 260.824 348.2H253.31V361.264C253.31 364.466 254.505 366.088 257.238 366.088C258.646 366.088 259.586 365.789 260.738 365.363C261.037 365.192 261.165 365.277 261.293 365.576L261.848 366.857C261.977 367.198 261.848 367.412 261.592 367.54C260.269 368.138 258.817 368.436 257.238 368.436C253.011 368.436 250.834 365.918 250.834 361.264V348.2H248.229C247.802 348.2 247.717 348.072 247.717 347.645V346.492C247.717 346.065 247.802 345.937 248.229 345.937H250.876ZM275.214 363.868L282.899 346.492C283.112 346.065 283.411 345.937 283.795 345.937H285.332C285.674 345.937 285.802 346.193 285.674 346.492L272.695 375.609C272.482 376.078 272.226 376.164 271.884 376.164H270.262C269.92 376.164 269.792 375.993 269.963 375.609L273.805 366.985L264.712 346.492C264.541 346.193 264.669 345.937 265.01 345.937H266.547C266.932 345.937 267.23 346.023 267.444 346.492L275.129 363.868H275.214ZM306.572 366.088C311.097 366.088 312.762 364.167 312.762 361.904C312.762 359.343 310.67 358.66 306.358 358.062C302.26 357.507 298.119 356.696 298.119 352.085C298.119 348.157 301.192 345.468 306.187 345.468C308.664 345.468 311.481 346.108 314.128 347.688C314.555 347.986 314.513 348.2 314.342 348.499L313.701 349.694C313.531 349.993 313.317 350.164 312.933 349.908C310.585 348.456 308.45 347.858 306.187 347.858C302.345 347.858 300.552 349.395 300.552 351.957C300.552 354.604 302.644 355.159 306.871 355.714C310.969 356.312 315.196 357.208 315.196 361.776C315.196 365.576 312.165 368.436 306.529 368.436C304.138 368.436 300.851 367.839 297.692 365.789C297.393 365.576 297.35 365.363 297.564 365.021L298.289 363.74C298.46 363.441 298.674 363.313 299.015 363.569C301.449 365.192 303.754 366.088 306.572 366.088ZM340.998 357.08V357.592C340.998 357.977 340.913 358.147 340.486 358.147H322.17C322.683 362.63 326.312 366.088 330.922 366.088C334.167 366.088 335.661 365.234 337.839 363.655C338.138 363.441 338.351 363.527 338.564 363.783L339.248 364.808C339.461 365.106 339.461 365.405 339.119 365.619C336.558 367.454 334.466 368.436 330.922 368.436C324.518 368.436 319.609 363.313 319.609 356.995C319.609 350.633 324.604 345.468 330.88 345.468C337.326 345.468 340.998 350.804 340.998 357.08ZM322.17 355.885H338.564C338.308 351.615 335.533 347.816 330.922 347.816C326.312 347.816 322.683 351.317 322.17 355.885ZM358.272 348.072C352.893 348.072 349.904 352.512 349.904 357.379V367.412C349.904 367.839 349.776 367.967 349.349 367.967H347.983C347.599 367.967 347.471 367.839 347.471 367.412V346.492C347.471 346.108 347.599 345.937 347.983 345.937H348.837C349.178 345.937 349.392 346.065 349.434 346.492L349.648 351.274C350.502 349.395 352.636 345.468 358.613 345.468C359.083 345.468 359.126 345.638 359.083 345.98L358.912 347.56C358.827 347.986 358.656 348.072 358.272 348.072ZM371.467 368.052L361.562 346.492C361.434 346.193 361.562 345.937 361.904 345.937H363.44C363.825 345.937 364.124 346.065 364.337 346.492L372.022 363.441H372.107L379.792 346.492C380.005 346.065 380.304 345.937 380.688 345.937H382.225C382.567 345.937 382.695 346.193 382.567 346.492L372.662 368.052C372.534 368.308 372.406 368.394 372.235 368.394H371.894C371.723 368.394 371.595 368.308 371.467 368.052ZM386.977 337.612C386.977 336.502 387.788 335.606 388.941 335.606C390.008 335.606 390.905 336.502 390.905 337.612C390.905 338.679 390.008 339.576 388.941 339.576C387.788 339.576 386.977 338.679 386.977 337.612ZM387.703 367.412V346.492C387.703 346.108 387.874 345.937 388.258 345.937H389.624C390.051 345.937 390.179 346.108 390.179 346.492V367.412C390.179 367.839 390.051 367.967 389.624 367.967H388.258C387.874 367.967 387.703 367.839 387.703 367.412ZM407.928 366.088C410.532 366.088 412.539 365.064 413.991 363.655C414.247 363.356 414.546 363.441 414.759 363.697L415.741 364.594C415.997 364.85 415.997 365.064 415.741 365.32C413.521 367.369 410.917 368.436 407.928 368.436C401.567 368.436 396.657 363.313 396.657 356.995C396.657 350.633 401.567 345.468 407.928 345.468C410.917 345.468 413.564 346.578 415.698 348.627C415.997 348.883 415.912 349.054 415.698 349.31L414.716 350.249C414.46 350.463 414.204 350.505 413.905 350.207C412.582 348.968 410.618 347.858 407.928 347.858C402.933 347.858 399.133 351.914 399.133 356.995C399.133 362.032 402.933 366.088 407.928 366.088ZM441.393 357.08V357.592C441.393 357.977 441.308 358.147 440.881 358.147H422.566C423.078 362.63 426.707 366.088 431.318 366.088C434.562 366.088 436.057 365.234 438.234 363.655C438.533 363.441 438.746 363.527 438.96 363.783L439.643 364.808C439.856 365.106 439.856 365.405 439.515 365.619C436.953 367.454 434.861 368.436 431.318 368.436C424.914 368.436 420.004 363.313 420.004 356.995C420.004 350.633 424.999 345.468 431.275 345.468C437.722 345.468 441.393 350.804 441.393 357.08ZM422.566 355.885H438.96C438.704 351.615 435.928 347.816 431.318 347.816C426.707 347.816 423.078 351.317 422.566 355.885ZM455.038 366.088C459.564 366.088 461.229 364.167 461.229 361.904C461.229 359.343 459.137 358.66 454.825 358.062C450.726 357.507 446.585 356.696 446.585 352.085C446.585 348.157 449.659 345.468 454.654 345.468C457.13 345.468 459.948 346.108 462.595 347.688C463.022 347.986 462.979 348.2 462.808 348.499L462.168 349.694C461.997 349.993 461.784 350.164 461.4 349.908C459.051 348.456 456.917 347.858 454.654 347.858C450.812 347.858 449.019 349.395 449.019 351.957C449.019 354.604 451.11 355.159 455.337 355.714C459.436 356.312 463.662 357.208 463.662 361.776C463.662 365.576 460.631 368.436 454.996 368.436C452.605 368.436 449.317 367.839 446.158 365.789C445.859 365.576 445.817 365.363 446.03 365.021L446.756 363.74C446.927 363.441 447.14 363.313 447.482 363.569C449.915 365.192 452.221 366.088 455.038 366.088Z" fill="#2F2F25"/>
</g>
<defs>
<clipPath id="clip0_550_3398">
<rect width="571.019" height="394.91" fill="white" transform="translate(0.804688 0.101562)"/>
</clipPath>
</defs>
</svg>
