<svg width="562" height="389" viewBox="0 0 562 389" fill="none" xmlns="http://www.w3.org/2000/svg">
<g clip-path="url(#clip0_550_4303)">
<path d="M328.647 104.194C341.364 105.824 350.85 114.416 350.412 117.261C349.974 120.093 338.831 126.088 326.114 124.472C313.383 122.856 303.801 113.78 304.349 111.405C304.882 109.015 315.929 102.564 328.647 104.18" fill="#F48066"/>
<path d="M191.866 27.6282C187.636 17.0752 189.772 6.12154 192.455 5.16845C195.138 4.21536 204.146 10.3345 208.375 20.8599C212.605 31.413 210.634 41.966 207.787 43.3335C204.953 44.701 196.096 38.1675 191.866 27.6282Z" fill="#62C6C0"/>
<path d="M299.603 120.105C320.629 129.968 332.087 150.798 329.951 154.707C327.816 158.616 305.188 163.478 284.161 153.602C263.135 143.767 252.717 121.597 253.813 119C254.908 116.404 278.576 110.229 299.603 120.092" fill="#75B34B"/>
<path d="M198.383 45.3226C218.643 57.9614 226.569 81.5124 225.186 84.3578C223.803 87.2033 198.848 90.2698 178.588 77.631C158.315 64.9921 150.17 41.2892 151.785 38.5957C153.4 35.9022 178.109 32.6838 198.383 45.3226Z" fill="#B9D548"/>
<path d="M252.252 39.672C249.473 59.977 234.99 74.5634 231.321 74.2042C227.639 73.8313 217.687 55.5292 220.466 35.2242C223.258 14.9193 238.686 0.00133175 241.396 0.691977C244.12 1.39643 255.031 19.367 252.252 39.672Z" fill="#F48066"/>
<path d="M239.52 76.6222C243.147 65.7929 251.826 59.0107 254.564 59.9086C257.315 60.8064 260.094 71.5943 256.453 82.4236C252.825 93.2529 243.626 99.745 241.409 99.1372C239.191 98.5156 235.878 87.4515 239.52 76.636" fill="#62C6C0"/>
<path d="M192.127 110.31C208.048 94.246 231.826 92.2432 233.509 93.9145C235.193 95.5997 233.181 119.62 217.26 135.671C201.354 151.722 178.37 154.014 175.878 152.053C173.4 150.105 176.207 126.361 192.113 110.297" fill="#62C6C0"/>
<path d="M276.017 30.5149C288.392 18.0142 305.955 15.1687 308.214 17.7655C310.486 20.3624 307.967 37.7666 295.579 50.2535C283.19 62.7542 265.846 65.2267 263.368 63.0028C260.904 60.7927 263.628 43.0155 276.017 30.5149Z" fill="#75B34B"/>
<path d="M173.88 91.4577C184.544 87.4243 195.468 90.7118 196.358 92.6456C197.247 94.607 190.868 104.428 180.191 108.461C169.527 112.495 158.74 109.774 157.713 107.273C156.687 104.76 163.203 95.4911 173.88 91.4577Z" fill="#75B34B"/>
<path d="M257.804 22.5869C259.42 14.2853 265.046 8.24909 267.236 8.84304C269.426 9.437 272.424 16.8683 270.809 25.1699C269.194 33.4714 264.06 39.5491 261.377 38.8999C258.694 38.2783 256.175 30.8884 257.804 22.6007" fill="#8F64AA"/>
<path d="M232.279 122.066C238.384 114.759 247.214 111.913 249.048 113.709C250.896 115.505 249.801 124.483 243.723 131.79C237.604 139.097 229.254 142.26 226.954 140.147C224.668 138.047 226.174 129.373 232.279 122.066Z" fill="#B9D548"/>
<path d="M283.75 99.026C274.496 104.413 265.064 103.722 262.792 101.416C260.533 99.1088 266.077 89.6884 275.317 84.2876C284.571 78.9144 294.427 79.4531 296.262 81.9118C298.11 84.3843 292.976 93.6389 283.75 99.0398M340.163 65.2949C338.479 62.1179 311.662 54.728 287.172 65.7783C262.682 76.8148 250.294 102.12 251.485 105.297C252.676 108.46 279.985 115.864 304.475 104.814C328.951 93.7771 341.846 68.4718 340.163 65.3087" fill="#8F64AA"/>
<path d="M59.7548 280.54V272.211H73.3891V222.982C73.3891 217.747 73.1975 210.758 70.3091 206.117C67.0511 200.881 60.9047 198.368 54.9363 198.368C46.6817 198.368 38.8105 202.829 34.7722 209.998C30.7476 216.974 30.5423 225.317 30.5423 233.259V272.211H44.1766V280.54H0.015625V272.211H15.1831V200.301H0.015625V191.972L30.556 190.798V204.956C38.0576 194.099 45.5455 188.864 58.9882 188.864C67.626 188.864 76.8525 191.585 82.8072 198.174C88.7483 204.763 88.7483 214.073 88.7483 222.595V272.211H103.738V280.54H59.7548Z" fill="#535246"/>
<path d="M181.765 280.541V267.557C174.263 278.027 167.35 282.489 154.483 282.489C145.448 282.489 134.702 279.574 128.747 272.405C122.984 265.623 122.984 254.186 122.984 245.664V200.302H106.078V191.973L138.535 190.799V244.683C138.535 259.988 140.26 272.986 158.904 272.986C179.274 272.986 181.765 254.186 181.765 237.901V200.302H164.859V191.973L197.124 190.799V272.212H212.292V280.541H181.751H181.765Z" fill="#535246"/>
<path d="M220.109 280.542V272.213H237.015V164.666L220.766 164.528L220.671 157.124L252.375 149.099V272.213H269.472V280.542H220.109Z" fill="#535246"/>
<path d="M316.986 282.489C306.61 282.489 299.122 278.995 291.442 272.212V280.542H281.641V253.8H291.442C291.442 267.171 302.394 274.533 314.686 274.533C323.707 274.533 333.509 270.071 333.509 259.601C333.509 236.934 281.449 249.324 281.449 215.027C281.449 198.755 294.317 188.852 309.69 188.852C319.108 188.852 325.446 192.153 332.742 197.775V190.799H342.544V213.287H332.742V207.471C326.787 200.689 321.408 197.001 312.195 197.001C302.982 197.001 295.097 201.269 295.097 211.146C295.097 232.086 347.732 219.682 347.732 255.333C347.732 272.585 332.934 282.475 317 282.475" fill="#535246"/>
<path d="M440.309 257.681C432.055 267.557 423.417 274.533 409.961 274.533C396.504 274.533 385.567 266.397 381.145 253.993C379.215 248.758 378.845 243.136 378.845 237.514H446.278C446.278 230.926 445.895 224.337 444.17 217.928C438.79 198.935 424.389 188.852 404.978 188.852C378.079 188.852 360.42 209.599 360.42 235.954C360.42 264.256 380.201 282.475 407.866 282.475C422.459 282.475 432.644 278.594 443.403 268.524C445.128 266.977 446.675 265.223 448.4 263.676L440.323 257.667L440.309 257.681ZM404.389 197.001C423.02 197.001 428.4 213.287 429.55 229.185H379.215C380.365 213.48 385.936 197.001 404.376 197.001H404.389Z" fill="#535246"/>
<path d="M517.534 280.542V272.213H531.168V222.984C531.168 217.749 530.977 210.76 528.088 206.119C524.817 200.883 518.684 198.369 512.729 198.369C504.475 198.369 496.59 202.831 492.552 210C488.527 216.975 488.322 225.318 488.322 233.261V272.213H501.956V280.542H457.781V272.213H472.949V200.303H457.781V191.974L488.322 190.8V204.958C495.81 194.101 503.311 188.866 516.754 188.866C525.405 188.866 534.618 191.587 540.573 198.176C546.528 204.765 546.528 214.075 546.528 222.597V272.213H561.504V280.542H517.52H517.534Z" fill="#535246"/>
<path d="M375.153 325.474C366.049 325.474 361.614 331.524 359.314 334.756L358.493 327.877C358 326.8 357.672 326.385 356.85 326.385H354.633C353.565 326.385 353.236 326.717 353.236 327.877V384.027C353.236 385.104 353.565 385.435 354.633 385.435H359.068C360.136 385.435 360.464 385.104 360.464 384.027V360.434C361.532 362.755 366.049 369.454 375.153 369.454C386.556 369.454 394.112 359.605 394.112 347.505C394.112 335.405 386.556 325.474 375.153 325.474ZM373.674 362.907C365.625 362.907 360.382 355.365 360.382 347.422C360.382 339.48 365.639 331.938 373.674 331.938C381.71 331.938 386.884 338.817 386.884 347.505C386.884 355.696 381.627 362.907 373.674 362.907Z" fill="#535246"/>
<path d="M333.535 367.134C333.945 368.128 334.274 368.543 335.095 368.543H337.477C338.463 368.543 338.873 368.211 338.873 367.134V327.878C338.873 326.717 338.463 326.386 337.477 326.386H333.042C331.974 326.386 331.646 326.8 331.646 327.878V348.417C331.646 356.525 327.539 362.907 320.735 362.907C314.411 362.907 310.072 358.349 310.072 348.915V327.878C310.072 326.717 309.661 326.386 308.675 326.386H304.24C303.172 326.386 302.844 326.8 302.844 327.878V350.655C302.844 364.233 310.154 369.454 318.928 369.454C326.635 369.454 330.742 363.736 332.713 360.435L333.535 367.148V367.134Z" fill="#535246"/>
<path d="M272.482 325.474C260.504 325.474 250.812 335.405 250.812 347.505C250.812 359.605 260.491 369.454 272.482 369.454C284.474 369.454 294.07 359.605 294.07 347.505C294.07 335.405 284.474 325.474 272.482 325.474ZM272.482 362.989C264.433 362.989 258.04 356.194 258.04 347.505C258.04 338.817 264.447 332.104 272.482 332.104C280.518 332.104 286.924 338.9 286.924 347.505C286.924 356.111 280.436 362.989 272.482 362.989Z" fill="#535246"/>
<path d="M244.911 332.684C245.979 332.684 246.307 332.435 246.553 331.358L247.211 326.8C247.375 325.888 247.211 325.474 245.896 325.474C234.74 325.474 231.126 331.855 229.237 335.585L228.005 327.877C227.512 326.8 227.183 326.385 226.362 326.385H224.062C222.995 326.385 222.666 326.717 222.666 327.877V367.133C222.666 368.211 222.995 368.542 224.062 368.542H228.498C229.565 368.542 229.894 368.211 229.894 367.133V347.174C229.894 339.811 234.658 332.684 244.911 332.684Z" fill="#535246"/>
<path d="M206.911 326.385H204.693C203.872 326.385 203.543 326.8 203.051 327.877L202.229 334.756C199.93 331.524 195.494 325.474 186.391 325.474C174.988 325.474 167.432 335.585 167.432 347.505C167.432 359.426 174.988 369.454 186.391 369.454C195.508 369.454 200.012 362.741 201.079 360.434V366.236C201.079 376.167 197.465 382.549 187.787 382.549C181.134 382.549 176.781 380.725 174.167 379.731C173.181 379.316 172.935 379.482 172.688 380.559L171.703 384.372C171.456 385.366 171.62 385.615 172.524 386.029C174.085 386.61 179.916 389.013 188.855 389.013C201.654 389.013 208.307 381.554 208.307 365.407V327.891C208.307 326.731 207.979 326.399 206.911 326.399V326.385ZM187.869 362.907C179.902 362.907 174.659 355.613 174.659 347.505C174.659 338.817 179.916 331.938 187.869 331.938C195.823 331.938 201.162 339.563 201.162 347.422C201.162 355.282 195.823 362.907 187.869 362.907Z" fill="#535246"/>
</g>
<defs>
<clipPath id="clip0_550_4303">
<rect width="561.513" height="388.336" fill="white" transform="translate(0.015625 0.664062)"/>
</clipPath>
</defs>
</svg>
