<svg width="558" height="458" viewBox="0 0 558 458" fill="none" xmlns="http://www.w3.org/2000/svg">
<path d="M211.011 108.236V323.149H210.989L210.902 108.105L211.011 108.236Z" fill="black"/>
<path d="M369.354 0.572266V243.248L295.315 150.851L290.642 145.004L212.353 47.2992C213.315 45.8848 214.664 44.8933 216.239 44.6235C220.365 43.9455 225.52 43.3768 228.852 42.932V35.7651H156.242V42.932C159.983 43.4132 165.662 44.0621 170.139 44.8787C173.172 45.4328 175.425 48.6626 175.425 52.483V214.281H175.534V323.148H110.922V0.572266H369.354Z" fill="#2F284F"/>
<path d="M369.412 214.289V243.321L369.354 243.248L369.353 57.4924H369.404V214.289H369.412Z" fill="#1D1537"/>
<path d="M469.435 57.4911V380.06H211.003V108.235L369.346 305.875V314.581C368.996 317.949 366.882 320.661 364.126 321.164C359.649 321.981 353.962 322.63 350.215 323.111V330.278H422.824V323.111C419.5 322.659 414.352 322.097 410.211 321.412C407.156 320.902 404.874 317.643 404.874 313.793V212.626L405.144 57.4838H469.427L469.435 57.4911Z" fill="#B5591C"/>
<path d="M0.947266 406.926H4.97181L28.0036 441.959C30.9855 446.465 33.7633 451.328 33.7633 451.328H33.9019V406.926H37.3723V456.533H33.5592L10.8045 422.259C8.02667 418.096 4.56352 412.336 4.56352 412.336H4.425V456.526H0.947266V406.919V406.926Z" fill="black"/>
<path d="M85.3757 456.526V451.044H85.2372C82.8822 454.514 79.7544 457.357 73.7249 457.357C67.134 457.357 62.2054 453.406 62.2054 446.261V420.663H65.6029V445.918C65.6029 451.816 69.0005 454.448 74.3446 454.448C80.6585 454.448 85.3757 449.658 85.3757 443.352V420.663H88.7732V456.526H85.3757Z" fill="black"/>
<path d="M113.256 406.926H116.654V456.533H113.256V406.926Z" fill="black"/>
<path d="M138.854 445.706H142.324C142.813 451.604 147.042 454.513 153.006 454.513C158.969 454.513 162.651 451.531 162.651 446.814C162.651 442.928 160.778 441.404 152.867 439.53C145.511 437.795 140.035 435.856 140.035 429.469C140.035 423.505 145.445 419.896 152.247 419.896C160.501 419.896 164.182 424.263 165.014 430.096H161.682C161.193 425.517 157.657 422.878 152.247 422.878C146.422 422.878 143.44 425.656 143.44 429.396C143.44 433.559 146.772 434.74 154.121 436.475C161.339 438.138 166.056 440.084 166.056 446.879C166.056 452.705 161.405 457.422 153.013 457.422C143.644 457.422 139.204 451.874 138.861 445.698L138.854 445.706Z" fill="black"/>
<path d="M190.262 438.976C190.327 447.579 194.213 454.447 203.028 454.447C209.48 454.447 212.462 450.7 213.92 445.844H217.179C215.721 452.501 211.004 457.429 203.028 457.429C192.485 457.429 186.791 449.657 186.791 438.626C186.791 427.595 192.966 419.896 202.751 419.896C206.637 419.896 209.83 421.143 212.185 423.366C216.137 427.041 217.456 432.174 217.391 438.976H190.262ZM202.751 422.812C194.979 422.812 191.027 428.638 190.334 436.206H213.92C213.709 429.126 210.661 422.812 202.751 422.812Z" fill="black"/>
<path d="M243.332 426.7H243.47C245.833 422.887 249.85 419.971 255.96 419.971C262.069 419.971 266.918 423.784 266.918 430.929V456.527H263.52V431.271C263.52 425.373 260.327 422.88 255.333 422.88C248.953 422.88 243.332 427.385 243.332 433.357V456.527H239.934V420.663H243.332V426.7Z" fill="black"/>
<path d="M320.265 406.926H323.874V428.638H353.008V406.926H356.617V456.533H353.008V431.693H323.874V456.533H320.265V406.926Z" fill="black"/>
<path d="M404.481 452.223V450.977H404.27C402.257 453.82 398.648 457.429 391.299 457.429C384.708 457.429 379.853 454.032 379.853 447.441C379.853 438.91 386.509 437.175 394.004 436.41C402.469 435.578 404.408 435.163 404.408 431.831V430.584C404.408 425.174 401.215 422.812 395.389 422.812C388.66 422.812 385.051 425.59 384.57 430.861H381.099C381.792 423.92 386.443 419.903 395.389 419.903C403.366 419.903 407.806 423.439 407.806 430.796V451.888C407.806 453.835 408.848 454.389 410.095 454.389C410.583 454.389 411.138 454.25 411.757 454.039H411.969V456.54C411.415 456.817 410.583 457.094 409.191 457.094C406.413 457.094 404.474 455.57 404.474 452.238L404.481 452.223ZM404.408 443.759V437.102C401.907 438.349 398.094 438.837 394.42 439.253C388.106 439.946 383.323 440.777 383.323 447.579C383.323 452.646 387.07 454.586 391.649 454.586C399.764 454.586 404.415 449.176 404.415 443.766L404.408 443.759Z" fill="black"/>
<path d="M428.621 420.663H432.23L440.14 443.417C441.387 447.092 443.399 453.479 443.399 453.479H443.538C443.538 453.479 445.616 447.099 446.935 443.417L455.261 420.663H458.732L445.623 456.526H441.394L428.628 420.663H428.621Z" fill="black"/>
<path d="M480.86 438.976C480.926 447.579 484.812 454.447 493.626 454.447C500.079 454.447 503.061 450.7 504.519 445.844H507.778C506.32 452.501 501.602 457.429 493.626 457.429C483.084 457.429 477.39 449.657 477.39 438.626C477.39 427.595 483.565 419.896 493.349 419.896C497.235 419.896 500.429 421.143 502.784 423.366C506.735 427.041 508.055 432.174 507.989 438.976H480.86ZM493.342 422.812C485.57 422.812 481.618 428.638 480.926 436.206H504.511C504.3 429.126 501.252 422.812 493.342 422.812Z" fill="black"/>
<path d="M533.922 426.7H534.061C536.423 422.887 540.44 419.971 546.55 419.971C552.66 419.971 557.508 423.784 557.508 430.929V456.527H554.111V431.271C554.111 425.373 550.917 422.88 545.923 422.88C539.544 422.88 533.922 427.385 533.922 433.357V456.527H530.525V420.663H533.922V426.7Z" fill="black"/>
<path d="M0.947266 406.926H4.97181L28.0036 441.959C30.9855 446.465 33.7633 451.328 33.7633 451.328H33.9019V406.926H37.3723V456.533H33.5592L10.8045 422.259C8.02667 418.096 4.56352 412.336 4.56352 412.336H4.425V456.526H0.947266V406.919V406.926Z" fill="#1D1537"/>
<path d="M85.3757 456.526V451.044H85.2372C82.8822 454.514 79.7544 457.357 73.7249 457.357C67.134 457.357 62.2054 453.406 62.2054 446.261V420.663H65.6029V445.918C65.6029 451.816 69.0005 454.448 74.3446 454.448C80.6585 454.448 85.3757 449.658 85.3757 443.352V420.663H88.7732V456.534H85.3757V456.526Z" fill="#1D1537"/>
<path d="M113.256 406.926H116.654V456.533H113.256V406.926Z" fill="#1D1537"/>
<path d="M138.854 445.706H142.324C142.813 451.604 147.042 454.513 153.006 454.513C158.969 454.513 162.651 451.531 162.651 446.814C162.651 442.928 160.778 441.404 152.867 439.53C145.511 437.795 140.035 435.856 140.035 429.469C140.035 423.505 145.445 419.896 152.247 419.896C160.501 419.896 164.182 424.271 165.014 430.096H161.682C161.193 425.517 157.657 422.878 152.247 422.878C146.422 422.878 143.44 425.656 143.44 429.403C143.44 433.566 146.772 434.747 154.121 436.483C161.339 438.145 166.056 440.092 166.056 446.887C166.056 452.712 161.405 457.429 153.013 457.429C143.644 457.429 139.204 451.881 138.861 445.706H138.854Z" fill="#1D1537"/>
<path d="M190.262 438.976C190.327 447.579 194.213 454.447 203.028 454.447C209.48 454.447 212.462 450.7 213.92 445.844H217.179C215.721 452.501 211.004 457.429 203.028 457.429C192.485 457.429 186.791 449.657 186.791 438.626C186.791 427.595 192.966 419.896 202.751 419.896C206.637 419.896 209.83 421.143 212.185 423.366C216.137 427.041 217.456 432.174 217.391 438.976H190.262ZM202.751 422.812C194.979 422.812 191.027 428.638 190.334 436.198H213.92C213.709 429.119 210.661 422.812 202.751 422.812Z" fill="#1D1537"/>
<path d="M243.332 426.7H243.47C245.833 422.887 249.85 419.971 255.96 419.971C262.069 419.971 266.918 423.784 266.918 430.929V456.527H263.52V431.271C263.52 425.373 260.327 422.88 255.333 422.88C248.953 422.88 243.332 427.393 243.332 433.357V456.527H239.934V420.656H243.332V426.7Z" fill="#1D1537"/>
<path d="M320.265 406.926H323.874V428.638H353.008V406.926H356.617V456.533H353.008V431.693H323.874V456.533H320.265V406.926Z" fill="#1D1537"/>
<path d="M404.481 452.223V450.977H404.27C402.257 453.82 398.648 457.429 391.299 457.429C384.708 457.429 379.853 454.032 379.853 447.441C379.853 438.91 386.509 437.175 394.004 436.41C402.469 435.578 404.408 435.163 404.408 431.831V430.584C404.408 425.174 401.215 422.812 395.389 422.812C388.66 422.812 385.051 425.59 384.57 430.861H381.099C381.792 423.92 386.443 419.896 395.389 419.896C403.366 419.896 407.806 423.432 407.806 430.789V451.881C407.806 453.828 408.848 454.382 410.095 454.382C410.583 454.382 411.138 454.243 411.757 454.032H411.969V456.533C411.415 456.81 410.583 457.087 409.191 457.087C406.413 457.087 404.474 455.563 404.474 452.231L404.481 452.223ZM404.408 443.759V437.102C401.907 438.349 398.094 438.837 394.42 439.253C388.106 439.946 383.323 440.777 383.323 447.579C383.323 452.646 387.07 454.586 391.649 454.586C399.764 454.586 404.415 449.176 404.415 443.766L404.408 443.759Z" fill="#1D1537"/>
<path d="M428.621 420.663H432.23L440.14 443.417C441.387 447.092 443.399 453.479 443.399 453.479H443.538C443.538 453.479 445.616 447.099 446.935 443.417L455.261 420.663H458.732L445.623 456.534H441.394L428.628 420.663H428.621Z" fill="#1D1537"/>
<path d="M480.86 438.976C480.926 447.579 484.812 454.447 493.626 454.447C500.079 454.447 503.061 450.7 504.519 445.844H507.778C506.32 452.501 501.602 457.429 493.626 457.429C483.084 457.429 477.39 449.657 477.39 438.626C477.39 427.595 483.565 419.896 493.349 419.896C497.235 419.896 500.429 421.143 502.784 423.366C506.735 427.041 508.055 432.174 507.989 438.976H480.86ZM493.342 422.812C485.57 422.812 481.618 428.638 480.926 436.198H504.511C504.3 429.119 501.252 422.812 493.342 422.812Z" fill="#1D1537"/>
<path d="M533.922 426.7H534.061C536.423 422.887 540.44 419.971 546.55 419.971C552.66 419.971 557.508 423.784 557.508 430.929V456.527H554.111V431.271C554.111 425.373 550.917 422.88 545.923 422.88C539.544 422.88 533.922 427.393 533.922 433.357V456.527H530.525V420.656H533.922V426.7Z" fill="#1D1537"/>
</svg>
