<svg width="553" height="149" viewBox="0 0 553 149" fill="none" xmlns="http://www.w3.org/2000/svg">
<g clip-path="url(#clip0_550_2937)">
<path d="M464.161 40.2593C469.008 40.8805 472.624 44.1549 472.457 45.2393C472.29 46.3185 468.043 48.6032 463.196 47.9873C458.344 47.3714 454.692 43.9127 454.901 43.0073C455.105 42.0966 459.315 39.6381 464.161 40.2541" fill="#F48066"/>
<path d="M412.033 11.0792C410.421 7.05726 411.235 2.88269 412.258 2.51945C413.28 2.15622 416.713 4.48829 418.325 8.49968C419.937 12.5216 419.186 16.5435 418.101 17.0647C417.021 17.5858 413.645 15.0958 412.033 11.0792Z" fill="#62C6C0"/>
<path d="M453.092 46.3232C461.106 50.0819 465.472 58.0204 464.659 59.5102C463.845 61 455.221 62.853 447.207 59.0891C439.194 55.3409 435.224 46.8917 435.641 45.902C436.059 44.9124 445.079 42.5592 453.092 46.3179" fill="#75B34B"/>
<path d="M414.517 17.8224C422.238 22.6392 425.259 31.6148 424.732 32.6993C424.205 33.7837 414.694 34.9524 406.973 30.1356C399.246 25.3188 396.142 16.2853 396.758 15.2587C397.373 14.2322 406.79 13.0056 414.517 17.8224Z" fill="#B9D548"/>
<path d="M435.046 15.6693C433.987 23.4078 428.468 28.9668 427.069 28.83C425.666 28.6878 421.873 21.7127 422.932 13.9742C423.997 6.23567 429.876 0.550251 430.909 0.813465C431.947 1.08194 436.105 7.93077 435.046 15.6693Z" fill="#F48066"/>
<path d="M430.195 29.7516C431.577 25.6244 434.885 23.0397 435.928 23.3818C436.977 23.724 438.036 27.8354 436.648 31.9626C435.266 36.0898 431.76 38.564 430.915 38.3324C430.07 38.0955 428.807 33.8788 430.195 29.7569" fill="#62C6C0"/>
<path d="M412.133 42.5907C418.2 36.4683 427.262 35.705 427.904 36.342C428.546 36.9842 427.779 46.1388 421.711 52.2559C415.649 58.373 406.889 59.2469 405.94 58.4994C404.996 57.7571 406.065 48.7078 412.127 42.5854" fill="#62C6C0"/>
<path d="M444.104 12.1792C448.82 7.41504 455.514 6.3306 456.375 7.32028C457.241 8.30997 456.281 14.943 451.559 19.7019C446.838 24.466 440.228 25.4084 439.283 24.5608C438.344 23.7185 439.382 16.9434 444.104 12.1792Z" fill="#75B34B"/>
<path d="M405.178 35.4053C409.242 33.8681 413.406 35.121 413.745 35.858C414.084 36.6055 411.653 40.3484 407.583 41.8856C403.519 43.4228 399.408 42.3857 399.017 41.4329C398.626 40.4748 401.109 36.9425 405.178 35.4053Z" fill="#75B34B"/>
<path d="M437.163 9.15762C437.779 5.99379 439.923 3.69329 440.758 3.91966C441.592 4.14602 442.735 6.97821 442.119 10.142C441.504 13.3059 439.547 15.6222 438.525 15.3747C437.502 15.1378 436.542 12.3215 437.163 9.16288" fill="#8F64AA"/>
<path d="M427.435 47.0705C429.762 44.2857 433.127 43.2013 433.826 43.8856C434.53 44.57 434.113 47.9917 431.796 50.7766C429.464 53.5614 426.282 54.7669 425.405 53.9614C424.534 53.1613 425.108 49.8553 427.435 47.0705Z" fill="#B9D548"/>
<path d="M447.051 38.2899C443.524 40.343 439.93 40.0798 439.064 39.2007C438.203 38.3215 440.316 34.7313 443.837 32.673C447.364 30.6252 451.121 30.8305 451.82 31.7675C452.524 32.7098 450.568 36.2369 447.051 38.2952M468.551 25.4346C467.909 24.2238 457.689 21.4074 448.355 25.6188C439.022 29.825 434.301 39.4691 434.755 40.6799C435.208 41.8854 445.617 44.7071 454.95 40.4957C464.278 36.2895 469.193 26.6454 468.551 25.4398" fill="#8F64AA"/>
<path d="M361.683 107.467V104.293H366.88V85.5311C366.88 83.5359 366.807 80.8722 365.706 79.1034C364.464 77.1082 362.122 76.1501 359.847 76.1501C356.701 76.1501 353.701 77.8505 352.162 80.5827C350.628 83.2411 350.55 86.4208 350.55 89.4477V104.293H355.746V107.467H338.916V104.293H344.697V76.8871H338.916V73.7128L350.555 73.2653V78.6612C353.414 74.5235 356.268 72.5283 361.391 72.5283C364.683 72.5283 368.2 73.5654 370.469 76.0764C372.733 78.5875 372.733 82.1356 372.733 85.3837V104.293H378.446V107.467H361.683Z" fill="#535246"/>
<path d="M408.183 107.468V102.519C405.324 106.51 402.69 108.21 397.786 108.21C394.342 108.21 390.247 107.099 387.977 104.367C385.781 101.782 385.781 97.4234 385.781 94.1753V76.8875H379.338V73.7131L391.708 73.2656V93.8016C391.708 99.6344 392.365 104.588 399.471 104.588C407.234 104.588 408.183 97.4234 408.183 91.2168V76.8875H401.74V73.7131L414.037 73.2656V104.293H419.817V107.468H408.178H408.183Z" fill="#535246"/>
<path d="M422.797 107.468V104.294H429.24V63.3059L423.047 63.2532L423.011 60.4316L435.094 57.373V104.294H441.61V107.468H422.797Z" fill="#535246"/>
<path d="M459.717 108.21C455.763 108.21 452.909 106.878 449.982 104.293V107.468H446.247V97.2761H449.982C449.982 102.372 454.156 105.178 458.841 105.178C462.279 105.178 466.014 103.477 466.014 99.4871C466.014 90.8484 446.174 95.5705 446.174 82.4992C446.174 76.2979 451.078 72.5234 456.937 72.5234C460.526 72.5234 462.942 73.7816 465.722 75.9242V73.2657H469.458V81.8359H465.722V79.6197C463.453 77.0349 461.403 75.6294 457.891 75.6294C454.38 75.6294 451.375 77.256 451.375 81.02C451.375 89.0006 471.435 84.2733 471.435 97.8604C471.435 104.436 465.795 108.205 459.723 108.205" fill="#535246"/>
<path d="M506.718 98.7553C503.573 102.519 500.281 105.178 495.152 105.178C490.024 105.178 485.855 102.077 484.17 97.3498C483.435 95.3546 483.294 93.2121 483.294 91.0695H508.993C508.993 88.5584 508.847 86.0474 508.19 83.6047C506.139 76.3664 500.651 72.5234 493.253 72.5234C483.002 72.5234 476.271 80.4304 476.271 90.4746C476.271 101.261 483.81 108.205 494.354 108.205C499.915 108.205 503.797 106.725 507.898 102.888C508.555 102.298 509.144 101.63 509.802 101.04L506.724 98.7501L506.718 98.7553ZM493.029 75.6294C500.129 75.6294 502.18 81.8359 502.618 87.8951H483.435C483.873 81.9096 485.996 75.6294 493.024 75.6294H493.029Z" fill="#535246"/>
<path d="M536.15 107.468V104.294H541.346V85.5321C541.346 83.5369 541.273 80.8732 540.172 79.1044C538.925 77.1092 536.588 76.1511 534.318 76.1511C531.172 76.1511 528.167 77.8515 526.628 80.5836C525.095 83.2421 525.016 86.4217 525.016 89.4487V104.294H530.213V107.468H513.377V104.294H519.158V76.8881H513.377V73.7138L525.016 73.2663V78.6622C527.87 74.5245 530.729 72.5293 535.852 72.5293C539.149 72.5293 542.661 73.5664 544.93 76.0774C547.199 78.5885 547.199 82.1366 547.199 85.3847V104.294H552.907V107.468H536.144H536.15Z" fill="#535246"/>
<path d="M481.886 124.592C478.416 124.592 476.726 126.898 475.85 128.129L475.537 125.508C475.349 125.097 475.224 124.939 474.911 124.939H474.065C473.658 124.939 473.533 125.066 473.533 125.508V146.907C473.533 147.318 473.658 147.444 474.065 147.444H475.756C476.163 147.444 476.288 147.318 476.288 146.907V137.916C476.695 138.8 478.416 141.353 481.886 141.353C486.232 141.353 489.111 137.6 489.111 132.988C489.111 128.377 486.232 124.592 481.886 124.592ZM481.322 138.858C478.255 138.858 476.257 135.984 476.257 132.957C476.257 129.93 478.26 127.055 481.322 127.055C484.385 127.055 486.357 129.677 486.357 132.988C486.357 136.11 484.353 138.858 481.322 138.858Z" fill="#535246"/>
<path d="M466.025 140.469C466.181 140.848 466.307 141.006 466.62 141.006H467.527C467.903 141.006 468.06 140.88 468.06 140.469V125.508C468.06 125.066 467.903 124.939 467.527 124.939H465.837C465.43 124.939 465.305 125.097 465.305 125.508V133.336C465.305 136.426 463.74 138.858 461.147 138.858C458.737 138.858 457.083 137.121 457.083 133.525V125.508C457.083 125.066 456.926 124.939 456.551 124.939H454.86C454.453 124.939 454.328 125.097 454.328 125.508V134.189C454.328 139.364 457.114 141.353 460.458 141.353C463.395 141.353 464.961 139.174 465.712 137.916L466.025 140.474V140.469Z" fill="#535246"/>
<path d="M442.757 124.592C438.192 124.592 434.498 128.377 434.498 132.988C434.498 137.6 438.187 141.353 442.757 141.353C447.327 141.353 450.984 137.6 450.984 132.988C450.984 128.377 447.327 124.592 442.757 124.592ZM442.757 138.89C439.689 138.89 437.253 136.3 437.253 132.988C437.253 129.677 439.694 127.119 442.757 127.119C445.819 127.119 448.261 129.709 448.261 132.988C448.261 136.268 445.788 138.89 442.757 138.89Z" fill="#535246"/>
<path d="M432.249 127.34C432.656 127.34 432.781 127.245 432.875 126.834L433.126 125.097C433.188 124.75 433.126 124.592 432.625 124.592C428.373 124.592 426.996 127.024 426.276 128.445L425.806 125.508C425.618 125.097 425.493 124.939 425.18 124.939H424.304C423.897 124.939 423.771 125.066 423.771 125.508V140.469C423.771 140.879 423.897 141.006 424.304 141.006H425.994C426.401 141.006 426.526 140.879 426.526 140.469V132.862C426.526 130.056 428.342 127.34 432.249 127.34Z" fill="#535246"/>
<path d="M417.767 124.939H416.922C416.609 124.939 416.483 125.097 416.296 125.508L415.983 128.129C415.106 126.898 413.416 124.592 409.946 124.592C405.601 124.592 402.721 128.445 402.721 132.988C402.721 137.531 405.601 141.353 409.946 141.353C413.421 141.353 415.137 138.795 415.544 137.916V140.127C415.544 143.912 414.167 146.344 410.479 146.344C407.943 146.344 406.284 145.649 405.288 145.27C404.912 145.112 404.818 145.175 404.724 145.586L404.348 147.039C404.255 147.418 404.317 147.512 404.661 147.67C405.256 147.892 407.479 148.807 410.885 148.807C415.763 148.807 418.299 145.965 418.299 139.811V125.513C418.299 125.071 418.174 124.945 417.767 124.945V124.939ZM410.51 138.858C407.473 138.858 405.475 136.078 405.475 132.988C405.475 129.677 407.479 127.055 410.51 127.055C413.541 127.055 415.576 129.961 415.576 132.957C415.576 135.952 413.541 138.858 410.51 138.858Z" fill="#535246"/>
</g>
<line x1="275.982" y1="127.772" x2="275.982" y2="27.7725" stroke="#8F64AB"/>
<g clip-path="url(#clip1_550_2937)">
<path d="M125.294 40.2593C130.141 40.8805 133.756 44.1549 133.589 45.2393C133.422 46.3185 129.176 48.6032 124.329 47.9873C119.477 47.3714 115.825 43.9127 116.034 43.0073C116.237 42.0966 120.448 39.6381 125.294 40.2541" fill="#F48066"/>
<path d="M73.1662 11.0792C71.5541 7.05726 72.368 2.88269 73.3905 2.51945C74.4131 2.15622 77.8459 4.48829 79.458 8.49968C81.0701 12.5216 80.3188 16.5435 79.2337 17.0647C78.1537 17.5858 74.7783 15.0958 73.1662 11.0792Z" fill="#62C6C0"/>
<path d="M114.225 46.3232C122.239 50.0819 126.605 58.0204 125.791 59.5102C124.978 61 116.354 62.853 108.34 59.0891C100.327 55.3409 96.3566 46.8917 96.774 45.902C97.1913 44.9124 106.212 42.5592 114.225 46.3179" fill="#75B34B"/>
<path d="M75.6494 17.8224C83.3707 22.6392 86.3913 31.6148 85.8644 32.6993C85.3375 33.7837 75.8267 34.9524 68.1054 30.1356C60.3789 25.3188 57.2747 16.2853 57.8904 15.2587C58.506 14.2322 67.9228 13.0056 75.6494 17.8224Z" fill="#B9D548"/>
<path d="M96.1791 15.6693C95.1201 23.4078 89.6004 28.9668 88.2022 28.83C86.7988 28.6878 83.006 21.7127 84.065 13.9742C85.1293 6.23567 91.009 0.550251 92.042 0.813465C93.0802 1.08194 97.2382 7.93077 96.1791 15.6693Z" fill="#F48066"/>
<path d="M91.3276 29.7516C92.7101 25.6244 96.0178 23.0397 97.0612 23.3818C98.1098 23.724 99.1689 27.8354 97.7811 31.9626C96.3986 36.0898 92.8927 38.564 92.0475 38.3324C91.2024 38.0955 89.9398 33.8788 91.3276 29.7569" fill="#62C6C0"/>
<path d="M73.2654 42.5907C79.3329 36.4683 88.395 35.705 89.0367 36.342C89.6784 36.9842 88.9114 46.1388 82.844 52.2559C76.7817 58.373 68.0222 59.2469 67.0727 58.4994C66.1284 57.7571 67.1979 48.7078 73.2602 42.5854" fill="#62C6C0"/>
<path d="M105.237 12.1792C109.953 7.41504 116.647 6.3306 117.507 7.32028C118.373 8.30997 117.413 14.943 112.692 19.7019C107.97 24.466 101.36 25.4084 100.416 24.5608C99.4771 23.7185 100.515 16.9434 105.237 12.1792Z" fill="#75B34B"/>
<path d="M66.3111 35.4053C70.3752 33.8681 74.5385 35.121 74.8776 35.858C75.2167 36.6055 72.7855 40.3484 68.7162 41.8856C64.6521 43.4228 60.541 42.3857 60.1497 41.4329C59.7585 40.4748 62.2418 36.9425 66.3111 35.4053Z" fill="#75B34B"/>
<path d="M98.296 9.15762C98.9116 5.99379 101.056 3.69329 101.891 3.91966C102.725 4.14602 103.868 6.97821 103.252 10.142C102.637 13.3059 100.68 15.6222 99.6577 15.3747C98.6351 15.1378 97.6752 12.3215 98.296 9.16288" fill="#8F64AA"/>
<path d="M88.5677 47.0705C90.8945 44.2857 94.2595 43.2013 94.9586 43.8856C95.6629 44.57 95.2456 47.9917 92.9292 50.7766C90.5971 53.5614 87.4147 54.7669 86.5382 53.9614C85.667 53.1613 86.2409 49.8553 88.5677 47.0705Z" fill="#B9D548"/>
<path d="M108.184 38.2899C104.657 40.343 101.063 40.0798 100.197 39.2007C99.3358 38.3215 101.449 34.7313 104.97 32.673C108.497 30.6252 112.253 30.8305 112.952 31.7675C113.657 32.7098 111.7 36.2369 108.184 38.2952M129.684 25.4346C129.042 24.2238 118.822 21.4074 109.488 25.6188C100.155 29.825 95.4334 39.4691 95.8873 40.6799C96.3412 41.8854 106.749 44.7071 116.083 40.4957C125.411 36.2895 130.325 26.6454 129.684 25.4398" fill="#8F64AA"/>
<path d="M22.8162 107.467V104.293H28.0125V85.5311C28.0125 83.5359 27.9394 80.8722 26.8386 79.1034C25.5969 77.1082 23.2545 76.1501 20.9798 76.1501C17.8339 76.1501 14.8341 77.8505 13.295 80.5827C11.7612 83.2411 11.6829 86.4208 11.6829 89.4477V104.293H16.8792V107.467H0.0488281V104.293H5.82937V76.8871H0.0488281V73.7128L11.6882 73.2653V78.6612C14.5471 74.5235 17.4009 72.5283 22.5241 72.5283C25.8161 72.5283 29.3324 73.5654 31.6018 76.0764C33.866 78.5875 33.866 82.1356 33.866 85.3837V104.293H39.5788V107.467H22.8162Z" fill="#535246"/>
<path d="M69.316 107.468V102.519C66.4571 106.51 63.8224 108.21 58.9183 108.21C55.4751 108.21 51.3796 107.099 49.1102 104.367C46.9138 101.782 46.9138 97.4234 46.9138 94.1753V76.8875H40.4707V73.7131L52.8404 73.2656V93.8016C52.8404 99.6344 53.4978 104.588 60.6035 104.588C68.3665 104.588 69.316 97.4234 69.316 91.2168V76.8875H62.8729V73.7131L75.1696 73.2656V104.293H80.9501V107.468H69.3108H69.316Z" fill="#535246"/>
<path d="M83.9297 107.468V104.294H90.3728V63.3059L84.1801 63.2532L84.1436 60.4316L96.2264 57.373V104.294H102.743V107.468H83.9297Z" fill="#535246"/>
<path d="M120.85 108.21C116.896 108.21 114.042 106.878 111.115 104.293V107.468H107.38V97.2761H111.115C111.115 102.372 115.289 105.178 119.974 105.178C123.412 105.178 127.147 103.477 127.147 99.4871C127.147 90.8484 107.307 95.5705 107.307 82.4992C107.307 76.2979 112.211 72.5234 118.07 72.5234C121.659 72.5234 124.074 73.7816 126.855 75.9242V73.2657H130.591V81.8359H126.855V79.6197C124.586 77.0349 122.535 75.6294 119.024 75.6294C115.513 75.6294 112.508 77.256 112.508 81.02C112.508 89.0006 132.568 84.2733 132.568 97.8604C132.568 104.436 126.928 108.205 120.855 108.205" fill="#535246"/>
<path d="M167.851 98.7553C164.705 102.519 161.413 105.178 156.285 105.178C151.157 105.178 146.988 102.077 145.303 97.3498C144.567 95.3546 144.427 93.2121 144.427 91.0695H170.126C170.126 88.5584 169.98 86.0474 169.322 83.6047C167.272 76.3664 161.784 72.5234 154.386 72.5234C144.134 72.5234 137.404 80.4304 137.404 90.4746C137.404 101.261 144.943 108.205 155.487 108.205C161.048 108.205 164.93 106.725 169.03 102.888C169.688 102.298 170.277 101.63 170.935 101.04L167.856 98.7501L167.851 98.7553ZM154.162 75.6294C161.262 75.6294 163.312 81.8359 163.751 87.8951H144.567C145.006 81.9096 147.129 75.6294 154.156 75.6294H154.162Z" fill="#535246"/>
<path d="M197.282 107.468V104.294H202.479V85.5321C202.479 83.5369 202.406 80.8732 201.305 79.1044C200.058 77.1092 197.721 76.1511 195.451 76.1511C192.305 76.1511 189.3 77.8515 187.761 80.5836C186.227 83.2421 186.149 86.4217 186.149 89.4487V104.294H191.345V107.468H174.51V104.294H180.29V76.8881H174.51V73.7138L186.149 73.2663V78.6622C189.003 74.5245 191.862 72.5293 196.985 72.5293C200.282 72.5293 203.793 73.5664 206.063 76.0774C208.332 78.5885 208.332 82.1366 208.332 85.3847V104.294H214.04V107.468H197.277H197.282Z" fill="#535246"/>
<path d="M44.4458 126.963C44.4458 126.803 44.4938 126.755 44.6538 126.755H45.1658C45.3098 126.755 45.3578 126.803 45.3578 126.963V138.595C45.3578 138.755 45.3098 138.803 45.1658 138.803H44.8618C44.7018 138.803 44.6378 138.755 44.6378 138.595L44.5738 136.947C44.1738 137.683 43.2298 138.979 41.1978 138.979C38.9418 138.979 37.2938 137.027 37.2938 134.691C37.2938 132.355 38.9418 130.371 41.1978 130.371C43.0698 130.371 43.9978 131.635 44.4458 132.307V126.963ZM41.3578 138.099C43.1658 138.099 44.4618 136.451 44.4618 134.675C44.4618 132.899 43.1658 131.267 41.3578 131.267C39.5178 131.267 38.2218 132.787 38.2218 134.691C38.2218 136.579 39.5178 138.099 41.3578 138.099ZM48.3538 127.427C48.3538 127.011 48.6578 126.675 49.0898 126.675C49.4898 126.675 49.8258 127.011 49.8258 127.427C49.8258 127.827 49.4898 128.163 49.0898 128.163C48.6578 128.163 48.3538 127.827 48.3538 127.427ZM48.6258 138.595V130.755C48.6258 130.611 48.6898 130.547 48.8338 130.547H49.3458C49.5058 130.547 49.5538 130.611 49.5538 130.755V138.595C49.5538 138.755 49.5058 138.803 49.3458 138.803H48.8338C48.6898 138.803 48.6258 138.755 48.6258 138.595ZM55.5016 138.099C57.1976 138.099 57.8216 137.379 57.8216 136.531C57.8216 135.571 57.0376 135.315 55.4216 135.091C53.8856 134.883 52.3336 134.579 52.3336 132.851C52.3336 131.379 53.4856 130.371 55.3576 130.371C56.2856 130.371 57.3416 130.611 58.3336 131.203C58.4936 131.315 58.4776 131.395 58.4136 131.507L58.1736 131.955C58.1096 132.067 58.0296 132.131 57.8856 132.035C57.0056 131.491 56.2056 131.267 55.3576 131.267C53.9176 131.267 53.2456 131.843 53.2456 132.803C53.2456 133.795 54.0296 134.003 55.6136 134.211C57.1496 134.435 58.7336 134.771 58.7336 136.483C58.7336 137.907 57.5976 138.979 55.4856 138.979C54.5896 138.979 53.3576 138.755 52.1736 137.987C52.0616 137.907 52.0456 137.827 52.1256 137.699L52.3976 137.219C52.4616 137.107 52.5416 137.059 52.6696 137.155C53.5816 137.763 54.4456 138.099 55.5016 138.099ZM66.6885 137.123C66.1765 138.339 65.0565 138.979 63.5685 138.979C61.7765 138.979 60.6085 138.035 60.6085 136.371C60.6085 134.659 61.9365 133.811 63.8405 133.811C64.8165 133.811 65.7605 133.987 66.6245 134.259C66.6245 131.811 66.1285 131.267 64.1605 131.267C63.1525 131.267 62.3525 131.411 61.7285 131.555C61.5525 131.587 61.5045 131.523 61.4565 131.363L61.3605 130.947C61.3285 130.803 61.3605 130.723 61.5365 130.675C61.8565 130.579 63.1045 130.371 64.2725 130.371C66.9605 130.371 67.5525 131.459 67.5525 134.243V138.595C67.5525 138.755 67.5045 138.803 67.3445 138.803H66.9925C66.8645 138.803 66.8005 138.755 66.7845 138.595L66.6885 137.123ZM63.9205 134.643C62.4485 134.643 61.5365 135.219 61.5365 136.371C61.5365 137.507 62.3205 138.099 63.6645 138.099C65.7125 138.099 66.6245 136.739 66.6245 135.315V135.107C65.7765 134.867 65.0245 134.643 63.9205 134.643ZM71.5538 126.963V132.307C72.0018 131.635 72.9298 130.371 74.8018 130.371C77.0578 130.371 78.7058 132.355 78.7058 134.691C78.7058 137.027 77.0578 138.979 74.8018 138.979C72.7698 138.979 71.7938 137.651 71.4098 136.915L71.3618 138.595C71.3618 138.755 71.2978 138.803 71.1378 138.803H70.8338C70.6898 138.803 70.6418 138.755 70.6418 138.595V126.963C70.6418 126.803 70.6898 126.755 70.8338 126.755H71.3458C71.5058 126.755 71.5538 126.803 71.5538 126.963ZM74.6418 138.099C76.4818 138.099 77.7778 136.579 77.7778 134.691C77.7778 132.787 76.4818 131.267 74.6418 131.267C72.8338 131.267 71.5538 132.899 71.5538 134.675C71.5538 136.451 72.8338 138.099 74.6418 138.099ZM80.8538 127.427C80.8538 127.011 81.1578 126.675 81.5898 126.675C81.9898 126.675 82.3258 127.011 82.3258 127.427C82.3258 127.827 81.9898 128.163 81.5898 128.163C81.1578 128.163 80.8538 127.827 80.8538 127.427ZM81.1258 138.595V130.755C81.1258 130.611 81.1898 130.547 81.3338 130.547H81.8458C82.0058 130.547 82.0538 130.611 82.0538 130.755V138.595C82.0538 138.755 82.0058 138.803 81.8458 138.803H81.3338C81.1898 138.803 81.1258 138.755 81.1258 138.595ZM85.2976 138.595V126.963C85.2976 126.803 85.3456 126.755 85.5056 126.755H86.0176C86.1776 126.755 86.2256 126.803 86.2256 126.963V138.595C86.2256 138.755 86.1776 138.803 86.0176 138.803H85.5056C85.3456 138.803 85.2976 138.755 85.2976 138.595ZM89.1975 127.427C89.1975 127.011 89.5015 126.675 89.9335 126.675C90.3335 126.675 90.6695 127.011 90.6695 127.427C90.6695 127.827 90.3335 128.163 89.9335 128.163C89.5015 128.163 89.1975 127.827 89.1975 127.427ZM89.4695 138.595V130.755C89.4695 130.611 89.5335 130.547 89.6775 130.547H90.1895C90.3495 130.547 90.3975 130.611 90.3975 130.755V138.595C90.3975 138.755 90.3495 138.803 90.1895 138.803H89.6775C89.5335 138.803 89.4695 138.755 89.4695 138.595ZM93.7694 130.547V128.883C93.7694 128.723 93.8174 128.675 93.9774 128.675H94.4734C94.6174 128.675 94.6814 128.723 94.6814 128.883V130.547H97.4974C97.6414 130.547 97.7054 130.595 97.7054 130.755V131.187C97.7054 131.347 97.6414 131.395 97.4974 131.395H94.6814V136.291C94.6814 137.491 95.1294 138.099 96.1534 138.099C96.6814 138.099 97.0334 137.987 97.4654 137.827C97.5774 137.763 97.6254 137.795 97.6734 137.907L97.8814 138.387C97.9294 138.515 97.8814 138.595 97.7854 138.643C97.2894 138.867 96.7454 138.979 96.1534 138.979C94.5694 138.979 93.7534 138.035 93.7534 136.291V131.395H92.7774C92.6174 131.395 92.5854 131.347 92.5854 131.187V130.755C92.5854 130.595 92.6174 130.547 92.7774 130.547H93.7694ZM102.89 137.267L105.77 130.755C105.85 130.595 105.962 130.547 106.106 130.547H106.682C106.81 130.547 106.858 130.643 106.81 130.755L101.946 141.667C101.866 141.843 101.77 141.875 101.642 141.875H101.034C100.906 141.875 100.858 141.811 100.922 141.667L102.362 138.435L98.9544 130.755C98.8904 130.643 98.9384 130.547 99.0664 130.547H99.6424C99.7864 130.547 99.8984 130.579 99.9784 130.755L102.858 137.267H102.89ZM114.642 138.099C116.338 138.099 116.962 137.379 116.962 136.531C116.962 135.571 116.178 135.315 114.562 135.091C113.026 134.883 111.474 134.579 111.474 132.851C111.474 131.379 112.626 130.371 114.498 130.371C115.426 130.371 116.482 130.611 117.474 131.203C117.634 131.315 117.618 131.395 117.554 131.507L117.314 131.955C117.25 132.067 117.17 132.131 117.026 132.035C116.146 131.491 115.346 131.267 114.498 131.267C113.058 131.267 112.386 131.843 112.386 132.803C112.386 133.795 113.17 134.003 114.754 134.211C116.29 134.435 117.874 134.771 117.874 136.483C117.874 137.907 116.738 138.979 114.626 138.979C113.73 138.979 112.498 138.755 111.314 137.987C111.202 137.907 111.186 137.827 111.266 137.699L111.538 137.219C111.602 137.107 111.682 137.059 111.81 137.155C112.722 137.763 113.586 138.099 114.642 138.099ZM127.544 134.723V134.915C127.544 135.059 127.512 135.123 127.352 135.123H120.488C120.68 136.803 122.04 138.099 123.768 138.099C124.984 138.099 125.544 137.779 126.36 137.187C126.472 137.107 126.552 137.139 126.632 137.235L126.888 137.619C126.968 137.731 126.968 137.843 126.84 137.923C125.88 138.611 125.096 138.979 123.768 138.979C121.368 138.979 119.528 137.059 119.528 134.691C119.528 132.307 121.4 130.371 123.752 130.371C126.168 130.371 127.544 132.371 127.544 134.723ZM120.488 134.275H126.632C126.536 132.675 125.496 131.251 123.768 131.251C122.04 131.251 120.68 132.563 120.488 134.275ZM134.018 131.347C132.002 131.347 130.882 133.011 130.882 134.835V138.595C130.882 138.755 130.834 138.803 130.674 138.803H130.162C130.018 138.803 129.97 138.755 129.97 138.595V130.755C129.97 130.611 130.018 130.547 130.162 130.547H130.482C130.61 130.547 130.69 130.595 130.706 130.755L130.786 132.547C131.106 131.843 131.906 130.371 134.146 130.371C134.322 130.371 134.338 130.435 134.322 130.563L134.258 131.155C134.226 131.315 134.162 131.347 134.018 131.347ZM138.963 138.835L135.251 130.755C135.203 130.643 135.251 130.547 135.379 130.547H135.955C136.099 130.547 136.211 130.595 136.291 130.755L139.171 137.107H139.203L142.083 130.755C142.163 130.595 142.275 130.547 142.419 130.547H142.995C143.123 130.547 143.171 130.643 143.123 130.755L139.411 138.835C139.363 138.931 139.315 138.963 139.251 138.963H139.123C139.059 138.963 139.011 138.931 138.963 138.835ZM144.776 127.427C144.776 127.011 145.08 126.675 145.512 126.675C145.912 126.675 146.248 127.011 146.248 127.427C146.248 127.827 145.912 128.163 145.512 128.163C145.08 128.163 144.776 127.827 144.776 127.427ZM145.048 138.595V130.755C145.048 130.611 145.112 130.547 145.256 130.547H145.768C145.928 130.547 145.976 130.611 145.976 130.755V138.595C145.976 138.755 145.928 138.803 145.768 138.803H145.256C145.112 138.803 145.048 138.755 145.048 138.595ZM152.628 138.099C153.604 138.099 154.356 137.715 154.9 137.187C154.996 137.075 155.108 137.107 155.188 137.203L155.556 137.539C155.652 137.635 155.652 137.715 155.556 137.811C154.724 138.579 153.748 138.979 152.628 138.979C150.244 138.979 148.404 137.059 148.404 134.691C148.404 132.307 150.244 130.371 152.628 130.371C153.748 130.371 154.74 130.787 155.54 131.555C155.652 131.651 155.62 131.715 155.54 131.811L155.172 132.163C155.076 132.243 154.98 132.259 154.868 132.147C154.372 131.683 153.636 131.267 152.628 131.267C150.756 131.267 149.332 132.787 149.332 134.691C149.332 136.579 150.756 138.099 152.628 138.099ZM165.169 134.723V134.915C165.169 135.059 165.137 135.123 164.977 135.123H158.113C158.305 136.803 159.665 138.099 161.393 138.099C162.609 138.099 163.169 137.779 163.985 137.187C164.097 137.107 164.177 137.139 164.257 137.235L164.513 137.619C164.593 137.731 164.593 137.843 164.465 137.923C163.505 138.611 162.721 138.979 161.393 138.979C158.993 138.979 157.153 137.059 157.153 134.691C157.153 132.307 159.025 130.371 161.377 130.371C163.793 130.371 165.169 132.371 165.169 134.723ZM158.113 134.275H164.257C164.161 132.675 163.121 131.251 161.393 131.251C159.665 131.251 158.305 132.563 158.113 134.275ZM170.283 138.099C171.979 138.099 172.603 137.379 172.603 136.531C172.603 135.571 171.819 135.315 170.203 135.091C168.667 134.883 167.115 134.579 167.115 132.851C167.115 131.379 168.267 130.371 170.139 130.371C171.067 130.371 172.123 130.611 173.115 131.203C173.275 131.315 173.259 131.395 173.195 131.507L172.955 131.955C172.891 132.067 172.811 132.131 172.667 132.035C171.787 131.491 170.987 131.267 170.139 131.267C168.699 131.267 168.027 131.843 168.027 132.803C168.027 133.795 168.811 134.003 170.395 134.211C171.931 134.435 173.515 134.771 173.515 136.483C173.515 137.907 172.379 138.979 170.267 138.979C169.371 138.979 168.139 138.755 166.955 137.987C166.843 137.907 166.827 137.827 166.907 137.699L167.179 137.219C167.243 137.107 167.323 137.059 167.451 137.155C168.363 137.763 169.227 138.099 170.283 138.099Z" fill="#2F2F25"/>
</g>
<defs>
<clipPath id="clip0_550_2937">
<rect width="214" height="148" fill="white" transform="translate(338.916 0.802734)"/>
</clipPath>
<clipPath id="clip1_550_2937">
<rect width="214" height="148" fill="white" transform="translate(0.0488281 0.802734)"/>
</clipPath>
</defs>
</svg>
