<svg width="590" height="73" viewBox="0 0 590 73" fill="none" xmlns="http://www.w3.org/2000/svg">
<g clip-path="url(#clip0_2101_1555)">
<path d="M42.5524 34.7683L18.8706 2.44531H0.460938V68.7834H19.7997V36.0916L43.676 68.7834H61.8912V2.44531H42.5524V34.7683Z" fill="#2F2F25"/>
<path d="M97.6724 49.3466C97.6724 52.1016 95.9654 54.0757 93.3293 54.0757C90.6932 54.0757 88.9862 52.08 88.9862 49.3466V23.293L69.8203 25.1803V51.9932C69.8203 62.6012 74.5308 70.0854 85.3994 70.0854C90.5852 70.0854 94.9283 68.2848 98.0398 65.0742V68.7621H116.817V23.293L97.6508 25.1803V49.3466H97.6724Z" fill="#2F2F25"/>
<path d="M124.941 68.784H144.086V0.558594L124.941 2.44591V68.784Z" fill="#2F2F25"/>
<path d="M172.023 39.8899L170.23 39.2174C168.911 38.7401 168.35 37.9808 168.35 37.1348C168.35 36.1803 169.106 35.2475 170.813 35.2475C173.449 35.2475 177.598 36.484 181.379 38.1761L183.172 25.377C178.635 23.7717 173.535 22.7305 169.02 22.7305C157.892 22.7305 151.172 29.0866 151.172 37.8941C151.172 45.183 155.601 49.9338 161.932 52.2984L163.726 52.9709C165.325 53.5349 165.994 54.2942 165.994 55.3355C165.994 56.4635 165.152 57.3313 163.358 57.3313C160.247 57.3313 156.271 56.0947 152.317 54.2074L150.523 67.0065C155.234 69.089 160.528 70.3255 165.714 70.3255C177.036 70.3255 184.21 64.1646 184.21 54.7931C184.21 47.5042 180.255 42.9486 172.045 39.9115L172.023 39.8899Z" fill="#2F2F25"/>
<path d="M222.718 25.9612C219.412 24.1824 215.457 23.293 210.855 23.293C206.253 23.293 202.061 24.2909 198.517 26.265C194.974 28.239 192.208 30.9941 190.241 34.4867C188.275 38.001 187.281 42.0577 187.281 46.7C187.281 51.3424 188.383 55.7678 190.587 59.3038C192.791 62.8398 195.924 65.5515 200.008 67.4388C204.092 69.3261 208.975 70.2806 214.68 70.2806C217.834 70.2806 220.967 70.0203 224.101 69.478C227.234 68.9356 230.064 68.1547 232.592 67.1351L231.08 54.3144C229.286 55.117 227.126 55.7461 224.619 56.2668C222.113 56.7657 219.693 57.026 217.402 57.026C214.42 57.026 211.957 56.6572 210.056 55.9197C208.133 55.1821 206.728 53.9456 205.821 52.2318C205.583 51.7546 205.367 51.2339 205.194 50.6699H232.7C232.808 49.7588 232.895 48.891 232.96 48.045C233.024 47.199 233.046 46.3529 233.046 45.5069C233.046 40.8645 232.16 36.8947 230.388 33.5973C228.616 30.2999 226.088 27.7401 222.782 25.9612H222.718ZM207.247 36.3523C208.176 35.6148 209.278 35.246 210.574 35.246C211.525 35.246 212.368 35.4195 213.059 35.7883C213.772 36.1571 214.355 36.6777 214.831 37.3502C215.306 38.0227 215.652 38.8471 215.89 39.8016C215.976 40.3005 216.041 40.8645 216.084 41.4069H204.697C204.805 40.7561 204.935 40.1703 205.107 39.628C205.583 38.1529 206.296 37.0465 207.225 36.3089L207.247 36.3523Z" fill="#2F2F25"/>
<path d="M272.284 22.9258C266.99 22.9258 262.56 24.7263 259.449 28.0454V23.403L240.672 25.2036V68.7854H259.838V43.6862C259.838 40.9312 261.631 38.9571 264.375 38.9571C267.12 38.9571 268.913 40.9529 268.913 43.6862V68.7854H288.079V41.018C288.079 30.41 283.26 22.9258 272.327 22.9258H272.284Z" fill="#2F2F25"/>
<path d="M358.777 25.5704H339.331V2.44531H319.711V68.7834H339.331V44.5303H358.777V68.7834H378.419V2.44531H358.777V25.5704Z" fill="#2F2F25"/>
<path d="M418.023 24.9524C417.151 24.2606 416.219 23.6502 415.206 23.1416C412.632 21.8394 409.734 21.168 406.633 21.168C402.458 21.168 398.628 22.3074 395.284 24.5658C391.96 26.804 389.366 29.7746 387.563 33.4166C385.779 37.0179 384.867 41.0466 384.867 45.3804C384.867 50.0397 385.779 54.2311 387.603 57.8325C389.447 61.4949 392.001 64.3637 395.203 66.3577C398.405 68.3516 402.053 69.3486 406.045 69.3486C409.43 69.3486 412.449 68.7179 415.043 67.4767C416.118 66.9681 417.131 66.3373 418.023 65.6252L418.104 68.0465H432.776V22.4905H418.104L418.023 24.9524ZM415.611 52.5831C413.909 54.4143 411.801 55.3095 409.126 55.3095C406.451 55.3095 404.343 54.4143 402.641 52.5831C400.898 50.7112 400.067 48.3103 400.067 45.238C400.067 42.1656 400.898 39.8461 402.62 37.9539C404.282 36.1227 406.41 35.2274 409.126 35.2274C411.841 35.2274 413.969 36.1227 415.631 37.9539C417.354 39.8258 418.185 42.2063 418.185 45.238C418.185 48.2696 417.334 50.7112 415.611 52.5831Z" fill="#2F2F25"/>
<path d="M469.517 24.248L463.856 49.0652L458.195 24.248H438.359L453.182 68.7844H474.509L489.332 24.248H469.517Z" fill="#2F2F25"/>
<path d="M573.686 22.9258C568.392 22.9258 563.963 24.7263 560.851 28.0454V23.403L542.074 25.2036V68.7854H561.24V43.6862C561.24 40.9312 563.034 38.9571 565.778 38.9571C568.522 38.9571 570.315 40.9529 570.315 43.6862V68.7854H589.481V41.018C589.481 30.41 584.663 22.9258 573.729 22.9258H573.686Z" fill="#2F2F25"/>
<path d="M524.788 25.0276C521.482 23.2488 517.528 22.3594 512.925 22.3594C508.323 22.3594 504.131 23.3573 500.588 25.3314C497.044 27.3054 494.278 30.0605 492.312 33.5531C490.346 37.0674 489.352 41.1241 489.352 45.7664C489.352 50.4088 490.454 54.8342 492.658 58.3702C494.861 61.9062 497.995 64.6179 502.078 66.5052C506.162 68.3925 511.046 69.347 516.75 69.347C519.905 69.347 523.038 69.0867 526.171 68.5444C529.304 68.002 532.134 67.2211 534.663 66.2015L533.15 53.3808C531.357 54.1834 529.196 54.8125 526.689 55.3332C524.183 55.8321 521.763 56.0924 519.472 56.0924C516.491 56.0924 514.027 55.7236 512.126 54.9861C510.203 54.2485 508.798 53.012 507.891 51.2982C507.653 50.821 507.437 50.3003 507.264 49.7363H534.771C534.879 48.8252 534.965 47.9574 535.03 47.1114C535.095 46.2654 535.116 45.4193 535.116 44.5733C535.116 39.9309 534.23 35.9611 532.459 32.6637C530.687 29.3663 528.159 26.8065 524.853 25.0276H524.788ZM506.789 40.495C506.897 39.8442 507.027 39.2584 507.199 38.7161C507.675 37.241 508.388 36.1346 509.317 35.397C510.246 34.6595 511.348 34.2907 512.644 34.2907C513.595 34.2907 514.438 34.4642 515.129 34.833C515.842 35.2018 516.426 35.7224 516.901 36.3949C517.377 37.0674 517.722 37.8918 517.96 38.8463C518.046 39.3452 518.111 39.9092 518.154 40.4516H506.767L506.789 40.495Z" fill="#2F2F25"/>
</g>
<defs>
<clipPath id="clip0_2101_1555">
<rect width="589" height="72" fill="white" transform="translate(0.460938 0.558594)"/>
</clipPath>
</defs>
</svg>
