<svg width="1440" height="49" viewBox="0 0 1440 49" fill="none" xmlns="http://www.w3.org/2000/svg">
<g clip-path="url(#clip0_2101_2434)">
<path d="M0 0H1436C1438.21 0 1440 1.79086 1440 4V44.596C1440 46.8051 1438.21 48.596 1436 48.596H0V0Z" fill="#2F2F25" fill-opacity="0.05"/>
<path d="M1425.6 14.3984L1425.6 26.3697" stroke="white" stroke-width="2.39987" stroke-linecap="round"/>
<path d="M1415.6 14.3984L1415.6 34.1959" stroke="white" stroke-width="2.39987" stroke-linecap="round"/>
<path d="M1405.6 14.3984L1405.6 26.3697" stroke="white" stroke-width="2.39987" stroke-linecap="round"/>
<path d="M1395.6 14.3984L1395.6 34.1959" stroke="white" stroke-width="2.39987" stroke-linecap="round"/>
<path d="M1385.6 14.3984L1385.6 26.3697" stroke="white" stroke-width="2.39987" stroke-linecap="round"/>
<path d="M1375.6 14.3984L1375.6 34.1959" stroke="white" stroke-width="2.39987" stroke-linecap="round"/>
<path d="M1365.6 14.3984L1365.6 26.3697" stroke="white" stroke-width="2.39987" stroke-linecap="round"/>
<path d="M1355.6 14.3984L1355.6 34.1959" stroke="white" stroke-width="2.39987" stroke-linecap="round"/>
<path d="M1345.6 14.3984L1345.6 26.3697" stroke="white" stroke-width="2.39987" stroke-linecap="round"/>
<path d="M1335.6 14.3984L1335.6 34.1959" stroke="white" stroke-width="2.39987" stroke-linecap="round"/>
<path d="M1325.6 14.3984L1325.6 26.3697" stroke="white" stroke-width="2.39987" stroke-linecap="round"/>
<path d="M1315.6 14.3984L1315.6 34.1959" stroke="white" stroke-width="2.39987" stroke-linecap="round"/>
<path d="M1305.6 14.3984L1305.6 26.3697" stroke="white" stroke-width="2.39987" stroke-linecap="round"/>
<path d="M1295.6 14.3984L1295.6 34.1959" stroke="white" stroke-width="2.39987" stroke-linecap="round"/>
<path d="M1285.6 14.3984L1285.6 26.3697" stroke="white" stroke-width="2.39987" stroke-linecap="round"/>
<path d="M1275.6 14.3984L1275.6 34.1959" stroke="white" stroke-width="2.39987" stroke-linecap="round"/>
<path d="M1265.6 14.3984L1265.6 26.3697" stroke="white" stroke-width="2.39987" stroke-linecap="round"/>
<path d="M1255.6 14.3984L1255.6 34.1959" stroke="white" stroke-width="2.39987" stroke-linecap="round"/>
<path d="M1245.6 14.3984L1245.6 26.3697" stroke="white" stroke-width="2.39987" stroke-linecap="round"/>
<path d="M1235.6 14.3984L1235.6 34.1959" stroke="white" stroke-width="2.39987" stroke-linecap="round"/>
<path d="M1225.6 14.3984L1225.6 26.3697" stroke="white" stroke-width="2.39987" stroke-linecap="round"/>
<path d="M1215.6 14.3984L1215.6 34.1959" stroke="white" stroke-width="2.39987" stroke-linecap="round"/>
<path d="M1205.6 14.3984L1205.6 26.3697" stroke="white" stroke-width="2.39987" stroke-linecap="round"/>
<path d="M1195.6 14.3984L1195.6 34.1959" stroke="white" stroke-width="2.39987" stroke-linecap="round"/>
<path d="M1185.6 14.3984L1185.6 26.3697" stroke="white" stroke-width="2.39987" stroke-linecap="round"/>
<path d="M1175.6 14.3984L1175.6 34.1959" stroke="white" stroke-width="2.39987" stroke-linecap="round"/>
<path d="M1165.6 14.3984L1165.6 26.3697" stroke="white" stroke-width="2.39987" stroke-linecap="round"/>
<path d="M1155.6 14.3984L1155.6 34.1959" stroke="white" stroke-width="2.39987" stroke-linecap="round"/>
<path d="M1145.6 14.3984L1145.6 26.3697" stroke="white" stroke-width="2.39987" stroke-linecap="round"/>
<path d="M1135.6 14.3984L1135.6 34.1959" stroke="white" stroke-width="2.39987" stroke-linecap="round"/>
<path d="M1125.6 14.3984L1125.6 26.3697" stroke="white" stroke-width="2.39987" stroke-linecap="round"/>
<path d="M1115.6 14.3984L1115.6 34.1959" stroke="white" stroke-width="2.39987" stroke-linecap="round"/>
<path d="M1105.6 14.3984L1105.6 26.3697" stroke="white" stroke-width="2.39987" stroke-linecap="round"/>
<path d="M1095.6 14.3984L1095.6 34.1959" stroke="white" stroke-width="2.39987" stroke-linecap="round"/>
<path d="M1085.6 14.3984L1085.6 26.3697" stroke="white" stroke-width="2.39987" stroke-linecap="round"/>
<path d="M1075.6 14.3984L1075.6 34.1959" stroke="white" stroke-width="2.39987" stroke-linecap="round"/>
<path d="M1065.6 14.3984L1065.6 26.3697" stroke="white" stroke-width="2.39987" stroke-linecap="round"/>
<path d="M1055.6 14.3984L1055.6 34.1959" stroke="white" stroke-width="2.39987" stroke-linecap="round"/>
<path d="M1045.6 14.3984L1045.6 26.3697" stroke="white" stroke-width="2.39987" stroke-linecap="round"/>
<path d="M1035.6 14.3984L1035.6 34.1959" stroke="white" stroke-width="2.39987" stroke-linecap="round"/>
<path d="M1025.6 14.3984L1025.6 26.3697" stroke="white" stroke-width="2.39987" stroke-linecap="round"/>
<path d="M1015.6 14.3984L1015.6 34.1959" stroke="white" stroke-width="2.39987" stroke-linecap="round"/>
<path d="M1005.6 14.3984L1005.6 26.3697" stroke="white" stroke-width="2.39987" stroke-linecap="round"/>
<path d="M995.602 14.3984L995.602 34.1959" stroke="white" stroke-width="2.39987" stroke-linecap="round"/>
<path d="M985.602 14.3984L985.602 26.3697" stroke="white" stroke-width="2.39987" stroke-linecap="round"/>
<path d="M975.602 14.3984L975.602 34.1959" stroke="white" stroke-width="2.39987" stroke-linecap="round"/>
<path d="M965.602 14.3984L965.602 26.3697" stroke="white" stroke-width="2.39987" stroke-linecap="round"/>
<path d="M955.602 14.3984L955.602 34.1959" stroke="white" stroke-width="2.39987" stroke-linecap="round"/>
<path d="M945.602 14.3984L945.602 26.3697" stroke="white" stroke-width="2.39987" stroke-linecap="round"/>
<path d="M935.602 14.3984L935.602 34.1959" stroke="white" stroke-width="2.39987" stroke-linecap="round"/>
<path d="M925.602 14.3984L925.602 26.3697" stroke="white" stroke-width="2.39987" stroke-linecap="round"/>
<path d="M915.602 14.3984L915.602 34.1959" stroke="white" stroke-width="2.39987" stroke-linecap="round"/>
<path d="M905.602 14.3984L905.602 26.3697" stroke="white" stroke-width="2.39987" stroke-linecap="round"/>
<path d="M895.602 14.3984L895.602 34.1959" stroke="white" stroke-width="2.39987" stroke-linecap="round"/>
<path d="M885.602 14.3984L885.602 26.3697" stroke="white" stroke-width="2.39987" stroke-linecap="round"/>
<path d="M875.602 14.3984L875.602 34.1959" stroke="white" stroke-width="2.39987" stroke-linecap="round"/>
<path d="M865.602 14.3984L865.602 26.3697" stroke="white" stroke-width="2.39987" stroke-linecap="round"/>
<path d="M855.602 14.3984L855.602 34.1959" stroke="white" stroke-width="2.39987" stroke-linecap="round"/>
<path d="M845.602 14.3984L845.602 26.3697" stroke="white" stroke-width="2.39987" stroke-linecap="round"/>
<path d="M835.602 14.3984L835.602 34.1959" stroke="white" stroke-width="2.39987" stroke-linecap="round"/>
<path d="M825.602 14.3984L825.602 26.3697" stroke="white" stroke-width="2.39987" stroke-linecap="round"/>
<path d="M815.602 14.3984L815.602 34.1959" stroke="white" stroke-width="2.39987" stroke-linecap="round"/>
<path d="M805.602 14.3984L805.602 26.3697" stroke="white" stroke-width="2.39987" stroke-linecap="round"/>
<path d="M795.602 14.3984L795.602 34.1959" stroke="white" stroke-width="2.39987" stroke-linecap="round"/>
<path d="M785.602 14.3984L785.602 26.3697" stroke="white" stroke-width="2.39987" stroke-linecap="round"/>
<path d="M775.602 14.3984L775.602 34.1959" stroke="white" stroke-width="2.39987" stroke-linecap="round"/>
<path d="M765.602 14.3984L765.602 26.3697" stroke="white" stroke-width="2.39987" stroke-linecap="round"/>
<path d="M755.602 14.3984L755.602 34.1959" stroke="white" stroke-width="2.39987" stroke-linecap="round"/>
<path d="M745.602 14.3984L745.602 26.3697" stroke="white" stroke-width="2.39987" stroke-linecap="round"/>
<path d="M735.602 14.3984L735.602 34.1959" stroke="white" stroke-width="2.39987" stroke-linecap="round"/>
<path d="M725.602 14.3984L725.602 26.3697" stroke="white" stroke-width="2.39987" stroke-linecap="round"/>
<path d="M715.602 14.3984L715.602 34.1959" stroke="white" stroke-width="2.39987" stroke-linecap="round"/>
<path d="M705.602 14.3984L705.602 26.3697" stroke="white" stroke-width="2.39987" stroke-linecap="round"/>
<path d="M695.602 14.3984L695.602 34.1959" stroke="white" stroke-width="2.39987" stroke-linecap="round"/>
<path d="M685.602 14.3984L685.602 26.3697" stroke="white" stroke-width="2.39987" stroke-linecap="round"/>
<path d="M675.602 14.3984L675.602 34.1959" stroke="white" stroke-width="2.39987" stroke-linecap="round"/>
<path d="M665.602 14.3984L665.602 26.3697" stroke="white" stroke-width="2.39987" stroke-linecap="round"/>
<path d="M655.602 14.3984L655.602 34.1959" stroke="white" stroke-width="2.39987" stroke-linecap="round"/>
<path d="M645.602 14.3984L645.602 26.3697" stroke="white" stroke-width="2.39987" stroke-linecap="round"/>
<path d="M635.602 14.3984L635.602 34.1959" stroke="white" stroke-width="2.39987" stroke-linecap="round"/>
<path d="M625.602 14.3984L625.602 26.3697" stroke="white" stroke-width="2.39987" stroke-linecap="round"/>
<path d="M615.602 14.3984L615.602 34.1959" stroke="white" stroke-width="2.39987" stroke-linecap="round"/>
<path d="M605.602 14.3984L605.602 26.3697" stroke="white" stroke-width="2.39987" stroke-linecap="round"/>
<path d="M595.602 14.3984L595.602 34.1959" stroke="white" stroke-width="2.39987" stroke-linecap="round"/>
<path d="M585.602 14.3984L585.602 26.3697" stroke="white" stroke-width="2.39987" stroke-linecap="round"/>
<path d="M575.602 14.3984L575.602 34.1959" stroke="white" stroke-width="2.39987" stroke-linecap="round"/>
<path d="M565.602 14.3984L565.602 26.3697" stroke="white" stroke-width="2.39987" stroke-linecap="round"/>
<path d="M555.602 14.3984L555.602 34.1959" stroke="white" stroke-width="2.39987" stroke-linecap="round"/>
<path d="M545.602 14.3984L545.602 26.3697" stroke="white" stroke-width="2.39987" stroke-linecap="round"/>
<path d="M535.602 14.3984L535.602 34.1959" stroke="white" stroke-width="2.39987" stroke-linecap="round"/>
<path d="M525.602 14.3984L525.602 26.3697" stroke="white" stroke-width="2.39987" stroke-linecap="round"/>
<path d="M515.602 14.3984L515.602 34.1959" stroke="white" stroke-width="2.39987" stroke-linecap="round"/>
<path d="M505.602 14.3984L505.602 26.3697" stroke="white" stroke-width="2.39987" stroke-linecap="round"/>
<path d="M495.602 14.3984L495.602 34.1959" stroke="white" stroke-width="2.39987" stroke-linecap="round"/>
<path d="M485.602 14.3984L485.602 26.3697" stroke="white" stroke-width="2.39987" stroke-linecap="round"/>
<path d="M475.602 14.3984L475.602 34.1959" stroke="white" stroke-width="2.39987" stroke-linecap="round"/>
<path d="M465.602 14.3984L465.602 26.3697" stroke="white" stroke-width="2.39987" stroke-linecap="round"/>
<path d="M455.602 14.3984L455.602 34.1959" stroke="white" stroke-width="2.39987" stroke-linecap="round"/>
<path d="M445.602 14.3984L445.602 26.3697" stroke="white" stroke-width="2.39987" stroke-linecap="round"/>
<path d="M435.602 14.3984L435.602 34.1959" stroke="white" stroke-width="2.39987" stroke-linecap="round"/>
<path d="M425.602 14.3984L425.602 26.3697" stroke="white" stroke-width="2.39987" stroke-linecap="round"/>
<path d="M415.602 14.3984L415.602 34.1959" stroke="white" stroke-width="2.39987" stroke-linecap="round"/>
<path d="M405.602 14.3984L405.602 26.3697" stroke="white" stroke-width="2.39987" stroke-linecap="round"/>
<path d="M395.602 14.3984L395.602 34.1959" stroke="white" stroke-width="2.39987" stroke-linecap="round"/>
<path d="M385.602 14.3984L385.602 26.3697" stroke="white" stroke-width="2.39987" stroke-linecap="round"/>
<path d="M375.602 14.3984L375.602 34.1959" stroke="white" stroke-width="2.39987" stroke-linecap="round"/>
<path d="M365.602 14.3984L365.602 26.3697" stroke="white" stroke-width="2.39987" stroke-linecap="round"/>
<path d="M355.602 14.3984L355.602 34.1959" stroke="white" stroke-width="2.39987" stroke-linecap="round"/>
<path d="M345.602 14.3984L345.602 26.3697" stroke="white" stroke-width="2.39987" stroke-linecap="round"/>
<path d="M335.602 14.3984L335.602 34.1959" stroke="white" stroke-width="2.39987" stroke-linecap="round"/>
<path d="M325.602 14.3984L325.602 26.3697" stroke="white" stroke-width="2.39987" stroke-linecap="round"/>
<path d="M315.602 14.3984L315.602 34.1959" stroke="white" stroke-width="2.39987" stroke-linecap="round"/>
<path d="M305.602 14.3984L305.602 26.3697" stroke="white" stroke-width="2.39987" stroke-linecap="round"/>
<path d="M295.602 14.3984L295.602 34.1959" stroke="white" stroke-width="2.39987" stroke-linecap="round"/>
<path d="M285.602 14.3984L285.602 26.3697" stroke="white" stroke-width="2.39987" stroke-linecap="round"/>
<path d="M275.602 14.3984L275.602 34.1959" stroke="white" stroke-width="2.39987" stroke-linecap="round"/>
<path d="M265.602 14.3984L265.602 26.3697" stroke="white" stroke-width="2.39987" stroke-linecap="round"/>
<path d="M255.602 14.3984L255.602 34.1959" stroke="white" stroke-width="2.39987" stroke-linecap="round"/>
<path d="M245.602 14.3984L245.602 26.3697" stroke="white" stroke-width="2.39987" stroke-linecap="round"/>
<path d="M235.602 14.3984L235.602 34.1959" stroke="white" stroke-width="2.39987" stroke-linecap="round"/>
<path d="M225.602 14.3984L225.602 26.3697" stroke="white" stroke-width="2.39987" stroke-linecap="round"/>
<path d="M215.602 14.3984L215.602 34.1959" stroke="white" stroke-width="2.39987" stroke-linecap="round"/>
<path d="M205.602 14.3984L205.602 26.3697" stroke="white" stroke-width="2.39987" stroke-linecap="round"/>
<path d="M195.602 14.3984L195.602 34.1959" stroke="white" stroke-width="2.39987" stroke-linecap="round"/>
<path d="M185.602 14.3984L185.602 26.3697" stroke="white" stroke-width="2.39987" stroke-linecap="round"/>
<path d="M175.602 14.3984L175.602 34.1959" stroke="white" stroke-width="2.39987" stroke-linecap="round"/>
<path d="M165.602 14.3984L165.602 26.3697" stroke="white" stroke-width="2.39987" stroke-linecap="round"/>
<path d="M155.602 14.3984L155.602 34.1959" stroke="white" stroke-width="2.39987" stroke-linecap="round"/>
<path d="M145.602 14.3984L145.602 26.3697" stroke="white" stroke-width="2.39987" stroke-linecap="round"/>
<path d="M135.602 14.3984L135.602 34.1959" stroke="white" stroke-width="2.39987" stroke-linecap="round"/>
<path d="M125.602 14.3984L125.602 26.3697" stroke="white" stroke-width="2.39987" stroke-linecap="round"/>
<path d="M115.602 14.3984L115.602 34.1959" stroke="white" stroke-width="2.39987" stroke-linecap="round"/>
<path d="M105.602 14.3984L105.602 26.3697" stroke="white" stroke-width="2.39987" stroke-linecap="round"/>
<path d="M95.6016 14.3984L95.6016 34.1959" stroke="white" stroke-width="2.39987" stroke-linecap="round"/>
<path d="M85.6016 14.3984L85.6016 26.3697" stroke="white" stroke-width="2.39987" stroke-linecap="round"/>
<path d="M75.6016 14.3984L75.6016 34.1959" stroke="white" stroke-width="2.39987" stroke-linecap="round"/>
<path d="M65.6016 14.3984L65.6016 26.3697" stroke="white" stroke-width="2.39987" stroke-linecap="round"/>
<path d="M55.6016 14.3984L55.6016 34.1959" stroke="white" stroke-width="2.39987" stroke-linecap="round"/>
<path d="M45.6016 14.3984L45.6016 26.3697" stroke="white" stroke-width="2.39987" stroke-linecap="round"/>
<path d="M35.6016 14.3984L35.6016 34.1959" stroke="white" stroke-width="2.39987" stroke-linecap="round"/>
<path d="M25.6016 14.3984L25.6016 26.3697" stroke="white" stroke-width="2.39987" stroke-linecap="round"/>
<path d="M15.6016 14.3984L15.6016 34.1959" stroke="white" stroke-width="2.39987" stroke-linecap="round"/>
</g>
<defs>
<clipPath id="clip0_2101_2434">
<rect width="1440" height="48.596" fill="white"/>
</clipPath>
</defs>
</svg>
