<svg width="148" height="35" viewBox="0 0 148 35" fill="none" xmlns="http://www.w3.org/2000/svg">
<path d="M46.3494 29.8357C46.7075 30.2028 48.2595 28.9155 48.6126 28.6324C51.8739 26.0176 55.1448 21.7775 57.6813 18.4405C58.3757 17.5274 60.2974 14.0205 61.3438 13.9933C64.2739 13.9174 62.4982 19.3044 62.3983 21.0011C62.2841 22.933 62.201 30.6021 64.4438 31.2794C67.2141 32.1162 71.8221 26.2795 73.2686 24.2495C77.0701 18.9147 79.3443 12.3354 82.8501 6.7884L83.9305 6.51183C84.6081 6.9654 82.5377 11.2452 82.1684 12.097C79.88 17.3825 72.4566 31.829 66.4366 33.0585C58.9539 34.5867 60.439 23.0029 60.4395 18.7694C56.8596 21.7262 54.666 25.9597 51.2023 29.094C49.9881 30.1928 44.9232 34.8457 43.9859 31.7169C43.5892 30.3934 45.1408 25.2004 45.6622 23.628C46.1958 22.0184 47.7052 19.3904 47.9481 18.0996C48.0242 17.6943 48.3179 17.6988 47.7062 17.2764C44.979 18.7216 42.1899 20.115 39.1431 20.7843C37.6489 21.1127 35.8899 20.8864 34.5337 21.6196C33.0141 22.7002 31.0431 28.6093 29.5159 30.4251C27.1975 33.1812 27.4237 27.5216 27.5891 26.1317C27.6515 25.6057 28.8657 22.6343 28.0111 22.666C23.3925 26.9775 18.2444 30.9239 12.1737 33.0515C8.97077 34.1739 6.07719 35.0554 3.02486 32.9585C-0.744655 30.3693 -0.35411 25.6952 0.804843 21.8348C2.40455 16.5086 11.5012 4.17506 17.054 2.8777C21.2171 1.90467 23.884 3.23372 22.9401 7.78807C22.5815 9.51638 18.498 12.9891 16.8542 13.7459C16.1735 14.0592 11.1898 15.9323 11.1948 14.4358C14.483 11.9205 20.4081 11.9075 21.4251 7.19118C22.0063 4.49488 19.6514 3.59376 17.3305 4.34804C15.0095 5.10232 8.59494 12.266 7.00081 14.4911C4.51806 17.9563 0.832739 24.3893 2.24986 28.6379C4.83404 36.3884 17.3903 28.7405 21.4677 25.7742C22.8067 24.8001 26.4205 21.9092 27.2021 20.6657C29.0904 17.6596 26.5017 16.2124 26.3612 13.498C26.2658 11.6555 28.5847 5.94109 30.2894 5.16971C33.0658 3.91358 33.7602 8.71232 33.6116 10.5442C33.5512 11.2854 32.5145 14.0974 33.4731 14.288C35.0302 14.5972 39.7695 7.00211 40.9001 5.77112C41.3241 5.3095 42.5672 3.92263 42.9771 5.21346C43.6871 7.44764 37.8624 15.4898 36.778 17.8633L37.1508 18.7317C42.27 18.3847 47.866 15.5858 51.6436 12.185C52.3471 11.5519 55.8371 6.8769 56.0618 9.35446C56.1556 10.3913 52.623 14.3528 51.7968 15.6256C49.0868 19.8013 47.0377 24.9344 46.3489 29.8357H46.3494ZM30.3006 7.71918C29.1726 10.498 27.8873 14.3237 29.8289 16.9717C31.812 14.4921 31.5757 11.1844 31.4479 8.20293L31.2095 7.84037L30.3006 7.71968V7.71918ZM34.4211 17.7707C34.9192 17.2654 35.4862 16.2154 35.4335 15.4822L33.0161 18.0302C32.727 19.0012 34.1376 18.0579 34.4206 17.7707H34.4211Z" fill="#F9F7EC"/>
<path d="M139.398 14.8823L140.614 14.8853L140.611 15.7759C139.115 15.8352 137.603 17.5339 136.68 18.6316C135.087 20.5254 129.197 31.301 127.969 31.5877C127.695 31.6515 127.057 31.5117 126.849 31.3619C125.907 30.684 128.722 23.9523 128.779 22.4709C128.799 21.9575 128.69 21.4451 128.039 21.4556C127.691 21.4612 123.934 23.8276 122.935 24.2093C120.851 25.0038 118.148 25.3739 115.928 25.0329C114.66 24.8383 113.816 23.3574 112.63 24.1358C111.743 24.7182 109.237 33.1374 107.075 33.9742C103.665 33.4809 108.348 28.3392 106.831 27.1173C105.842 26.3208 104.679 28.2764 103.91 28.7651C102.115 29.9056 97.4073 31.4242 96.7251 28.4287C96.4218 27.0962 96.8646 25.9743 96.8965 24.8117C96.9752 21.9831 93.6342 27.0177 93.0342 27.604C90.8568 29.7311 85.833 32.525 82.7847 32.7668C75.9476 33.3094 80.0128 23.3514 82.1649 20.4685C85.7188 15.7065 93.4217 11.3437 93.3258 20.8668L91.9407 20.5746C92.3987 18.4189 90.7888 16.4915 88.4684 17.119C84.9753 18.0644 80.9522 25.1642 80.6271 28.5268C80.4785 30.0635 80.6245 30.5623 82.2587 30.7393C86.6384 31.2145 92.1207 26.4756 94.8434 23.4082C96.3553 21.7051 98.2467 18.1785 99.6922 16.8284C100.037 16.5065 101.881 15.1544 101.821 16.232C101.728 17.912 100.166 19.8716 99.5477 21.4702C98.8016 23.4002 96.7997 28.2668 100.193 28.561C102.254 28.7395 107.843 23.1402 108.705 21.2344C110.568 17.114 108.557 13.5226 110.549 8.69973C110.979 7.65832 112.632 3.71946 113.434 6.26088C114.44 9.44898 112.209 13.3773 111.827 16.5453C111.644 18.0604 113.833 15.7301 114.064 15.4576C115.72 13.504 119.912 4.47525 122.038 4.17001C122.5 4.10364 122.896 4.34903 123.326 4.42949C123.935 5.27227 117.485 14.0139 116.614 15.5808C115.069 18.3611 112.124 22.4699 116.953 23.4268C119.051 23.8427 124.527 21.6789 126.132 20.2709C128.291 18.3777 125.867 16.7449 125.527 14.9623C125.018 12.2871 125.777 9.10352 127.875 7.25251C133.074 2.66547 132.303 13.3909 131.822 16.0786C132.522 16.7972 137.633 12.3349 138.341 11.5982C141.306 8.51468 143.591 4.4848 145.445 0.66562C146.5 -0.573916 147.784 1.12573 147.143 2.3356L139.999 13.2335L139.397 14.8818L139.398 14.8823ZM130.003 10.5482C130.003 10.1741 130.696 8.69973 129.077 9.01753C127.204 9.38461 126.261 17.7873 130.003 16.0811V10.5482ZM133.64 19.3733C130.843 18.9187 130.545 21.7408 130.611 23.8548C131.217 23.9805 131.311 23.5571 131.592 23.1804C132.378 22.1234 132.936 20.5203 133.64 19.3733Z" fill="#F9F7EC"/>
</svg>
