<svg width="216" height="183" viewBox="0 0 216 183" fill="none" xmlns="http://www.w3.org/2000/svg">
<path d="M71.0867 3.07598C47.9367 15.646 23.2467 25.056 1.00672 29.826C0.566719 29.016 0.386719 27.926 0.386719 26.386V8.24598C0.386719 4.25598 1.55672 3.07598 5.55672 3.07598H71.0867Z" fill="#F48066"/>
<path d="M27.4267 96.236C36.4367 100.266 45.5567 104.996 54.5767 110.306L43.5867 131.626C41.6867 135.466 39.1967 136.786 35.1567 136.786H14.3467C10.3567 136.786 7.45672 135.066 9.17672 131.626L27.4167 96.236H27.4267Z" fill="#8E64AA"/>
<path d="M71.2367 78.036L55.3767 108.776C46.3667 103.466 37.2467 98.736 28.2267 94.706L36.2467 79.096C47.2767 77.956 59.1067 77.596 71.2267 78.036" fill="#A482BC"/>
<path d="M97.2467 6.70598V22.756C97.2467 26.196 96.2967 29.456 94.7567 32.506L72.0767 76.396C60.0267 75.916 48.2667 76.176 37.2067 77.276L60.7567 31.556H5.55672C4.45672 31.556 3.57672 31.486 2.88672 31.226C25.7367 26.126 51.0467 16.236 74.5667 3.07598H93.2167C96.1067 3.07598 97.2467 4.24598 97.2467 6.70598Z" fill="#F79D84"/>
<path d="M215.127 64.116C203.517 59.316 192.117 53.636 181.277 47.376C183.107 54.076 183.767 61.956 183.767 69.976C183.767 82.066 182.267 93.826 177.437 101.736C186.737 106.536 195.127 112.026 202.277 118.186C211.027 105.656 215.277 88.656 215.277 69.976C215.277 67.996 215.237 66.056 215.127 64.116Z" fill="#96C374"/>
<path d="M160.067 0.625977C148.927 0.625977 139.517 3.37598 131.817 8.28598C138.847 15.316 147.017 22.246 155.997 28.836C157.277 28.616 158.637 28.506 160.067 28.506C171.057 28.506 177.247 35.216 180.507 44.956C191.537 51.406 203.147 57.266 215.007 62.286C212.787 27.806 195.127 0.625977 160.067 0.625977Z" fill="#74B34B"/>
<path d="M153.737 29.346C145.057 22.896 137.107 16.116 130.257 9.30598C113.077 21.176 104.867 43.996 104.867 69.976C104.867 73.236 105.017 76.456 105.267 79.606C116.217 81.286 127.137 83.566 137.617 86.496C136.737 81.336 136.407 75.686 136.407 69.976C136.407 51.326 139.957 33.456 153.737 29.346Z" fill="#8AD2CF"/>
<path d="M176.517 103.166C172.887 108.256 167.617 111.406 160.067 111.406C146.737 111.406 140.467 101.476 137.947 88.286C127.397 85.326 116.447 82.976 105.417 81.296C108.637 113.966 126.257 139.286 160.067 139.286C178.497 139.286 192.117 131.746 201.247 119.616C194.177 113.456 185.827 107.966 176.517 103.166Z" fill="#61C6C1"/>
<path d="M177.297 156.886C179.757 156.886 181.867 157.506 184.567 159.156C184.957 159.386 185.187 159.346 185.467 158.886L186.487 157.166C186.757 156.696 186.687 156.506 186.337 156.266C183.047 154.316 180.777 153.686 177.147 153.686C171.587 153.686 167.177 156.616 167.177 161.776C167.177 168.386 172.727 168.776 177.537 169.596C180.977 170.186 184.147 170.886 184.147 174.016C184.147 176.866 181.487 178.866 177.227 178.866C174.447 178.866 171.597 177.846 168.857 176.016C168.427 175.706 168.237 175.826 167.957 176.286L166.827 178.126C166.557 178.596 166.597 178.746 166.977 179.026C169.867 181.066 173.467 182.076 177.417 182.076C183.557 182.076 187.537 178.786 187.537 173.866C187.537 167.536 182.137 166.676 177.527 166.006C173.767 165.456 170.567 165.026 170.567 161.786C170.567 158.196 173.537 156.896 177.287 156.896M137.417 168.146V157.396H144.257C149.377 157.396 150.707 159.816 150.707 162.676C150.707 165.536 149.377 168.146 144.257 168.146H137.417ZM143.007 171.346L149.807 180.886C150.117 181.316 150.427 181.546 150.937 181.546H153.357C153.907 181.546 154.177 181.316 153.787 180.766L146.947 171.156C150.777 170.496 154.107 168.066 154.107 162.786C154.107 156.446 149.337 154.186 144.607 154.186H134.677C134.207 154.186 134.057 154.336 134.057 154.846V180.886C134.057 181.396 134.207 181.546 134.677 181.546H136.747C137.257 181.546 137.407 181.396 137.407 180.886V171.346H143.007ZM108.137 160.876L113.257 171.586H102.937L108.097 160.876H108.137ZM108.727 154.186C108.567 153.876 108.457 153.796 108.217 153.796H107.987C107.757 153.796 107.637 153.876 107.477 154.186L94.7267 180.886C94.5367 181.276 94.6567 181.546 95.0467 181.546H97.5067C98.0567 181.546 98.2867 181.396 98.5267 180.886L101.337 174.946H114.857L117.667 180.886C117.907 181.396 118.177 181.546 118.687 181.546H121.157C121.547 181.546 121.667 181.276 121.467 180.886L108.717 154.186H108.727ZM82.6867 181.556C83.1567 181.556 83.3067 181.406 83.3067 180.896V179.016C83.3067 178.506 83.1467 178.356 82.6867 178.356H67.7467V169.326H81.7467C82.2567 169.326 82.3767 169.206 82.3767 168.706V166.786C82.3767 166.276 82.2567 166.126 81.7467 166.126H67.7467V157.406H82.4867C82.9567 157.406 83.1067 157.246 83.1067 156.746V154.866C83.1067 154.356 82.9567 154.206 82.4867 154.206H65.0567C64.5467 154.206 64.3967 154.356 64.3967 154.866V180.906C64.3967 181.416 64.5467 181.566 65.0567 181.566H82.6867V181.556ZM28.2567 154.846L38.4167 170.876V180.886C38.4167 181.396 38.5767 181.546 39.0767 181.546H41.1167C41.6267 181.546 41.7767 181.396 41.7767 180.886V170.876L51.9367 154.846C52.2467 154.336 51.9767 154.186 51.5467 154.186H49.0067C48.4967 154.186 48.1867 154.376 47.9467 154.736L40.0867 167.166L32.2267 154.736C31.9867 154.386 31.6767 154.186 31.1667 154.186H28.6267C28.1967 154.186 27.9267 154.336 28.2367 154.846" fill="black"/>
</svg>
