<svg width="370" height="185" viewBox="0 0 370 185" fill="none" xmlns="http://www.w3.org/2000/svg">
<path d="M216.506 67.922C224.855 68.982 231.086 74.5729 230.797 76.4247C230.509 78.2765 223.193 82.1673 214.844 81.1175C206.496 80.0676 200.194 74.1605 200.553 72.6148C200.913 71.0691 208.158 66.8797 216.506 67.922Z" fill="#8F64AA"/>
<path d="M126.701 18.11C123.918 11.2442 125.325 4.11516 127.088 3.49536C128.851 2.87556 134.763 6.85747 137.541 13.7057C140.319 20.5538 139.023 27.44 137.154 28.3279C135.284 29.2159 129.479 24.9608 126.701 18.11Z" fill="#F48066"/>
<path d="M197.424 78.2816C211.229 84.6997 218.753 98.2519 217.349 100.797C215.945 103.342 201.09 106.504 187.285 100.078C173.479 93.6527 166.639 79.253 167.357 77.5631C168.076 75.8732 183.629 71.866 197.424 78.2816Z" fill="#F48066"/>
<path d="M130.979 29.6156C144.28 37.84 149.484 53.1631 148.576 55.0149C147.668 56.8667 131.282 58.8627 117.98 50.6383C104.679 42.4139 99.3207 26.9922 100.383 25.2391C101.446 23.4859 117.667 21.4014 130.979 29.6156Z" fill="#8F64AA"/>
<path d="M130.979 29.6156C144.28 37.84 149.484 53.1631 148.576 55.0149C147.668 56.8667 131.282 58.8627 117.98 50.6383C104.679 42.4139 99.3207 26.9922 100.383 25.2391C101.446 23.4859 117.667 21.4014 130.979 29.6156Z" fill="#8F64AA"/>
<path d="M166.345 25.95C164.521 39.1631 155.012 48.6524 152.603 48.4197C150.195 48.1869 143.65 36.2766 145.477 23.0559C147.304 9.83508 157.44 0.128217 159.219 0.578523C160.997 1.02883 168.172 12.7216 166.345 25.95Z" fill="#8F64AA"/>
<path d="M157.984 49.9882C160.365 42.9427 166.065 38.5282 167.851 39.11C169.637 39.6919 171.481 46.7146 169.09 53.7601C166.7 60.8056 160.669 65.0304 159.224 64.6383C157.779 64.2462 155.601 57.0261 157.984 49.9882Z" fill="#F48066"/>
<path d="M126.87 71.9039C137.323 61.4507 152.927 60.1479 154.04 61.2357C155.153 62.3235 153.825 77.9628 143.372 88.4058C132.919 98.8489 117.839 100.341 116.202 99.0664C114.565 97.7914 116.417 82.3672 126.87 71.9039Z" fill="#F48066"/>
<path d="M181.947 19.9821C190.072 11.8488 201.603 9.99696 203.086 11.6869C204.568 13.3768 202.924 24.7002 194.79 32.8259C186.657 40.9517 175.268 42.5682 173.641 41.1212C172.015 39.6741 173.821 28.1154 181.947 19.9821Z" fill="#F48066"/>
<path d="M114.899 59.6444C121.902 57.021 129.066 59.1587 129.658 60.4185C130.25 61.6784 126.053 68.0838 119.033 70.7098C112.013 73.3357 104.949 71.5623 104.274 69.9357C103.598 68.309 107.879 62.2678 114.899 59.6444Z" fill="#8F64AA"/>
<path d="M169.983 14.8213C171.043 9.42018 174.737 5.49139 176.176 5.87845C177.616 6.26551 179.581 11.1 178.521 16.5036C177.461 21.9073 174.089 25.8639 172.328 25.4364C170.568 25.0088 168.913 20.2225 169.983 14.8112" fill="#8F64AA"/>
<path d="M153.231 79.5717C157.241 74.8182 163.036 72.9664 164.241 74.1352C165.445 75.304 164.747 81.1453 160.744 85.9013C156.742 90.6574 151.245 92.7141 149.735 91.3379C148.224 89.9617 149.229 84.3177 153.231 79.5717Z" fill="#8F64AA"/>
<path d="M224.055 42.6214C222.95 40.5545 205.335 35.7453 189.263 42.9351C173.191 50.1248 165.05 66.5812 165.832 68.648C166.614 70.7149 184.552 75.524 200.624 68.3343C216.696 61.1446 225.161 44.6781 224.055 42.6214ZM187.027 64.57C180.955 68.0763 174.757 67.626 173.267 66.1258C171.777 64.6256 175.425 58.4959 181.491 54.982C187.558 51.4681 194.039 51.8374 195.243 53.4363C196.448 55.0351 193.085 61.0535 187.027 64.57Z" fill="#8F64AA"/>
<path d="M39.9588 177.26H48.9118V145.225C49.2002 141.454 48.5027 137.672 46.8879 134.251C45.7627 132.632 44.2487 131.322 42.4849 130.441C40.7211 129.56 38.7642 129.136 36.794 129.209C34.1186 129.203 31.4884 129.899 29.1656 131.227C26.8428 132.554 24.9085 134.468 23.5555 136.776C20.9119 141.314 20.7727 146.743 20.7727 151.912V177.258H29.7181V182.677H0.726562V177.258H10.6839V130.456H0.726562V125.05L20.7778 124.291V133.505C25.7033 126.441 30.6188 123.034 39.4453 123.034C42.3278 122.921 45.2028 123.401 47.8927 124.443C50.5826 125.485 53.0303 127.067 55.0845 129.093C58.9855 133.381 58.9855 139.437 58.9855 144.982V177.268H68.8264V182.687H39.9588V177.26Z" fill="#535246"/>
<path d="M120.057 182.679V174.229C115.132 181.042 110.593 183.946 102.144 183.946C96.2115 183.946 89.1559 182.049 85.2473 177.384C81.4526 172.972 81.4526 165.529 81.4526 159.984V130.469H70.3645V125.045L91.6756 124.286V159.347C91.6756 169.306 92.8089 177.764 105.051 177.764C118.423 177.764 120.06 165.532 120.06 154.935V130.469H108.959V125.045L130.144 124.286V177.26H140.101V182.679H120.057Z" fill="#535246"/>
<path d="M145.232 182.679V177.25H156.332V107.281L145.664 107.19L145.601 102.363L166.426 97.1488V177.248H177.651V182.677L145.232 182.679Z" fill="#535246"/>
<path d="M208.849 183.936C202.596 184.003 196.57 181.6 192.078 177.25V182.669H185.643V165.269H192.078C192.078 173.969 199.268 178.76 207.341 178.76C213.263 178.76 219.699 175.856 219.699 169.043C219.699 154.295 185.519 162.357 185.519 140.039C185.519 129.452 193.968 123.008 204.06 123.008C209.642 123.056 215.018 125.123 219.195 128.827V124.289H225.639V138.921H219.203V135.126C215.294 130.714 211.76 128.313 205.712 128.313C199.893 128.313 194.487 131.096 194.487 137.517C194.487 151.142 229.044 143.083 229.044 166.268C229.044 177.513 219.327 183.939 208.856 183.939" fill="#535246"/>
<path d="M289.81 167.794C284.391 174.219 278.719 178.758 269.883 178.758C265.732 178.77 261.68 177.49 258.29 175.095C254.9 172.7 252.34 169.309 250.965 165.393C249.824 161.938 249.31 158.307 249.447 154.672H293.719C293.825 150.381 293.36 146.094 292.335 141.926C288.793 129.568 279.347 123.006 266.602 123.006C248.941 123.006 237.347 136.505 237.347 153.655C237.347 172.072 250.335 183.926 268.499 183.926C272.805 184.114 277.103 183.403 281.119 181.841C285.136 180.278 288.784 177.897 291.831 174.849C292.965 173.837 293.979 172.701 295.12 171.695L289.81 167.794ZM266.235 128.329C278.466 128.329 281.998 138.926 282.754 149.27H249.702C250.461 139.035 254.127 128.321 266.235 128.321V128.329Z" fill="#535246"/>
<path d="M340.52 177.26H349.481V145.225C349.769 141.454 349.072 137.672 347.457 134.251C346.332 132.634 344.82 131.325 343.058 130.444C341.296 129.563 339.341 129.138 337.373 129.209C334.696 129.203 332.064 129.899 329.74 131.226C327.415 132.554 325.479 134.467 324.124 136.776C321.481 141.314 321.342 146.743 321.342 151.912V177.258H330.292V182.676H301.288V177.258H311.245V130.456H301.288V125.05L321.339 124.291V133.505C326.254 126.441 331.18 123.034 340.006 123.034C342.889 122.92 345.764 123.399 348.454 124.442C351.144 125.484 353.592 127.067 355.646 129.093C359.554 133.381 359.554 139.437 359.554 144.982V177.268H369.388V182.687H340.52V177.26Z" fill="#535246"/>
<path d="M39.9487 182.876V177.458H48.9016V145.435C49.19 141.664 48.4926 137.882 46.8778 134.461C45.7526 132.842 44.2385 131.532 42.4748 130.651C40.711 129.77 38.7541 129.346 36.7839 129.419C34.1082 129.412 31.4776 130.108 29.1547 131.435C26.8317 132.763 24.8976 134.677 23.5454 136.986C20.8942 141.524 20.7626 146.953 20.7626 152.122V177.475H29.7156V182.876H0.734128V177.458H10.6914V130.656H0.734128V125.227L20.7854 124.468V133.682C25.7109 126.619 30.6187 123.211 39.4528 123.211C42.3353 123.098 45.2104 123.578 47.9003 124.62C50.5902 125.662 53.0379 127.244 55.0921 129.27C58.993 133.558 58.993 139.614 58.993 145.16V177.445H68.834V182.876H39.9487Z" fill="#535246"/>
<path d="M120.057 182.871V174.422C115.132 181.235 110.593 184.139 102.144 184.139C96.2115 184.139 89.1483 182.252 85.2473 177.587C81.4526 173.175 81.4526 165.732 81.4526 160.176V130.666H70.3645V125.237L91.6756 124.478V159.539C91.6756 169.496 92.8089 177.956 105.051 177.956C118.423 177.956 120.06 165.724 120.06 155.127V130.661H108.959V125.232L130.151 124.473V177.447H140.109V182.871H120.057Z" fill="#535246"/>
<path d="M145.232 182.876V177.468H156.332V107.478L145.664 107.387L145.601 102.56L166.426 97.3462V177.468H177.643V182.887L145.232 182.876Z" fill="#535246"/>
</svg>
